<?xml version="1.0" encoding="UTF-8"?>
<svg version="1.1" xmlns="http://www.w3.org/2000/svg" width="100" height="100">
<path d="M0 0 C0.69867188 0.55042969 1.39734375 1.10085938 2.1171875 1.66796875 C11.94154909 10.32640416 17.122445 23.38343262 17.94921875 36.25 C18.15399097 51.37164105 12.51634361 64.04124893 2.1953125 74.8984375 C-7.96204886 84.55003813 -20.22047117 88.37655173 -33.93334961 88.30078125 C-46.87497999 87.96342233 -58.65932505 82.87431645 -68.15625 74.0390625 C-79.11041341 61.92450043 -82.8584198 48.06713024 -82.17480469 32.17138672 C-81.20436492 20.11679 -74.70158232 8.71731383 -65.93359375 0.5546875 C-46.16120717 -15.34311019 -19.80706495 -16.21493622 0 0 Z " fill="#1C1E3A" transform="translate(82,12)"/>
<path d="M0 0 C0.69867188 0.55042969 1.39734375 1.10085938 2.1171875 1.66796875 C11.94154909 10.32640416 17.122445 23.38343262 17.94921875 36.25 C18.15399097 51.37164105 12.51634361 64.04124893 2.1953125 74.8984375 C-7.96204886 84.55003813 -20.22047117 88.37655173 -33.93334961 88.30078125 C-46.87497999 87.96342233 -58.65932505 82.87431645 -68.15625 74.0390625 C-79.11041341 61.92450043 -82.8584198 48.06713024 -82.17480469 32.17138672 C-81.20436492 20.11679 -74.70158232 8.71731383 -65.93359375 0.5546875 C-46.16120717 -15.34311019 -19.80706495 -16.21493622 0 0 Z M-62 3 C-62.845625 3.5775 -63.69125 4.155 -64.5625 4.75 C-72.4235779 12.0063796 -77.69662179 21.62612854 -78.34375 32.34765625 C-78.60969449 40.55676207 -78.40874601 48.39587429 -75 56 C-74.67128906 56.74121094 -74.34257813 57.48242188 -74.00390625 58.24609375 C-68.12303658 69.98748405 -58.67217705 78.40517183 -46.375 82.875 C-34.91634206 85.90658194 -21.67789634 84.99758239 -11.1640625 79.5234375 C0.10840396 72.75995762 8.85812832 63.6566408 12.66796875 50.734375 C14.48786111 35.74702619 13.77417728 22.82183163 4.8125 10.25 C-3.18634038 0.77497878 -12.96461392 -5.93985551 -25.51904297 -7.26611328 C-40.25016154 -8.22399619 -50.45542717 -6.46446961 -62 3 Z " fill="#E6E6F4" transform="translate(82,12)"/>
<path d="M0 0 C0.08107583 1.93681161 0.13922475 3.8745934 0.1875 5.8125 C0.23970703 7.43091797 0.23970703 7.43091797 0.29296875 9.08203125 C0 12 0 12 -1.49404907 13.41835022 C-3.42624848 15.44767449 -3.37932539 16.45879303 -3.38818359 19.22436523 C-3.39764008 20.07212021 -3.40709656 20.91987518 -3.4168396 21.7933197 C-3.40773056 23.16213036 -3.40773056 23.16213036 -3.3984375 24.55859375 C-3.40130768 25.49929214 -3.40417786 26.43999054 -3.40713501 27.40919495 C-3.40917665 29.39886069 -3.40363979 31.38854647 -3.39111328 33.37817383 C-3.37507903 36.42249542 -3.39094944 39.46548574 -3.41015625 42.50976562 C-3.40817348 44.44271126 -3.40432912 46.37565607 -3.3984375 48.30859375 C-3.40451019 49.21910995 -3.41058289 50.12962616 -3.4168396 51.06773376 C-3.35802955 57.10286977 -3.35802955 57.10286977 0 62 C0.29296875 64.578125 0.29296875 64.578125 0.1875 67.25 C0.16042969 68.14203125 0.13335937 69.0340625 0.10546875 69.953125 C0.05326172 70.96632812 0.05326172 70.96632812 0 72 C-3.2501967 72.56878442 -5.29822027 72.46785315 -8.07421875 70.6171875 C-16.54790324 63.38088023 -16.54790324 63.38088023 -17.29533386 57.79142761 C-17.43055072 55.02762145 -17.46817963 52.27886715 -17.46875 49.51171875 C-17.47636353 48.49455276 -17.48397705 47.47738678 -17.49182129 46.42939758 C-17.50261115 44.28018646 -17.50547993 42.13092295 -17.50097656 39.98168945 C-17.50000634 36.70889783 -17.54159867 33.43846772 -17.5859375 30.16601562 C-17.59114652 28.07292153 -17.59383266 25.97981933 -17.59375 23.88671875 C-17.61014526 22.91562668 -17.62654053 21.94453461 -17.64343262 20.9440155 C-17.57770731 14.41604878 -16.23657675 10.04272839 -12 5 C-9.6484375 3.125 -9.6484375 3.125 -7.375 2 C-6.24191406 1.4121875 -6.24191406 1.4121875 -5.0859375 0.8125 C-3 0 -3 0 0 0 Z " fill="#F8F8F9" transform="translate(48,13)"/>
<path d="M0 0 C3.57416264 0.49641148 6.69252492 1.58251068 10 3 C10.363728 9.6683467 9.97170057 16.2305863 5.67578125 21.6796875 C3.06201277 24.10822829 1.37256838 24.9858979 -2.19921875 25.12109375 C-3.12347656 25.08113281 -4.04773437 25.04117188 -5 25 C-5.08082094 23.04233719 -5.13910778 21.08373272 -5.1875 19.125 C-5.22230469 18.03445312 -5.25710937 16.94390625 -5.29296875 15.8203125 C-5.19628906 14.88960937 -5.09960938 13.95890625 -5 13 C-4.01 12.34 -3.02 11.68 -2 11 C-1.45508626 8.60691231 -1.45508626 8.60691231 -1.375 5.9375 C-1.08244275 1.08244275 -1.08244275 1.08244275 0 0 Z " fill="#F7F7F8" transform="translate(58,59)"/>
<path d="M0 0 C5.43200441 0.80266732 8.34959973 2.9980797 12 7 C14.99438711 12.21602915 15.30744405 16.15856311 15 22 C13.73160474 22.50615298 12.46016898 23.00469099 11.1875 23.5 C10.47980469 23.7784375 9.77210937 24.056875 9.04296875 24.34375 C7 25 7 25 4 25 C3.96261719 24.38511719 3.92523438 23.77023438 3.88671875 23.13671875 C3.82097656 22.32847656 3.75523438 21.52023438 3.6875 20.6875 C3.62949219 19.88699219 3.57148437 19.08648437 3.51171875 18.26171875 C3.21186933 15.92367395 3.21186933 15.92367395 1.46875 14.625 C-0.84379842 12.06643579 -0.28707793 9.66495706 -0.1875 6.3125 C-0.16042969 5.13300781 -0.13335937 3.95351563 -0.10546875 2.73828125 C-0.07066406 1.83464844 -0.03585938 0.93101563 0 0 Z " fill="#F3F3F5" transform="translate(53,13)"/>
</svg>
