<svg width="29" height="29" viewBox="0 0 29 29" fill="none" xmlns="http://www.w3.org/2000/svg">
<path d="M14.4988 0C12.8397 0 2.65229 5.82175 1.8282 7.25C1.00412 8.67825 0.999288 20.323 1.8282 21.75C2.65712 23.177 12.8422 29 14.4988 29C16.1554 29 26.3405 23.171 27.1706 21.75C27.9995 20.329 27.9995 8.66375 27.1706 7.25C26.3405 5.83625 16.1566 0 14.4988 0ZM17.9317 23.4598V23.4622C17.7045 23.4622 15.5887 21.4358 15.7567 21.2703C15.8062 21.2208 16.1143 21.1869 16.762 21.1664C16.762 19.6801 16.7958 17.2816 16.8164 16.2775C16.8188 16.1627 16.791 16.0829 16.791 15.9464H12.215C12.215 16.3487 12.1885 17.9969 12.2936 20.074C12.3069 20.3314 12.203 20.4112 11.9649 20.41C11.3849 20.4088 10.8049 20.4039 10.2249 20.4051C9.9905 20.4051 9.88899 20.3181 9.89624 20.0595C9.9482 18.1661 10.0654 15.3011 9.88779 8.01367V7.83363C9.33195 7.81429 8.9477 7.77925 8.89695 7.72971C8.7302 7.56417 10.875 5.53779 11.101 5.53779C11.3269 5.53779 13.4584 7.56417 13.2917 7.72971C13.2421 7.77925 12.8397 7.81429 12.331 7.83363V8.01246C12.1933 9.47092 12.215 12.5208 12.1812 13.9816H16.7765C16.7765 13.7243 16.7982 12.0145 16.7076 9.24375C16.7016 9.05163 16.7632 8.95133 16.9481 8.94892C17.5825 8.94408 18.2156 8.94167 18.8512 8.94529C19.0494 8.9465 19.1122 9.04317 19.1086 9.24979C18.8995 20.0849 19.0711 19.3285 19.0711 21.164C19.5786 21.1833 20.0342 21.2183 20.0837 21.2679C20.248 21.4322 18.1588 23.4598 17.9317 23.4598Z" fill="#2FC363"/>
</svg>
