<svg width="32" height="32" viewBox="0 0 32 32" fill="none" xmlns="http://www.w3.org/2000/svg">
<rect width="32" height="32" transform="matrix(-1 0 0 1 32 0)" fill="white"/>
<circle cx="16.7857" cy="17.0714" r="8.03572" stroke="#2FC363" stroke-width="3.21429"/>
<rect x="20" y="19" width="9" height="9" rx="2.57143" fill="#0F9FF0"/>
<path d="M8.10714 1.55673C8.70384 1.21222 9.43901 1.21222 10.0357 1.55673L14.2312 3.97898C14.8279 4.32349 15.1955 4.96016 15.1955 5.64918V10.4937C15.1955 11.1827 14.8279 11.8194 14.2312 12.1639L10.0357 14.5861C9.43901 14.9306 8.70385 14.9306 8.10714 14.5861L3.91168 12.1639C3.31498 11.8194 2.94739 11.1827 2.94739 10.4937V5.64918C2.94739 4.96016 3.31498 4.32349 3.91168 3.97898L8.10714 1.55673Z" fill="#F8CD54"/>
<path d="M14.001 23.4371C14.7899 24.1873 14.4709 25.5103 13.4267 25.8184L9.58217 26.953C8.53797 27.2612 7.55176 26.3234 7.80698 25.265L8.74668 21.3683C9.0019 20.3099 10.3071 19.9247 11.0961 20.6749L14.001 23.4371Z" fill="#F35F5F"/>
<path fill-rule="evenodd" clip-rule="evenodd" d="M22.5734 6.31525C22.8873 6.05115 23.3418 6.3946 23.1735 6.76867L21.3798 10.7546C21.2924 10.9488 21.379 11.1772 21.5733 11.2646L23.2143 12.0031C23.4734 12.1197 23.5218 12.467 23.3043 12.6499L17.9607 17.1463C17.6468 17.4104 17.1923 17.067 17.3606 16.6929L19.1543 12.707C19.2417 12.5127 19.1551 12.2844 18.9608 12.197L17.3198 11.4585C17.0606 11.3419 17.0123 10.9946 17.2297 10.8116L22.5734 6.31525Z" fill="#4E526B"/>
</svg>
