<svg width="32" height="32" viewBox="0 0 32 32" fill="none" xmlns="http://www.w3.org/2000/svg">
<rect width="32" height="32" transform="matrix(-1 0 0 1 32 0)" fill="white"/>
<g clip-path="url(#clip0_28_9)">
<path d="M10.9638 26.1725C10.8832 26.1725 10.8787 26.1869 10.8787 26.2893V27.1978C10.8787 27.4801 10.9116 27.7374 11.2267 27.7374C11.2707 27.7374 11.3144 27.7292 11.3556 27.7131C11.3988 27.6987 11.4613 27.6475 11.4754 27.6475C11.5135 27.6475 11.5328 27.7007 11.5225 27.7295C11.4597 27.8013 11.3825 27.8584 11.2961 27.897C11.2097 27.9356 11.1161 27.9549 11.0218 27.9534C10.6119 27.9534 10.5262 27.7204 10.5262 27.4282V26.3123C10.5262 26.181 10.521 26.1711 10.4256 26.1711H10.2922C10.2785 26.1586 10.2696 26.1415 10.267 26.1229C10.2644 26.1043 10.2683 26.0854 10.2781 26.0694C10.3878 26.038 10.4912 25.9871 10.5835 25.9191C10.6633 25.8336 10.7308 25.737 10.784 25.6322C10.8072 25.6224 10.8645 25.6224 10.8838 25.6558V25.8744C10.8838 25.9624 10.889 25.967 10.9702 25.967H11.4999C11.5249 25.9949 11.5392 26.0311 11.54 26.0689C11.5408 26.1066 11.5282 26.1434 11.5044 26.1725H10.9638Z" fill="#231815"/>
<path d="M12.736 25.2351C13.0582 24.9804 13.4661 24.855 13.9224 24.855C14.1849 24.8599 14.446 24.8961 14.7002 24.9626C14.7398 24.9763 14.7816 24.9824 14.8233 24.9804C14.8272 25.0834 14.8498 25.365 14.8846 25.6368C14.8688 25.652 14.8483 25.6612 14.8267 25.6626C14.805 25.6641 14.7835 25.6577 14.766 25.6447C14.7015 25.3407 14.5024 24.9915 13.8638 24.9915C13.1916 24.9915 12.62 25.4261 12.62 26.3523C12.62 27.2917 13.2045 27.8103 13.9256 27.8103C14.4914 27.8103 14.7421 27.4348 14.8427 27.1709C14.861 27.1603 14.8822 27.1562 14.9031 27.1594C14.9239 27.1627 14.943 27.1729 14.9574 27.1886C14.9264 27.4217 14.8124 27.7171 14.7466 27.8018C14.6941 27.8117 14.6425 27.8267 14.5926 27.8464C14.367 27.9129 14.1335 27.9476 13.8986 27.9495C13.5035 27.9495 13.1252 27.8694 12.803 27.6501C12.606 27.5146 12.4456 27.3308 12.3366 27.1156C12.2276 26.9004 12.1735 26.6607 12.1792 26.4186C12.177 26.1911 12.2261 25.9661 12.3226 25.761C12.4192 25.5558 12.5606 25.3759 12.736 25.2351Z" fill="#231815"/>
<path d="M17.501 26.9064C17.501 27.5142 17.0905 27.9514 16.4944 27.9514C15.9459 27.9514 15.5161 27.5576 15.5161 26.9497C15.5124 26.8119 15.536 26.6748 15.5856 26.5466C15.6352 26.4184 15.7097 26.3018 15.8047 26.2037C15.8997 26.1055 16.0132 26.028 16.1384 25.9757C16.2635 25.9234 16.3978 25.8975 16.533 25.8994C17.0666 25.9007 17.501 26.309 17.501 26.9064ZM16.4757 26.0464C16.1605 26.0464 15.9273 26.353 15.9273 26.8867C15.9273 27.3291 16.1206 27.8057 16.5427 27.8057C16.9648 27.8057 17.0905 27.3586 17.0905 26.9838C17.0905 26.5716 16.9287 26.0464 16.4757 26.0464Z" fill="#231815"/>
<path d="M19.8893 27.1742C19.8893 27.5576 19.8938 27.7374 20.0279 27.7374C20.0979 27.7307 20.1668 27.7146 20.2328 27.6895C20.2669 27.6987 20.2708 27.8208 20.2283 27.8444C20.0142 27.8765 19.8034 27.9286 19.5987 28C19.5697 28 19.5465 27.9856 19.5465 27.9606V27.8792C19.5502 27.8287 19.547 27.7779 19.5368 27.7282H19.5175C19.3074 27.874 19.145 27.9521 18.9162 27.9521C18.3865 27.9521 18.0333 27.5293 18.0333 27.0186C18.0333 26.3385 18.5392 25.9027 19.1881 25.9027C19.2972 25.8989 19.406 25.9136 19.5104 25.946C19.5349 25.946 19.5394 25.9171 19.5394 25.8803V25.1425C19.5394 24.8556 19.5349 24.8261 19.3905 24.7395L19.3428 24.7093C19.3316 24.6958 19.3255 24.6787 19.3255 24.661C19.3255 24.6433 19.3316 24.6263 19.3428 24.6128C19.5198 24.559 19.6922 24.4908 19.8584 24.4086C19.8681 24.4085 19.8776 24.4111 19.8859 24.4162C19.8942 24.4213 19.901 24.4287 19.9054 24.4375C19.9009 24.5839 19.8912 24.8261 19.8912 25.0401L19.8893 27.1742ZM19.5368 26.4449C19.5418 26.3773 19.5231 26.31 19.4839 26.2552C19.4374 26.1917 19.3769 26.1402 19.3073 26.1047C19.2377 26.0693 19.1609 26.0509 19.0831 26.051C18.6494 26.051 18.4245 26.435 18.4245 26.8578C18.4245 27.3002 18.6681 27.7184 19.1334 27.7184C19.2676 27.7172 19.3973 27.669 19.5007 27.5819C19.5297 27.553 19.5342 27.4801 19.5342 27.402L19.5368 26.4449Z" fill="#231815"/>
<path d="M21.0996 26.6392C20.9758 26.6392 20.9707 26.6497 20.9707 26.7705C20.9707 27.2615 21.2523 27.679 21.7627 27.679C21.9199 27.679 22.054 27.6311 22.2016 27.4414C22.2109 27.438 22.221 27.4369 22.2309 27.4381C22.2407 27.4394 22.2502 27.4429 22.2585 27.4485C22.2668 27.4541 22.2737 27.4616 22.2787 27.4704C22.2837 27.4792 22.2866 27.489 22.2873 27.4991C22.13 27.8274 21.7865 27.9514 21.5384 27.9514C21.407 27.9557 21.2765 27.9289 21.1569 27.8734C21.0373 27.8178 20.9319 27.7349 20.8489 27.6311C20.7154 27.4487 20.6449 27.2264 20.6484 26.9989C20.6484 26.4009 21.0351 25.9007 21.6067 25.9007C22.0172 25.9007 22.2847 26.1869 22.2847 26.479C22.2873 26.522 22.2807 26.565 22.2654 26.6051C22.2512 26.6346 22.1848 26.6392 21.9837 26.6392H21.0996ZM21.3954 26.4935C21.7485 26.4935 21.8536 26.4738 21.8916 26.4449C21.9064 26.435 21.9199 26.416 21.9199 26.353C21.9199 26.2164 21.8297 26.0464 21.5526 26.0464C21.2755 26.0464 21.028 26.309 21.0235 26.4685C21.0235 26.479 21.0235 26.4935 21.0564 26.4935H21.3954Z" fill="#231815"/>
<path d="M23.1231 26.4882C23.1231 26.2992 23.1231 26.2749 22.9942 26.1869L22.9517 26.158C22.9419 26.1454 22.937 26.1295 22.9379 26.1134C22.9389 26.0973 22.9456 26.0821 22.9568 26.0707C23.1227 26.003 23.2835 25.9234 23.4382 25.8324C23.4621 25.837 23.4763 25.8469 23.4763 25.8659V26.1482C23.4763 26.1725 23.4808 26.1869 23.4904 26.1922C23.658 26.051 23.8391 25.9007 24.015 25.9007C24.0418 25.8982 24.0688 25.9013 24.0944 25.9098C24.12 25.9183 24.1435 25.932 24.1637 25.9502C24.1839 25.9683 24.2002 25.9904 24.2116 26.0152C24.2231 26.04 24.2294 26.067 24.2303 26.0943C24.2314 26.1228 24.227 26.1512 24.2173 26.178C24.2075 26.2047 24.1927 26.2292 24.1737 26.2501C24.1546 26.2709 24.1317 26.2878 24.1063 26.2996C24.0808 26.3114 24.0533 26.3179 24.0253 26.3189C23.9876 26.319 23.9508 26.3068 23.9203 26.2841C23.8589 26.238 23.7857 26.2111 23.7096 26.2066C23.6753 26.2074 23.6418 26.2168 23.6119 26.2338C23.5821 26.2509 23.5567 26.2751 23.5381 26.3044C23.4904 26.3701 23.4737 26.5125 23.4737 26.6786V27.339C23.4737 27.6895 23.4834 27.7473 23.667 27.7617L23.8384 27.7762C23.8458 27.7847 23.8514 27.7946 23.855 27.8054C23.8585 27.8162 23.8598 27.8276 23.8589 27.839C23.858 27.8503 23.8549 27.8613 23.8497 27.8714C23.8445 27.8815 23.8374 27.8904 23.8288 27.8976C23.6045 27.8884 23.4666 27.8832 23.299 27.8832C23.1315 27.8832 22.9846 27.8884 22.8595 27.8976C22.8511 27.8902 22.8441 27.8812 22.8391 27.8711C22.8341 27.861 22.8311 27.85 22.8303 27.8387C22.8296 27.8274 22.831 27.816 22.8346 27.8053C22.8382 27.7945 22.8438 27.7846 22.8512 27.7762L22.942 27.7617C23.1173 27.7328 23.1231 27.6895 23.1231 27.339V26.4882Z" fill="#231815"/>
<path d="M9.89912 27.7761L9.77023 27.7617C9.56594 27.7374 9.50343 27.6646 9.36487 27.2464L8.71076 25.2928C8.63923 25.0795 8.56318 24.8556 8.50132 24.6416C8.49563 24.6273 8.48547 24.6153 8.47243 24.6075C8.45938 24.5997 8.44417 24.5964 8.42914 24.5983C8.36607 24.683 8.28005 24.7472 8.18167 24.7828C8.19585 24.8602 8.16685 24.9528 8.10047 25.1281L7.61327 26.4409C7.4135 26.9851 7.27945 27.3015 7.19374 27.5247C7.12929 27.7 7.02167 27.7538 6.90761 27.763L6.75036 27.7775C6.73757 27.7955 6.73146 27.8176 6.73311 27.8399C6.73476 27.8621 6.74407 27.883 6.75938 27.8989C6.88827 27.895 7.0597 27.8845 7.21758 27.8845C7.44185 27.8897 7.58943 27.8897 7.71381 27.8989C7.72321 27.8923 7.73106 27.8836 7.73677 27.8735C7.74248 27.8634 7.74593 27.8521 7.74685 27.8405C7.74778 27.8289 7.74616 27.8172 7.74212 27.8063C7.73807 27.7954 7.73171 27.7856 7.72347 27.7775L7.56558 27.763C7.45087 27.7538 7.42767 27.7249 7.42767 27.6659C7.44776 27.528 7.48277 27.3928 7.53207 27.2628L7.69963 26.7521C7.73314 26.651 7.76407 26.6359 7.88072 26.6359H8.51678L8.45814 26.439H7.95225C7.81821 26.439 7.81434 26.4344 7.85172 26.3228L8.15332 25.4773C8.20616 25.3316 8.25449 25.2147 8.26803 25.1911H8.2777C8.31925 25.2911 8.35581 25.3932 8.38725 25.497L8.59992 26.1482L8.78423 26.716C8.78874 26.7278 8.79325 26.7409 8.79841 26.756L9.00656 27.4197C9.03948 27.5023 9.06116 27.5891 9.07101 27.6777C9.07101 27.7269 9.00656 27.7558 8.9041 27.765L8.76618 27.7794C8.75826 27.7877 8.75217 27.7976 8.74832 27.8084C8.74446 27.8193 8.74295 27.8309 8.74386 27.8424C8.74478 27.8539 8.74811 27.8651 8.75363 27.8752C8.75914 27.8853 8.76672 27.894 8.77585 27.9009C8.91376 27.8969 9.09807 27.8864 9.32427 27.8864C9.53887 27.8864 9.70578 27.8917 9.90427 27.9009C9.91818 27.8829 9.92531 27.8604 9.92436 27.8375C9.92342 27.8147 9.91446 27.7929 9.89912 27.7761Z" fill="#231815"/>
<path d="M23.4911 14.9118C23.5484 14.8199 24.2399 14.4523 24.2328 14.4451C24.0144 14.2751 23.5375 14.384 23.1489 14.3466C23.0632 14.3387 22.7745 14.2416 22.6791 14.2357C22.536 14.2278 22.5373 14.367 22.5399 14.4497C22.5399 14.4576 22.4986 15.2499 22.4986 15.5656C22.498 15.5974 22.5039 15.6289 22.516 15.6582C22.5218 15.6707 22.7738 15.4284 22.8557 15.3523C22.7506 15.24 22.7912 14.8088 22.7861 14.6263C22.7861 14.556 22.8164 14.5153 22.8544 14.556C23.0185 14.7483 23.244 14.8754 23.4911 14.9151" fill="#231815"/>
<path d="M22.7081 16.0449C22.819 16.1269 22.8673 16.1013 22.9478 16.1433C23.0141 16.1885 23.0694 16.2484 23.1096 16.3186C23.1409 16.3772 23.1627 16.4406 23.174 16.5063C23.18 16.5347 23.192 16.5614 23.2092 16.5845C23.2264 16.6076 23.2484 16.6265 23.2737 16.6399C23.2989 16.6534 23.3268 16.6609 23.3552 16.6621C23.3837 16.6633 23.412 16.6581 23.4383 16.6468C23.4898 16.6304 23.696 16.0199 23.5111 15.9372C23.3822 15.8775 23.2907 15.9904 23.2088 15.9799C23.1586 15.9733 23.1831 15.8276 23.1837 15.8223C23.1827 15.7978 23.1738 15.7742 23.1585 15.7553C23.1431 15.7363 23.1221 15.723 23.0986 15.7173C23.0698 15.7197 23.0412 15.724 23.0129 15.7304C23.0007 15.7304 22.7068 16.0449 22.7062 16.0449" fill="#231815"/>
<path d="M25.9612 18.9516C25.9683 19.3522 26.0143 19.751 26.0985 20.1424C26.1075 20.1619 26.109 20.1841 26.1026 20.2046C26.0963 20.2252 26.0826 20.2425 26.0644 20.2533C25.7138 20.5592 25.3516 20.9327 25.0332 21.0936C24.9327 21.1441 24.827 21.1638 24.7684 21.2347C24.7181 21.2951 24.7207 21.3995 24.7226 21.4789C24.7283 21.5517 24.7191 21.6249 24.6954 21.6939C24.6718 21.7628 24.6343 21.826 24.5854 21.8793C24.5717 21.8908 24.5596 21.904 24.5493 21.9187C24.4848 22.0454 24.4938 22.3782 24.5963 22.4353C24.6504 22.4662 24.8947 22.2456 24.9875 22.0723C25.0049 22.0402 24.9495 21.899 24.9269 21.8216C24.9228 21.8025 24.9225 21.7827 24.9261 21.7635C24.9297 21.7443 24.9371 21.7261 24.9478 21.7099C24.9586 21.6937 24.9724 21.6799 24.9885 21.6693C25.0047 21.6587 25.0227 21.6515 25.0416 21.6483C25.074 21.6442 25.1042 21.6297 25.128 21.6069C25.1673 21.5642 25.1583 21.4795 25.1364 21.4067C25.1233 21.3774 25.1212 21.3442 25.1306 21.3135C25.1357 21.2925 25.4889 21.0575 25.6074 20.9662C25.8652 20.7693 26.4575 20.6032 26.6489 20.3518C26.7088 20.2737 26.7223 20.1837 26.6431 20.1128C26.5638 20.0419 26.0225 19.2962 25.9638 18.9516" fill="#231815"/>
<path d="M30 18.4494C30.0077 18.4527 29.5489 17.9407 28.8149 18.3116C28.811 18.3116 28.4282 18.0155 28.309 17.9078C28.2787 17.8809 28.3889 17.5488 28.0467 17.2159C27.7676 16.9448 26.8912 16.4906 26.5239 15.7862C26.3015 15.3569 26.6702 14.4379 26.6154 13.6856C26.607 13.5707 26.444 13.4138 26.4175 13.3226C26.2474 12.7239 26.2016 12.4692 26.1082 12.2191C26.0815 12.3088 26.0223 12.3849 25.9426 12.4318C25.9961 12.3438 26.0715 12.1692 26.0115 12.0084C25.9961 11.9813 25.9791 11.9552 25.9606 11.9303C25.9686 11.9996 25.9611 12.0699 25.9388 12.1359C25.9165 12.2019 25.8799 12.262 25.8317 12.3117C25.8549 12.2572 25.9252 11.9329 25.8781 11.8357C25.8582 11.8154 25.8362 11.7957 25.8137 11.7767C25.7911 11.7576 25.7834 11.753 25.7686 11.7419C25.7886 11.8833 25.7715 12.0275 25.719 12.16C25.7329 12.0001 25.7187 11.8389 25.6771 11.6841C25.5223 11.6042 25.3535 11.5561 25.1804 11.5427C25.0074 11.5293 24.8334 11.5508 24.6685 11.606C24.5855 11.64 24.5105 11.6916 24.4485 11.7574C24.3866 11.8231 24.339 11.9015 24.3089 11.9874L22.616 11.6841L22.6011 11.6913L22.6095 11.7031L24.2329 12.3714C24.2122 12.6484 24.2387 12.934 24.2013 13.123C24.1639 13.3121 24.0724 13.3561 24.0724 13.4224C24.0724 13.4992 24.151 13.6666 24.3302 13.5189C24.3695 13.4867 24.4017 13.4197 24.4758 13.4348C24.5957 13.4598 24.5022 13.6226 24.6008 13.6318C24.7529 13.6429 24.6801 13.3764 24.6943 13.2963C24.7085 13.2162 24.8096 12.8368 24.9946 12.8637C25.1622 12.8874 25.1344 13.0003 25.1357 13.1263C25.1515 13.292 25.1313 13.4592 25.0764 13.616C24.9927 13.6889 24.432 14.2639 24.2606 14.5403C24.2503 14.5574 23.5826 14.9059 23.3223 15.0943C22.4368 15.7344 22.0173 16.4473 22.0469 16.6744C22.0469 16.6914 22.2106 17.0151 22.3111 17.2107C22.3266 17.319 22.2815 17.7116 22.3962 17.7358C22.5322 17.7641 22.8699 17.2652 22.7674 17.1326C22.692 17.0348 22.5953 17.0801 22.5618 17.0243C22.5527 17.0118 22.5453 16.9981 22.5399 16.9836C22.5251 16.9501 22.6102 16.8523 22.5824 16.7643C22.5302 16.6074 22.4207 16.6737 22.4014 16.6022C22.385 16.5447 22.3753 16.4854 22.3724 16.4256C22.3702 16.375 22.3826 16.3248 22.4078 16.2812C22.5824 16.0252 23.0368 15.5092 23.4228 15.4278C23.4479 15.4225 24.0389 16.079 24.4256 16.1368C24.441 16.1368 24.8876 17.3919 25.7376 17.4726C25.6358 18.154 26.335 19.9205 26.9447 20.2638C27.0156 20.3039 27.0091 20.4476 26.9776 20.4903C26.946 20.533 26.1398 21.301 25.7873 21.6811C25.7447 21.727 25.7538 22.0034 25.7486 22.0401C25.7351 22.1426 25.6062 22.6067 25.6919 22.673C25.806 22.7616 26.2584 22.4235 26.1108 22.2423C26.0831 22.2075 25.9342 22.1432 25.9961 22.0349C26.0283 21.9771 26.2274 22.0086 26.2906 21.9036C26.3305 21.838 26.2964 21.7067 26.2951 21.641C26.2938 21.5754 27.1541 20.7621 27.3752 20.5533C27.3964 20.5417 27.4145 20.525 27.4278 20.5046C27.4412 20.4842 27.4494 20.4608 27.4519 20.4365C27.4513 20.3798 27.447 20.3232 27.439 20.2671C27.428 20.1844 26.8519 19.4695 27.3352 19.1242C27.5008 19.0067 28.097 18.6299 28.2452 18.175C28.3698 18.2592 28.4831 18.3596 28.5822 18.4737C28.309 18.687 28.1079 19.1058 28.0712 19.1853C28.0647 19.1997 28.3328 18.9772 28.568 18.9109C28.5764 18.9109 27.8205 19.9185 27.8592 20.3872C27.9617 20.1081 28.1354 19.8618 28.3625 19.6737C28.3786 19.6605 27.6774 21.1146 28.5687 22.0868C28.5687 22.0868 28.271 21.0949 28.4282 20.7923C28.4321 20.785 28.849 21.6968 29.518 21.6673C29.5283 21.6673 28.9721 21.1822 28.8439 20.426C28.9767 20.5878 29.1551 20.7042 29.3549 20.7594C29.382 20.7653 28.8026 20.0439 29.1564 19.5082C29.1725 19.9349 29.4484 20.2054 29.5431 20.2356C29.5573 20.2395 29.3336 19.6966 29.5006 19.3218C29.5843 19.417 29.6739 19.5844 29.9059 19.5811C29.7118 19.2508 29.611 18.8724 29.6146 18.4875C29.6172 18.431 29.7886 18.3608 30 18.4494Z" fill="#231815"/>
<path d="M24.6434 11.4511H24.6472H24.6517C24.7965 11.4047 24.9472 11.3808 25.099 11.3802C25.3213 11.3782 25.5406 11.4321 25.7376 11.5371L25.7763 11.5581L25.8137 11.583L25.8401 11.602C25.8575 11.6139 25.8736 11.627 25.8904 11.6395C25.9071 11.6519 25.9393 11.6834 25.9625 11.7051L25.9767 11.7202L26.0212 11.7688L26.0534 11.8115C26.0736 11.8393 26.0924 11.8682 26.1095 11.8981L26.1166 11.9093L26.1591 11.992C26.2448 12.1718 26.3028 12.395 26.3827 12.7036C26.4723 12.2959 26.5896 11.8902 26.4053 11.3907C26.308 11.1281 25.8336 10.3463 24.6653 10.5242C23.8726 10.645 23.437 11.4281 23.437 11.4281L24.1929 11.7563C24.1929 11.7563 24.4726 11.5233 24.6434 11.4511Z" fill="#231815"/>
<path d="M7.50888 14.9118C7.45152 14.8199 6.75939 14.4523 6.76712 14.4451C6.98623 14.2751 7.46248 14.384 7.85108 14.3466C7.93615 14.3387 8.2255 14.2416 8.32152 14.2357C8.46395 14.2278 8.46266 14.367 8.46072 14.4497C8.46072 14.4576 8.50197 15.2499 8.50197 15.5656C8.50246 15.5974 8.49631 15.629 8.48392 15.6582C8.47812 15.6707 8.22615 15.4284 8.1443 15.3523C8.24935 15.24 8.20875 14.8088 8.2139 14.6263C8.2139 14.556 8.18361 14.5153 8.14559 14.556C7.98153 14.7484 7.75603 14.8756 7.50888 14.9151" fill="#231815"/>
<path d="M8.29125 16.0449C8.18105 16.1269 8.13207 16.1013 8.05087 16.1433C7.98509 16.1889 7.93007 16.2487 7.88976 16.3186C7.85812 16.3771 7.83633 16.4405 7.82531 16.5063C7.81941 16.5348 7.80739 16.5616 7.79012 16.5847C7.77286 16.6079 7.75077 16.6268 7.72545 16.6403C7.70012 16.6537 7.67219 16.6613 7.64367 16.6624C7.61514 16.6635 7.58672 16.6582 7.56045 16.6468C7.50825 16.6304 7.30654 16.0199 7.48827 15.9372C7.61716 15.8775 7.70738 15.9904 7.78987 15.9799C7.84078 15.9733 7.81565 15.8276 7.81565 15.8223C7.81653 15.7978 7.82526 15.7743 7.84051 15.7553C7.85575 15.7364 7.87667 15.723 7.90007 15.7173C7.9289 15.7197 7.95753 15.7241 7.98578 15.7304C7.99802 15.7304 8.29189 16.0449 8.29254 16.0449" fill="#231815"/>
<path d="M5.03871 18.9516C5.03145 19.3522 4.98526 19.7511 4.9008 20.1424C4.89198 20.1619 4.89059 20.184 4.8969 20.2045C4.90321 20.225 4.91678 20.2424 4.93496 20.2533C5.28554 20.5592 5.64771 20.9327 5.96607 21.0936C6.0666 21.1441 6.17165 21.1638 6.23029 21.2347C6.28056 21.2951 6.27863 21.3995 6.27605 21.4789C6.27078 21.5517 6.2803 21.6249 6.30403 21.6937C6.32776 21.7626 6.36518 21.8258 6.41396 21.8793C6.42725 21.891 6.43915 21.9042 6.4494 21.9187C6.51385 22.0454 6.50547 22.3782 6.40171 22.4353C6.34823 22.4662 6.10398 22.2456 6.01182 22.0723C5.99378 22.0402 6.0492 21.899 6.0724 21.8216C6.07646 21.8028 6.07683 21.7834 6.07347 21.7645C6.07012 21.7456 6.06311 21.7276 6.05286 21.7114C6.04261 21.6953 6.02932 21.6814 6.01375 21.6706C5.99819 21.6597 5.98067 21.6521 5.9622 21.6483C5.92973 21.6445 5.89937 21.63 5.87585 21.6069C5.83589 21.5642 5.84491 21.4795 5.86618 21.4067C5.87894 21.3778 5.881 21.3451 5.87198 21.3148C5.86618 21.2938 5.51303 21.0588 5.39445 20.9675C5.13667 20.7706 4.54442 20.6045 4.35302 20.3531C4.29309 20.275 4.27891 20.185 4.35882 20.1141C4.43874 20.0432 4.97942 19.2962 5.03871 18.9516Z" fill="#231815"/>
<path d="M0.999991 18.4494C0.991613 18.4527 1.4511 17.9407 2.18448 18.3116C2.18835 18.3116 2.57115 18.0155 2.69037 17.9078C2.7213 17.8809 2.6111 17.5488 2.95266 17.2159C3.23235 16.9448 4.10815 16.4906 4.47483 15.7862C4.69781 15.3569 4.32984 14.4379 4.38332 13.6856C4.39235 13.5707 4.55604 13.4138 4.58181 13.3226C4.75195 12.7239 4.7977 12.4692 4.89115 12.2191C4.9181 12.3102 4.9786 12.3871 5.05999 12.4338C5.0065 12.3458 4.9311 12.1712 4.99104 12.0103C5.00621 11.9833 5.023 11.9572 5.0413 11.9322C5.03289 12.0016 5.04013 12.072 5.06247 12.1381C5.0848 12.2042 5.12164 12.2642 5.17019 12.3136C5.14828 12.2591 5.07739 11.9349 5.12444 11.8377C5.14487 11.8169 5.16639 11.7971 5.18888 11.7786C5.20306 11.7668 5.21788 11.755 5.23399 11.7438C5.21356 11.8852 5.23047 12.0295 5.28297 12.162C5.26936 12.0021 5.28354 11.841 5.32486 11.6861C5.47967 11.6061 5.64844 11.5581 5.8215 11.5447C5.99456 11.5313 6.16852 11.5528 6.33341 11.6079C6.41635 11.6421 6.49127 11.6938 6.55324 11.7595C6.61521 11.8252 6.66284 11.9035 6.69301 11.9893L8.38597 11.6861L8.40079 11.6933L8.39241 11.7051L6.76519 12.3734C6.78646 12.6504 6.76003 12.9359 6.79677 13.125C6.8335 13.314 6.92566 13.358 6.92566 13.4243C6.92566 13.5011 6.84703 13.6685 6.66788 13.5208C6.62857 13.4887 6.59635 13.4217 6.52224 13.4368C6.40237 13.4617 6.49646 13.6245 6.39721 13.6337C6.24512 13.6449 6.31859 13.3784 6.30441 13.2983C6.29023 13.2182 6.18841 12.8388 6.00346 12.8657C5.83655 12.8893 5.86361 13.0022 5.86168 13.1283C5.84696 13.294 5.8674 13.461 5.92161 13.618C6.00539 13.6908 6.56606 14.2659 6.73748 14.5423C6.74843 14.5593 7.41543 14.9079 7.67579 15.0963C8.5619 15.7363 8.98079 16.4492 8.95179 16.6763C8.95179 16.6934 8.78746 17.017 8.68692 17.2127C8.67081 17.321 8.71657 17.7135 8.6025 17.7378C8.46717 17.766 8.12883 17.2671 8.23066 17.1345C8.30606 17.0367 8.40272 17.082 8.43624 17.0262C8.44509 17.0136 8.45244 16.9999 8.45815 16.9855C8.47361 16.9521 8.3879 16.8542 8.41626 16.7663C8.46781 16.6094 8.57737 16.6757 8.5967 16.6041C8.61292 16.5466 8.62286 16.4873 8.62635 16.4276C8.6281 16.377 8.61581 16.3269 8.5909 16.2831C8.41561 16.0271 7.96128 15.5112 7.57526 15.4298C7.54948 15.4245 6.95981 16.081 6.5725 16.1387C6.55639 16.1387 6.11108 17.3938 5.26041 17.4746C5.36224 18.156 4.66366 19.9225 4.05272 20.2658C3.98248 20.3058 3.99215 20.4496 4.0205 20.4923C4.04886 20.5349 4.85828 21.303 5.21079 21.683C5.25397 21.729 5.24495 22.0054 5.24946 22.0421C5.26299 22.1445 5.39188 22.6086 5.30617 22.6749C5.1921 22.7636 4.7397 22.4255 4.88728 22.2443C4.91563 22.2095 5.06386 22.1452 5.00264 22.0369C4.97041 21.9791 4.76999 22.0106 4.70748 21.9056C4.66817 21.8399 4.70168 21.7086 4.70361 21.643C4.70555 21.5774 3.84199 20.7627 3.62095 20.554C3.59956 20.5425 3.58129 20.5259 3.56779 20.5055C3.55429 20.4851 3.54598 20.4616 3.54361 20.4371C3.54436 20.3804 3.54888 20.3238 3.55715 20.2678C3.5681 20.185 4.14423 19.4702 3.66026 19.1249C3.49592 19.0074 2.89917 18.6306 2.75095 18.1757C2.62758 18.26 2.51557 18.3604 2.41777 18.4743C2.69037 18.6877 2.89208 19.1065 2.92817 19.1859C2.93461 19.2004 2.66717 18.9778 2.4313 18.9115C2.42357 18.9115 3.1795 19.9192 3.14019 20.3879C3.03772 20.1085 2.86399 19.8619 2.63688 19.6737C2.62077 19.6605 3.32192 21.1146 2.4313 22.0868C2.4313 22.0868 2.72839 21.0949 2.57115 20.7923C2.56728 20.785 2.15032 21.6968 1.48139 21.6673C1.47108 21.6673 2.02723 21.1822 2.15483 20.426C2.02191 20.5867 1.84375 20.7019 1.64444 20.7561C1.61737 20.7621 2.19608 20.0406 1.84292 19.505C1.82746 19.9317 1.55164 20.2021 1.45626 20.2323C1.44208 20.2362 1.66506 19.6934 1.49879 19.3185C1.41501 19.4137 1.32544 19.5811 1.09408 19.5778C1.28707 19.2471 1.38758 18.8689 1.38472 18.4842C1.38279 18.431 1.21008 18.3608 0.999991 18.4494Z" fill="#231815"/>
<path d="M6.35663 11.4511H6.35211H6.3476C6.20164 11.4042 6.04952 11.3803 5.89649 11.3802C5.67441 11.3783 5.4553 11.4322 5.25849 11.5371L5.21983 11.5581L5.18309 11.583L5.15667 11.602C5.13927 11.6139 5.12187 11.627 5.10705 11.6395C5.08127 11.6611 5.05614 11.6834 5.03423 11.7051L5.0194 11.7202L4.97494 11.7688L4.94336 11.8115C4.92269 11.8391 4.90375 11.868 4.88665 11.8981L4.8802 11.9093L4.83703 11.992C4.75131 12.1718 4.69331 12.395 4.6134 12.7036C4.52383 12.2959 4.40654 11.8902 4.59085 11.3907C4.6888 11.1281 5.16247 10.3463 6.33085 10.5242C7.12351 10.645 7.56045 11.4281 7.56045 11.4281L6.80451 11.7563C6.80451 11.7563 6.5274 11.5233 6.35663 11.4511Z" fill="#231815"/>
<path d="M15.2583 16.7092C15.2718 16.7182 15.2875 16.723 15.3036 16.7231C15.3198 16.7233 15.3356 16.7186 15.3492 16.7098C15.3628 16.701 15.3736 16.6884 15.3803 16.6735C15.3871 16.6586 15.3895 16.642 15.3872 16.6258V16.1663C15.3873 16.1473 15.3837 16.1285 15.3767 16.111C15.3696 16.0934 15.3592 16.0774 15.3461 16.064C15.333 16.0505 15.3174 16.0398 15.3003 16.0325C15.2831 16.0251 15.2647 16.0213 15.2461 16.0212H14.61C14.532 16.0212 14.5101 16.0704 14.561 16.1315L15.2583 16.7092Z" fill="#231815"/>
<path d="M14.2839 16.1433C14.2584 16.1078 14.2254 16.0786 14.1874 16.0577C14.1494 16.0368 14.1073 16.0248 14.0642 16.0225H13.5183C13.4404 16.0225 13.43 16.0573 13.4964 16.1L14.5836 16.637C14.6577 16.6639 14.6732 16.637 14.6203 16.5812L14.2839 16.1433Z" fill="#231815"/>
<path d="M15.3866 14.8495C15.3866 14.8113 15.3717 14.7746 15.3453 14.7476C15.3188 14.7205 15.2829 14.7052 15.2454 14.7051H14.1157C14.0987 14.7037 14.0816 14.7067 14.066 14.7138C14.0504 14.7209 14.0368 14.7319 14.0264 14.7457C14.016 14.7596 14.0092 14.7758 14.0066 14.793C14.0039 14.8102 14.0056 14.8278 14.0113 14.8442C14.0113 14.8442 14.1821 15.4724 14.34 15.7875C14.34 15.7875 14.4044 15.7875 14.4843 15.7875H15.2454C15.2829 15.7874 15.3188 15.7721 15.3453 15.745C15.3717 15.7179 15.3866 15.6813 15.3866 15.6431V14.8495Z" fill="#231815"/>
<path d="M15.3866 9.96619C15.3887 9.94993 15.3863 9.93339 15.3796 9.91849C15.3728 9.90359 15.3621 9.89093 15.3486 9.882C15.3351 9.87306 15.3194 9.86821 15.3033 9.868C15.2872 9.8678 15.2714 9.87225 15.2577 9.88085L14.59 10.4178C14.5391 10.4769 14.5604 10.5255 14.639 10.5255H15.2454C15.2829 10.5255 15.3188 10.5103 15.3452 10.4834C15.3717 10.4564 15.3866 10.4198 15.3866 10.3817V9.96619Z" fill="#231815"/>
<path d="M12.0986 15.7232C12.1317 15.755 12.1687 15.7821 12.2088 15.8039C12.2552 15.7926 12.303 15.7888 12.3506 15.7928H12.6644C12.743 15.7928 12.7675 15.7409 12.7205 15.6779L12.1953 14.8331C12.1737 14.796 12.1434 14.765 12.1072 14.7426C12.071 14.7203 12.03 14.7074 11.9878 14.705H11.2789C11.2002 14.705 11.1764 14.7562 11.2247 14.8186L12.0986 15.7232Z" fill="#231815"/>
<path d="M15.3866 10.897C15.3866 10.8588 15.3717 10.8222 15.3453 10.7951C15.3188 10.7681 15.2829 10.7528 15.2454 10.7526H14.5076C14.4296 10.7526 14.3574 10.7677 14.3484 10.7867L14.3394 10.8038C14.1886 11.1077 14.0223 11.7012 14.0223 11.7012C14.0166 11.7174 14.0149 11.7349 14.0175 11.7519C14.02 11.769 14.0267 11.7851 14.037 11.7989C14.0472 11.8126 14.0607 11.8236 14.0761 11.8307C14.0916 11.8378 14.1085 11.8409 14.1254 11.8397H15.2454C15.264 11.8397 15.2824 11.8359 15.2996 11.8287C15.3168 11.8214 15.3324 11.8107 15.3455 11.7973C15.3586 11.7839 15.369 11.768 15.376 11.7505C15.3831 11.7329 15.3867 11.7142 15.3866 11.6952V10.897Z" fill="#231815"/>
<path d="M15.3866 12.2145C15.3866 12.1763 15.3717 12.1397 15.3453 12.1126C15.3188 12.0855 15.2829 12.0703 15.2454 12.0701H14.0822C14.043 12.0711 14.0054 12.086 13.9759 12.1123C13.9464 12.1385 13.9267 12.1744 13.9204 12.2138L13.8425 13.0134C13.8412 13.032 13.8438 13.0506 13.8499 13.0681C13.8561 13.0857 13.8657 13.1017 13.8782 13.1153C13.8908 13.1288 13.9059 13.1396 13.9227 13.1469C13.9395 13.1542 13.9576 13.1579 13.9759 13.1578H15.2486C15.2861 13.1576 15.322 13.1423 15.3485 13.1153C15.3749 13.0882 15.3898 13.0516 15.3898 13.0134L15.3866 12.2145Z" fill="#231815"/>
<path d="M15.3866 13.532C15.3866 13.4938 15.3717 13.4572 15.3453 13.4301C15.3188 13.403 15.2829 13.3877 15.2454 13.3876H13.972C13.9537 13.3874 13.9355 13.3911 13.9187 13.3985C13.9018 13.4058 13.8866 13.4165 13.874 13.4301C13.8613 13.4436 13.8516 13.4596 13.8453 13.4771C13.839 13.4947 13.8363 13.5133 13.8373 13.532L13.9101 14.3315C13.9163 14.3707 13.9355 14.4064 13.9647 14.4326C13.9939 14.4589 14.0311 14.474 14.07 14.4753H15.2454C15.2829 14.4751 15.3188 14.4598 15.3453 14.4328C15.3717 14.4057 15.3866 14.3691 15.3866 14.3309V13.532Z" fill="#231815"/>
<path d="M13.1394 16.1144C13.0665 16.0593 12.9793 16.0273 12.8887 16.0225H12.6767C12.598 16.0225 12.5922 16.0507 12.6618 16.0882L13.5602 16.4728C13.6337 16.4991 13.6408 16.4853 13.575 16.4426L13.1394 16.1144Z" fill="#231815"/>
<path d="M13.9495 15.7928C13.9654 15.7943 13.9813 15.7914 13.9958 15.7846C14.0103 15.7777 14.0227 15.767 14.0318 15.7537C14.0409 15.7404 14.0464 15.7248 14.0476 15.7086C14.0489 15.6924 14.046 15.6761 14.039 15.6615L13.7813 14.8482C13.7696 14.8089 13.7462 14.7743 13.7143 14.7492C13.6824 14.7242 13.6437 14.7099 13.6034 14.7083H12.5169C12.4382 14.7083 12.4067 14.7648 12.4447 14.8344L13.0247 15.6877C13.0864 15.7534 13.1702 15.7928 13.2593 15.798L13.9495 15.7928Z" fill="#231815"/>
<path d="M13.6878 12.2138C13.6908 12.1958 13.6898 12.1774 13.6849 12.1599C13.68 12.1423 13.6714 12.1261 13.6596 12.1123C13.6479 12.0986 13.6332 12.0877 13.6168 12.0803C13.6004 12.073 13.5826 12.0695 13.5647 12.0701H12.4427C12.4023 12.0718 12.3633 12.0861 12.3309 12.1109C12.2986 12.1358 12.2744 12.1701 12.2616 12.2092L12.1025 13.014C12.0998 13.0321 12.1011 13.0505 12.1062 13.068C12.1113 13.0855 12.12 13.1017 12.1319 13.1153C12.1437 13.129 12.1584 13.1399 12.1748 13.1473C12.1912 13.1546 12.2089 13.1582 12.2268 13.1578H13.4629C13.5011 13.1572 13.5378 13.1421 13.5656 13.1154C13.5934 13.0886 13.6103 13.0522 13.613 13.0134L13.6878 12.2138Z" fill="#231815"/>
<path d="M13.3089 10.7526C13.2199 10.7579 13.1359 10.7965 13.073 10.8609L12.4659 11.7143C12.4266 11.7839 12.4582 11.839 12.5362 11.839H13.6092C13.6497 11.8379 13.6889 11.8239 13.7211 11.7989C13.7534 11.774 13.7771 11.7393 13.789 11.6998L14.0584 10.8859C14.0656 10.8713 14.0689 10.8551 14.0679 10.8389C14.0669 10.8226 14.0616 10.8069 14.0525 10.7935C14.0435 10.78 14.0311 10.7693 14.0166 10.7625C14.002 10.7556 13.986 10.7529 13.9701 10.7546L13.3089 10.7526Z" fill="#231815"/>
<path d="M10.958 14.3401C10.9745 14.3788 11.0015 14.412 11.0356 14.4359C11.0698 14.4598 11.1099 14.4734 11.1513 14.4753H11.9034C11.9205 14.4765 11.9377 14.4734 11.9533 14.4662C11.969 14.4591 11.9827 14.4481 11.9933 14.4343C12.0038 14.4205 12.0109 14.4043 12.0139 14.3871C12.0169 14.3698 12.0156 14.3521 12.0103 14.3355L11.8724 13.532C11.8679 13.4928 11.8497 13.4566 11.821 13.43C11.7923 13.4035 11.7552 13.3884 11.7165 13.3876H10.8703C10.8525 13.3868 10.8348 13.3902 10.8185 13.3974C10.8022 13.4047 10.7877 13.4156 10.7762 13.4294C10.7646 13.4432 10.7563 13.4595 10.7518 13.477C10.7474 13.4946 10.7469 13.5129 10.7504 13.5307L10.958 14.3401Z" fill="#231815"/>
<path d="M12.2462 14.3355C12.2584 14.3748 12.2823 14.4092 12.3144 14.4343C12.3466 14.4593 12.3855 14.4736 12.426 14.4753H13.5576C13.5755 14.4758 13.5934 14.4723 13.6098 14.465C13.6262 14.4577 13.6409 14.4468 13.6527 14.4331C13.6645 14.4193 13.6732 14.4031 13.6782 14.3856C13.6831 14.368 13.6842 14.3496 13.6814 14.3315L13.6118 13.532C13.6095 13.4932 13.5928 13.4567 13.5652 13.4299C13.5376 13.4031 13.501 13.388 13.4629 13.3876H12.2256C12.2074 13.3868 12.1892 13.3902 12.1724 13.3973C12.1557 13.4045 12.1406 13.4152 12.1283 13.4289C12.116 13.4426 12.1068 13.4589 12.1014 13.4766C12.0959 13.4943 12.0943 13.5129 12.0967 13.5313L12.2462 14.3355Z" fill="#231815"/>
<path d="M10.7549 13.0154C10.7513 13.0329 10.7516 13.0511 10.7559 13.0686C10.7602 13.086 10.7684 13.1022 10.7798 13.1159C10.7911 13.1296 10.8054 13.1406 10.8216 13.1478C10.8377 13.1551 10.8552 13.1585 10.8729 13.1578H11.7177C11.7566 13.1568 11.7938 13.1416 11.8228 13.1152C11.8517 13.0887 11.8704 13.0526 11.8756 13.0134L12.0238 12.2099C12.0294 12.1934 12.0309 12.1758 12.0281 12.1586C12.0254 12.1414 12.0185 12.1251 12.0081 12.1113C11.9977 12.0975 11.9841 12.0865 11.9685 12.0793C11.953 12.0721 11.9359 12.0689 11.9188 12.0701H11.1745C11.1337 12.0724 11.0942 12.0858 11.0602 12.1089C11.0262 12.1319 10.9989 12.1639 10.9811 12.2014L10.7549 13.0154Z" fill="#231815"/>
<path d="M14.619 10.0102C14.6732 9.95305 14.6571 9.92745 14.5836 9.95436L13.557 10.4474C13.4926 10.4887 13.4996 10.5222 13.5776 10.5222H14.0932C14.1364 10.5195 14.1785 10.5075 14.2169 10.4871C14.2552 10.4666 14.2888 10.4381 14.3155 10.4034L14.619 10.0102Z" fill="#231815"/>
<path d="M11.2544 11.7307C11.2054 11.7917 11.228 11.8416 11.3066 11.8416H12.0065C12.0488 11.8392 12.0899 11.8265 12.1264 11.8044C12.1629 11.7824 12.1936 11.7517 12.2159 11.7149L12.7605 10.8681C12.8088 10.8025 12.7849 10.7546 12.7063 10.7546H12.3841C12.2931 10.7591 12.2055 10.7908 12.1321 10.8458L11.2544 11.7307Z" fill="#231815"/>
<path d="M12.9396 10.5222C13.0303 10.5174 13.1178 10.4862 13.1916 10.4323L13.5744 10.1513C13.6388 10.108 13.6337 10.0942 13.5602 10.1211L12.745 10.4605C12.6741 10.4953 12.6805 10.5222 12.7585 10.5222H12.9396Z" fill="#231815"/>
<path d="M18.7725 13.1578C18.7904 13.1583 18.8082 13.1548 18.8247 13.1475C18.8412 13.1402 18.8558 13.1293 18.8677 13.1156C18.8796 13.1019 18.8883 13.0857 18.8934 13.0681C18.8984 13.0506 18.8996 13.0321 18.8968 13.014L18.7377 12.2092C18.725 12.17 18.7008 12.1357 18.6685 12.1108C18.6361 12.086 18.5971 12.0717 18.5566 12.0701H17.4333C17.4155 12.0696 17.3977 12.0732 17.3814 12.0806C17.3651 12.0879 17.3505 12.0988 17.3388 12.1126C17.3271 12.1263 17.3186 12.1425 17.3137 12.16C17.3089 12.1775 17.3079 12.1959 17.3109 12.2138L17.3863 13.0134C17.3889 13.0523 17.4058 13.0888 17.4336 13.1155C17.4614 13.1423 17.4981 13.1574 17.5364 13.1578H18.7725Z" fill="#231815"/>
<path d="M15.6128 15.6484C15.6129 15.6866 15.6279 15.7232 15.6545 15.7503C15.681 15.7773 15.717 15.7926 15.7545 15.7928H16.5156C16.5943 15.7928 16.6587 15.7928 16.6593 15.7928C16.8159 15.4764 16.9874 14.8495 16.9874 14.8495C16.9929 14.8331 16.9944 14.8155 16.9917 14.7984C16.989 14.7813 16.9822 14.7651 16.9719 14.7513C16.9615 14.7375 16.948 14.7266 16.9325 14.7194C16.917 14.7123 16.9 14.7091 16.883 14.7103H15.7578C15.7202 14.7105 15.6842 14.7257 15.6577 14.7528C15.6311 14.7798 15.6162 14.8165 15.616 14.8547L15.6128 15.6484Z" fill="#231815"/>
<path d="M15.6128 14.3309C15.6129 14.3691 15.6279 14.4058 15.6545 14.4328C15.681 14.4598 15.717 14.4751 15.7545 14.4753H16.9294C16.9684 14.474 17.0058 14.459 17.0352 14.4328C17.0645 14.4065 17.0841 14.3708 17.0905 14.3315L17.162 13.532C17.1632 13.5134 17.1605 13.4947 17.1543 13.4772C17.1481 13.4597 17.1384 13.4436 17.1258 13.4301C17.1132 13.4165 17.0981 13.4058 17.0812 13.3985C17.0644 13.3911 17.0463 13.3874 17.028 13.3876H15.7578C15.7202 13.3877 15.6842 13.403 15.6577 13.4301C15.6311 13.4571 15.6162 13.4937 15.616 13.532L15.6128 14.3309Z" fill="#231815"/>
<path d="M15.6128 13.0134C15.6129 13.0516 15.6279 13.0883 15.6545 13.1153C15.681 13.1424 15.717 13.1576 15.7545 13.1578H17.0273C17.0456 13.158 17.0636 13.1542 17.0804 13.1469C17.0972 13.1396 17.1123 13.1288 17.1248 13.1152C17.1372 13.1017 17.1468 13.0856 17.1529 13.0681C17.159 13.0506 17.1614 13.0319 17.1601 13.0134L17.0827 12.2138C17.0764 12.1743 17.0567 12.1383 17.0271 12.1121C16.9974 12.0858 16.9596 12.0709 16.9203 12.0701H15.7578C15.7202 12.0703 15.6842 12.0855 15.6577 12.1126C15.6311 12.1396 15.6162 12.1763 15.616 12.2145L15.6128 13.0134Z" fill="#231815"/>
<path d="M18.5553 14.8311C18.5933 14.7615 18.5611 14.705 18.4825 14.705H17.3992C17.3589 14.7066 17.3201 14.7209 17.2883 14.7459C17.2564 14.771 17.233 14.8056 17.2213 14.8449L16.9597 15.6582C16.9529 15.673 16.9501 15.6893 16.9515 15.7055C16.9529 15.7218 16.9585 15.7374 16.9677 15.7507C16.977 15.764 16.9895 15.7746 17.004 15.7814C17.0186 15.7882 17.0346 15.791 17.0505 15.7895H17.7375C17.8266 15.7842 17.9103 15.7448 17.9721 15.6792L18.5553 14.8311Z" fill="#231815"/>
<path d="M18.1119 16.0225C18.0208 16.027 17.9331 16.059 17.8599 16.1144L17.4249 16.4426C17.3605 16.4853 17.3663 16.4991 17.4398 16.4728L18.3355 16.0862C18.4064 16.0507 18.4 16.0206 18.3214 16.0206L18.1119 16.0225Z" fill="#231815"/>
<path d="M15.6128 11.6952C15.6128 11.7335 15.6277 11.7703 15.6543 11.7974C15.6809 11.8244 15.7169 11.8397 15.7545 11.8397H16.8739C16.8909 11.8411 16.9079 11.8381 16.9235 11.831C16.939 11.824 16.9525 11.813 16.9628 11.7992C16.9731 11.7854 16.9798 11.7692 16.9823 11.752C16.9847 11.7349 16.983 11.7174 16.9771 11.7012C16.9771 11.7012 16.8108 11.1104 16.6606 10.8038L16.6516 10.7867C16.6419 10.7677 16.5704 10.7526 16.4924 10.7526H15.7578C15.7202 10.7528 15.6842 10.768 15.6577 10.7951C15.6311 10.8221 15.6162 10.8588 15.616 10.897L15.6128 11.6952Z" fill="#231815"/>
<path d="M20.2496 13.5307C20.2529 13.5129 20.2522 13.4946 20.2476 13.4771C20.243 13.4596 20.2346 13.4434 20.223 13.4296C20.2115 13.4159 20.197 13.405 20.1807 13.3977C20.1645 13.3904 20.1468 13.387 20.129 13.3876H19.2835C19.2448 13.3885 19.2078 13.4037 19.1792 13.4302C19.1505 13.4567 19.1322 13.4928 19.1276 13.532L18.9897 14.3355C18.9844 14.3521 18.9831 14.3698 18.9861 14.3871C18.9891 14.4043 18.9962 14.4205 19.0067 14.4343C19.0173 14.4481 19.031 14.4591 19.0467 14.4662C19.0624 14.4733 19.0795 14.4765 19.0966 14.4753H19.8461C19.9248 14.4753 19.9886 14.4753 19.9886 14.4753C19.9886 14.4753 20.0118 14.4175 20.0395 14.344L20.2496 13.5307Z" fill="#231815"/>
<path d="M16.9352 16.0225C16.8921 16.0249 16.85 16.037 16.8121 16.0579C16.7741 16.0788 16.7411 16.1079 16.7154 16.1433L16.3797 16.5812C16.3268 16.6383 16.3429 16.6639 16.4158 16.637L17.5036 16.1C17.568 16.0573 17.559 16.0225 17.481 16.0225H16.9352Z" fill="#231815"/>
<path d="M16.4396 16.1328C16.4905 16.0718 16.4679 16.0225 16.39 16.0225H15.7578C15.7201 16.0227 15.684 16.0381 15.6575 16.0652C15.6309 16.0924 15.616 16.1292 15.616 16.1676V16.6271C15.6137 16.6434 15.6161 16.6599 15.6228 16.6748C15.6296 16.6897 15.6404 16.7024 15.654 16.7112C15.6676 16.72 15.6834 16.7246 15.6995 16.7244C15.7157 16.7243 15.7314 16.7195 15.7449 16.7105L16.4396 16.1328Z" fill="#231815"/>
<path d="M20.1271 13.1578C20.1447 13.1585 20.1623 13.1551 20.1784 13.1478C20.1945 13.1406 20.2088 13.1296 20.2202 13.1159C20.2316 13.1022 20.2397 13.086 20.244 13.0686C20.2483 13.0511 20.2487 13.0329 20.245 13.0154L20.0208 12.204C20.003 12.1665 19.9757 12.1346 19.9417 12.1115C19.9077 12.0884 19.8682 12.075 19.8274 12.0727H19.0805C19.0635 12.0715 19.0464 12.0746 19.0308 12.0818C19.0152 12.089 19.0016 12.1 18.9913 12.1139C18.9809 12.1278 18.9741 12.144 18.9715 12.1613C18.9688 12.1785 18.9704 12.1961 18.9761 12.2125L19.125 13.016C19.1297 13.0554 19.1482 13.0917 19.1771 13.1182C19.206 13.1448 19.2433 13.1598 19.2822 13.1604L20.1271 13.1578Z" fill="#231815"/>
<path d="M17.9257 10.8609C17.8632 10.7967 17.7797 10.7582 17.6911 10.7526H17.0286C17.0127 10.7509 16.9966 10.7537 16.9821 10.7605C16.9676 10.7674 16.9552 10.7781 16.9462 10.7915C16.9371 10.805 16.9318 10.8206 16.9308 10.8369C16.9298 10.8531 16.9331 10.8694 16.9403 10.8839L17.2091 11.6979C17.2215 11.737 17.2454 11.7713 17.2775 11.7962C17.3097 11.821 17.3485 11.8353 17.3889 11.837H18.4644C18.5431 11.837 18.574 11.7819 18.5347 11.7123L17.9257 10.8609Z" fill="#231815"/>
<path d="M18.8672 10.8438C18.7936 10.7889 18.7057 10.7572 18.6146 10.7526H18.2924C18.2144 10.7526 18.1899 10.8031 18.2382 10.8662L18.7834 11.713C18.8054 11.75 18.836 11.781 18.8725 11.8031C18.9091 11.8252 18.9504 11.8378 18.9929 11.8397H19.6921C19.7707 11.8397 19.7939 11.7898 19.7443 11.7287L18.8672 10.8438Z" fill="#231815"/>
<path d="M15.7423 9.88085C15.7286 9.87225 15.7128 9.8678 15.6967 9.868C15.6806 9.86821 15.6648 9.87306 15.6513 9.882C15.6378 9.89093 15.6271 9.90359 15.6204 9.91849C15.6137 9.93339 15.6113 9.94993 15.6134 9.96619V10.3784C15.6136 10.4166 15.6286 10.4532 15.6552 10.4801C15.6817 10.5071 15.7177 10.5222 15.7552 10.5222H16.3616C16.4402 10.5222 16.4615 10.4736 16.4093 10.4145L15.7423 9.88085Z" fill="#231815"/>
<path d="M19.7759 14.816C19.8242 14.7536 19.8004 14.7024 19.7224 14.7024H19.0135C18.9713 14.7048 18.9302 14.7177 18.894 14.74C18.8578 14.7623 18.8276 14.7934 18.806 14.8304L18.2808 15.6753C18.2337 15.7409 18.2589 15.7901 18.3375 15.7901H18.6481C18.6959 15.7856 18.7442 15.7898 18.7905 15.8026C18.8306 15.7814 18.8673 15.7541 18.8994 15.7219L19.7759 14.816Z" fill="#231815"/>
<path d="M18.9007 13.5313C18.9031 13.5129 18.9015 13.4943 18.896 13.4766C18.8905 13.4589 18.8813 13.4426 18.8691 13.4289C18.8568 13.4152 18.8417 13.4045 18.8249 13.3973C18.8081 13.3902 18.79 13.3868 18.7718 13.3876H17.5377C17.4995 13.388 17.4629 13.4031 17.4351 13.4299C17.4074 13.4567 17.3906 13.4931 17.3882 13.532L17.3186 14.3315C17.3157 14.3496 17.3168 14.368 17.3218 14.3856C17.3267 14.4031 17.3354 14.4193 17.3473 14.4331C17.3591 14.4468 17.3737 14.4577 17.3902 14.465C17.4066 14.4723 17.4244 14.4758 17.4423 14.4753H18.5733C18.6137 14.4735 18.6526 14.4591 18.6848 14.4341C18.7169 14.4091 18.7408 14.3747 18.7531 14.3355L18.9007 13.5313Z" fill="#231815"/>
<path d="M16.687 10.4034C16.7136 10.4381 16.7471 10.4667 16.7853 10.4872C16.8235 10.5077 16.8656 10.5196 16.9087 10.5222H17.4243C17.5016 10.5222 17.5113 10.4887 17.4449 10.4474L16.4177 9.95437C16.3448 9.92745 16.3287 9.95437 16.3822 10.0102L16.687 10.4034Z" fill="#231815"/>
<path d="M17.8084 10.4323C17.8823 10.4864 17.97 10.5176 18.061 10.5222H18.2408C18.3188 10.5222 18.3252 10.4953 18.2543 10.4605L17.4398 10.1211C17.3663 10.0942 17.3592 10.108 17.4249 10.1513L17.8084 10.4323Z" fill="#231815"/>
<path d="M17.0467 19.3021C16.9715 19.4168 16.8684 19.5096 16.7476 19.5717C16.6267 19.6338 16.4921 19.6629 16.3569 19.6563C16.2217 19.6497 16.0905 19.6076 15.976 19.534C15.8615 19.4604 15.7677 19.3579 15.7036 19.2365L15.6566 19.1511C15.2403 18.3956 14.9889 17.9321 14.9103 17.7726L14.7602 17.4693L14.6055 17.77C14.5011 17.9761 13.9656 19.1485 13.7368 19.6487C13.693 19.7446 13.5815 19.9664 13.5712 19.9888L13.9578 19.9815C13.9688 19.9586 13.9991 19.8916 14.0435 19.7951C14.2008 19.4511 14.5533 18.6792 14.7608 18.2341C14.9541 18.5938 15.2409 19.1137 15.3556 19.3212C15.3814 19.3678 15.3969 19.3966 15.4001 19.4006C15.5003 19.5923 15.652 19.7511 15.8374 19.8585C16.0228 19.9659 16.2343 20.0174 16.4473 20.0071C16.6603 19.9968 16.8661 19.9251 17.0407 19.8002C17.2152 19.6754 17.3514 19.5027 17.4333 19.3021H17.0467Z" fill="#231815"/>
<path d="M16.3925 17.7089C16.1817 17.7087 15.9751 17.7689 15.7963 17.8827C15.6175 17.9964 15.4737 18.1592 15.3814 18.3522L15.6044 18.7153C15.6265 18.6457 15.6532 18.5777 15.6843 18.5118C15.7438 18.3839 15.8356 18.2744 15.9503 18.1945C16.065 18.1147 16.1985 18.0673 16.3371 18.0572C16.4757 18.0471 16.6144 18.0747 16.7391 18.1372C16.8637 18.1996 16.9699 18.2947 17.0467 18.4126H17.4333C17.3475 18.2037 17.2028 18.0254 17.0176 17.9001C16.8324 17.7749 16.6149 17.7084 16.3925 17.7089Z" fill="#231815"/>
<path d="M15.4188 23.7837C15.382 23.7561 11.6881 21.0069 10.3193 17.2107C9.52018 14.9945 8.98465 11.6493 8.98465 9.91433V9.82046L9.06649 9.78107C9.76443 9.4476 15.5 7.49074 15.5 7.49074C15.5 7.49074 21.2355 9.4476 21.9328 9.78107L22.0153 9.82046V9.91433C22.0153 11.6506 21.4785 14.9959 20.6807 17.2107C19.3138 21.0017 15.6179 23.7561 15.5812 23.7837L15.5 23.8428L15.4188 23.7837ZM15.5 7.78548C15.5 7.78548 10.4089 9.50339 9.28303 10.0029L9.26627 10.0102V10.0299C9.28818 11.7366 9.79794 14.9315 10.5822 17.107C11.7996 20.485 14.8774 22.9986 15.4832 23.4686L15.4993 23.481L15.5161 23.4686C16.1206 22.9986 19.1991 20.4837 20.4139 17.107C21.1988 14.9315 21.7086 11.7399 21.7298 10.0299V10.0102L21.7124 10.0029C20.5943 9.50339 15.5 7.80058 15.5 7.78548Z" fill="#231815"/>
<path d="M15.4394 22.8246C15.4053 22.8003 12.0638 20.3262 10.8181 16.87C10.0938 14.8619 9.60785 11.8285 9.60785 10.2557V10.1848L9.67229 10.1552C10.3064 9.85327 15.5019 8.0789 15.5019 8.0789C15.5019 8.0789 20.6974 9.8513 21.3316 10.1552L21.396 10.1848V10.2557C21.396 11.8311 20.9095 14.8619 20.1858 16.87C18.9413 20.3262 15.5986 22.8003 15.5651 22.8246L15.5045 22.8692L15.4394 22.8246ZM15.5 8.29816C15.5 8.29816 10.5848 9.9839 9.83727 10.318L9.82051 10.3253V10.3456C9.83856 11.8981 10.3006 14.8042 11.0166 16.7899C11.6507 18.5512 12.8417 20.0459 13.7838 21.0338C14.3271 21.6141 15.0727 22.2968 15.5 22.6093C15.8867 22.3224 16.6072 21.6535 17.1478 21.0995C18.1145 20.1148 19.3351 18.5846 19.9834 16.786C20.6994 14.8002 21.1614 11.8942 21.1795 10.3417V10.3213L21.1621 10.3141C20.3978 9.97603 15.5 8.29816 15.5 8.29816Z" fill="#231815"/>
<path d="M16.109 6.57171L16.4956 4.1107C16.3302 3.98534 16.1745 3.84731 16.0297 3.6978L15.8228 6.57171H16.109ZM15.4993 6.57171H15.6347L15.8557 3.50349C15.7205 3.34852 15.6013 3.1798 15.5 3C15.399 3.17984 15.28 3.34856 15.1449 3.50349L15.3653 6.57171H15.4993ZM16.5949 6.57171L17.1104 4.4921C16.9585 4.41567 16.8115 4.32951 16.6703 4.23411L16.301 6.57171H16.5949ZM17.1846 6.57171L17.7066 4.73367C17.5637 4.68895 17.4234 4.63613 17.2864 4.57546L16.7927 6.57171H17.1846ZM13.653 6.57171L13.0981 4.81047C12.9324 4.77142 12.7708 4.71625 12.6154 4.6457L13.3127 6.52248L13.653 6.57171ZM15.1726 6.57171L14.9651 3.6978C14.8206 3.84731 14.665 3.98535 14.4998 4.1107L14.8865 6.57171H15.1726ZM17.6859 6.52248L18.3826 4.6457C18.2272 4.71625 18.0656 4.77142 17.8999 4.81047L17.3457 6.57171L17.6859 6.52248ZM14.2059 6.57171L13.7129 4.57546C13.5753 4.63698 13.4344 4.69045 13.2908 4.73564L13.8135 6.57368L14.2059 6.57171ZM14.6983 6.57171L14.3284 4.23411C14.1875 4.32962 14.0407 4.41579 13.8889 4.4921L14.4044 6.57171H14.6983ZM13.5724 7.5229L15.5 7.09621L17.441 7.5229L17.6879 6.68134H13.3089L13.5724 7.5229Z" fill="#231815"/>
<path d="M8.17136 9.05109L8.62247 9.47122L13.3108 7.60626L13.1258 7.09883L8.17136 9.05109ZM12.7289 7.41392C12.7289 7.41392 12.8545 7.49664 12.8719 7.54521C12.8801 7.56806 12.8792 7.59322 12.8696 7.61547C12.86 7.63771 12.8424 7.65534 12.8204 7.66469C12.8093 7.66898 12.7976 7.67099 12.7858 7.6706C12.774 7.67021 12.7624 7.66742 12.7516 7.66241C12.7409 7.6574 12.7312 7.65026 12.7232 7.64141C12.7152 7.63256 12.709 7.62217 12.705 7.61086C12.6883 7.56228 12.7289 7.41392 12.7289 7.41392ZM12.3493 7.56425C12.3493 7.56425 12.4743 7.64696 12.4924 7.69554C12.501 7.71853 12.5003 7.74406 12.4906 7.76656C12.4808 7.78907 12.4627 7.80672 12.4402 7.81567C12.4292 7.81995 12.4174 7.82195 12.4057 7.82155C12.3939 7.82115 12.3824 7.81837 12.3717 7.81335C12.361 7.80834 12.3514 7.8012 12.3435 7.79235C12.3355 7.7835 12.3294 7.77313 12.3254 7.76184C12.3222 7.69498 12.3307 7.62807 12.3506 7.56425H12.3493ZM11.9704 7.71523C11.9704 7.71523 12.0954 7.79794 12.1134 7.84652C12.1219 7.86953 12.1213 7.89501 12.1117 7.91757C12.1021 7.94012 12.0842 7.95796 12.0619 7.96731C12.0508 7.9716 12.0391 7.97361 12.0273 7.97322C12.0155 7.97283 12.0038 7.97005 11.9931 7.96503C11.9824 7.96002 11.9727 7.95288 11.9647 7.94403C11.9567 7.93518 11.9505 7.92479 11.9465 7.91348C11.9304 7.86359 11.9716 7.71523 11.9716 7.71523H11.9704ZM11.5914 7.86621C11.5914 7.86621 11.7164 7.94827 11.7338 7.9975C11.7423 8.02033 11.7417 8.04562 11.732 8.06796C11.7224 8.0903 11.7045 8.1079 11.6823 8.11698C11.6713 8.12137 11.6597 8.12347 11.6479 8.12316C11.6361 8.12285 11.6246 8.12013 11.6139 8.11517C11.6032 8.11021 11.5935 8.10311 11.5856 8.09428C11.5776 8.08546 11.5715 8.07509 11.5676 8.0638C11.5508 8.01523 11.5927 7.86621 11.5927 7.86621H11.5914ZM11.2118 8.0172C11.2118 8.0172 11.3407 8.09991 11.3543 8.14848C11.3629 8.17139 11.3624 8.19685 11.3527 8.21934C11.3431 8.24183 11.3251 8.25954 11.3027 8.26861C11.2917 8.2728 11.28 8.27473 11.2683 8.27429C11.2565 8.27385 11.245 8.27105 11.2343 8.26604C11.2237 8.26104 11.2141 8.25393 11.2061 8.24514C11.1982 8.23634 11.192 8.22602 11.188 8.21479C11.1719 8.16555 11.2131 8.0172 11.2131 8.0172H11.2118ZM10.8329 8.16818C10.8329 8.16818 10.9573 8.25023 10.9753 8.29947C10.9839 8.32239 10.9834 8.34781 10.9739 8.37035C10.9644 8.39289 10.9466 8.41078 10.9244 8.42025C10.9133 8.42444 10.9016 8.42635 10.8897 8.42587C10.8779 8.42539 10.8663 8.42254 10.8556 8.41747C10.8449 8.41241 10.8353 8.40523 10.8273 8.39636C10.8193 8.38748 10.8131 8.37709 10.8091 8.36577C10.7955 8.31719 10.8342 8.16818 10.8342 8.16818H10.8329ZM10.4546 8.31719C10.4546 8.31719 10.5796 8.3999 10.5977 8.44848C10.606 8.47141 10.6053 8.49673 10.5957 8.51913C10.5861 8.54153 10.5683 8.55926 10.5461 8.56861C10.5351 8.57297 10.5233 8.57501 10.5115 8.57462C10.4997 8.57422 10.4881 8.57139 10.4774 8.5663C10.4666 8.56121 10.4571 8.55396 10.4492 8.545C10.4413 8.53603 10.4352 8.52553 10.4314 8.51412C10.4134 8.46752 10.4546 8.31719 10.4546 8.31719ZM10.075 8.46883C10.075 8.46883 10.2039 8.55088 10.2188 8.60012C10.2269 8.62314 10.226 8.64846 10.2163 8.67083C10.2065 8.69319 10.1887 8.71089 10.1666 8.72025C10.1556 8.72453 10.1438 8.72653 10.1321 8.72613C10.1203 8.72573 10.1088 8.72295 10.0981 8.71793C10.0874 8.71292 10.0778 8.70578 10.0699 8.69693C10.0619 8.68808 10.0558 8.67771 10.0518 8.66642C10.0344 8.6185 10.075 8.47014 10.075 8.47014V8.46883ZM9.69611 8.61915C9.69611 8.61915 9.82113 8.70187 9.83853 8.75044C9.84725 8.77309 9.84686 8.79832 9.83745 8.82068C9.82805 8.84304 9.81038 8.86073 9.78827 8.86992C9.77724 8.87433 9.76545 8.87645 9.7536 8.87615C9.74176 8.87586 9.73009 8.87315 9.71928 8.8682C9.70847 8.86325 9.69875 8.85614 9.69068 8.84731C9.6826 8.83847 9.67634 8.82808 9.67227 8.81674C9.65487 8.76882 9.69611 8.62047 9.69611 8.62047V8.61915ZM9.31653 8.77014C9.31653 8.77014 9.44542 8.85219 9.45896 8.90143C9.46766 8.92425 9.4672 8.94964 9.45767 8.97212C9.44814 8.9946 9.43032 9.01235 9.40805 9.02156C9.39701 9.02582 9.38526 9.02779 9.37346 9.02735C9.36167 9.02691 9.35009 9.02406 9.3394 9.01899C9.3287 9.01391 9.31912 9.0067 9.3112 8.99778C9.30329 8.98886 9.29722 8.97842 9.29333 8.96707C9.27529 8.92046 9.31653 8.77145 9.31653 8.77145V8.77014ZM8.9376 8.92112C8.9376 8.92112 9.06649 9.00383 9.08067 9.05241C9.08933 9.07531 9.08878 9.10077 9.07913 9.12326C9.06947 9.14576 9.0515 9.16346 9.02911 9.17254C9.01808 9.17692 9.00631 9.179 8.99447 9.17866C8.98264 9.17831 8.971 9.17554 8.96024 9.17052C8.94947 9.1655 8.93981 9.15833 8.93183 9.14943C8.92384 9.14052 8.9177 9.13008 8.91376 9.11871C8.89636 9.07079 8.9376 8.92243 8.9376 8.92243V8.92112Z" fill="#231815"/>
<path d="M7.95871 8.85219L13.0305 6.82115L13.0917 6.99314L8.10629 8.98938L7.95871 8.85219Z" fill="#231815"/>
<path d="M6.54864 8.49377C6.55208 8.4882 6.55489 8.48226 6.55702 8.47605C6.55734 8.47058 6.55734 8.4651 6.55702 8.45964C6.54068 8.45193 6.52495 8.44293 6.50998 8.43272C6.51419 8.44392 6.51419 8.45632 6.50998 8.46752C6.50706 8.47017 6.5035 8.47199 6.49966 8.47277C6.51313 8.4821 6.52736 8.49022 6.5422 8.49706C6.5422 8.49706 6.548 8.49509 6.54864 8.49377Z" fill="#231815"/>
<path d="M7.25109 8.82923C7.2609 8.85571 7.26278 8.88455 7.25649 8.91212C7.2502 8.93968 7.23603 8.96473 7.21577 8.9841C7.19551 9.00346 7.17006 9.01627 7.14265 9.0209C7.11525 9.02554 7.0871 9.02179 7.06179 9.01014C7.03647 8.99848 7.01511 8.97944 7.00042 8.95542C6.98572 8.9314 6.97835 8.90349 6.97923 8.8752C6.98011 8.84691 6.9892 8.81953 7.00536 8.7965C7.02152 8.77348 7.04401 8.75586 7.07001 8.74586C7.08726 8.73913 7.10566 8.73594 7.12413 8.7365C7.1426 8.73705 7.16078 8.74132 7.17762 8.74908C7.19445 8.75683 7.20962 8.7679 7.22223 8.78166C7.23484 8.79542 7.24465 8.81158 7.25109 8.82923Z" fill="#231815"/>
<path d="M8.5561 8.15112C8.5656 8.1775 8.56724 8.20615 8.56079 8.23347C8.55435 8.26079 8.54012 8.28556 8.51989 8.30467C8.49966 8.32377 8.47434 8.33635 8.44711 8.34083C8.41987 8.34531 8.39195 8.34148 8.36685 8.32984C8.34174 8.31819 8.32058 8.29924 8.30603 8.27537C8.29147 8.2515 8.28417 8.22378 8.28504 8.1957C8.28592 8.16761 8.29492 8.14042 8.31093 8.11754C8.32694 8.09465 8.34923 8.0771 8.37501 8.0671C8.39231 8.06038 8.41074 8.05723 8.42924 8.05783C8.44774 8.05842 8.46594 8.06275 8.48279 8.07057C8.49963 8.07839 8.51479 8.08953 8.52737 8.10336C8.53996 8.11719 8.54972 8.13342 8.5561 8.15112Z" fill="#231815"/>
<path d="M10.0867 7.51962C10.0975 7.53753 10.1044 7.55767 10.1068 7.5786C10.1091 7.59953 10.1069 7.62074 10.1003 7.6407C10.0937 7.66066 10.0828 7.67888 10.0685 7.69407C10.0541 7.70926 10.0367 7.72104 10.0174 7.72856C9.99805 7.73609 9.97734 7.73918 9.95672 7.73761C9.93609 7.73604 9.91606 7.72985 9.89806 7.71949C9.88005 7.70912 9.86451 7.69483 9.85256 7.67765C9.8406 7.66046 9.83251 7.64079 9.82888 7.62005C9.82313 7.58727 9.82879 7.55348 9.84487 7.52449C9.86096 7.4955 9.88646 7.47314 9.91699 7.46124C9.94752 7.44935 9.98117 7.44867 10.0121 7.45932C10.0431 7.46998 10.0695 7.4913 10.0867 7.51962Z" fill="#231815"/>
<path d="M11.6913 6.95442C11.7015 6.98082 11.7037 7.00969 11.6977 7.03738C11.6918 7.06506 11.6779 7.09032 11.6578 7.10994C11.6377 7.12956 11.6123 7.14266 11.5849 7.14758C11.5575 7.1525 11.5293 7.14901 11.5038 7.13757C11.4784 7.12612 11.4568 7.10723 11.4419 7.08329C11.427 7.05935 11.4194 7.03144 11.4201 7.0031C11.4208 6.97476 11.4297 6.94727 11.4458 6.92411C11.4618 6.90095 11.4843 6.88317 11.5102 6.87302C11.5449 6.8595 11.5833 6.86047 11.6173 6.87572C11.6512 6.89097 11.6778 6.91926 11.6913 6.95442Z" fill="#231815"/>
<path d="M12.5555 6.44567C12.4408 6.53026 12.3055 6.58133 12.1643 6.59337C12.0141 6.59257 11.8673 6.54692 11.7422 6.46208C11.6353 6.40037 11.6237 6.26514 11.6591 6.15683C11.6945 6.04852 11.8337 5.93561 11.9749 6.00125C11.9411 5.93049 11.8834 5.87447 11.8124 5.84338C11.7415 5.81229 11.6619 5.80821 11.5882 5.83189C11.5773 5.6494 11.5096 5.4656 11.3949 5.4505C11.367 5.44915 11.3393 5.45621 11.3154 5.47081C11.2914 5.48541 11.2722 5.50689 11.2602 5.53255C11.2464 5.50659 11.2309 5.48159 11.2138 5.45772L11.2305 5.45312C11.2494 5.44702 11.2669 5.43706 11.2818 5.42386C11.2968 5.41065 11.309 5.39448 11.3176 5.37632C11.3262 5.35816 11.3311 5.3384 11.332 5.31825C11.3329 5.2981 11.3297 5.27798 11.3227 5.25912C11.3157 5.24026 11.3049 5.22306 11.2912 5.20856C11.2774 5.19406 11.2609 5.18258 11.2426 5.17481C11.2243 5.16704 11.2047 5.16315 11.1849 5.16337C11.1651 5.16359 11.1455 5.16792 11.1274 5.1761C11.1204 5.17906 11.1137 5.1828 11.1075 5.18726C11.1079 5.18488 11.1079 5.18243 11.1075 5.18004C11.092 5.13826 11.0609 5.10445 11.0209 5.08604C10.981 5.06764 10.9355 5.06615 10.8945 5.0819C10.8534 5.09766 10.8202 5.12937 10.8022 5.17006C10.7841 5.21074 10.7827 5.25707 10.7981 5.29886C10.7996 5.30059 10.8007 5.3026 10.8013 5.30477C10.7939 5.30604 10.7865 5.30802 10.7794 5.31067C10.7435 5.32452 10.7143 5.35235 10.6985 5.38805C10.6827 5.42375 10.6814 5.4644 10.695 5.50104C10.7086 5.53769 10.7359 5.56734 10.771 5.58347C10.806 5.59959 10.8459 5.60088 10.8819 5.58704C10.8872 5.58599 10.8921 5.58349 10.8961 5.57982C10.8991 5.60962 10.9038 5.63921 10.9103 5.66844C10.8847 5.65714 10.8565 5.65379 10.8291 5.65881C10.8016 5.66384 10.7763 5.67701 10.7562 5.69666C10.6776 5.7866 10.7459 5.96909 10.8555 6.11351C10.7811 6.14307 10.7201 6.19974 10.6843 6.27251C10.6486 6.34529 10.6407 6.42899 10.6621 6.50737C10.7266 6.36427 10.9038 6.3623 10.9998 6.41284C11.0959 6.46339 11.1062 6.62225 11.0643 6.71875C10.9818 6.90583 10.7292 7.00299 10.6177 7.0345C10.5372 7.0593 10.4522 7.06533 10.3691 7.05215C10.286 7.03897 10.2069 7.00691 10.1376 6.95835C10.0003 6.84478 9.92619 6.68133 9.96163 6.57302C9.99708 6.4647 10.1356 6.35179 10.2774 6.41678C10.2494 6.3558 10.2031 6.30545 10.1452 6.27301C10.0873 6.24056 10.0207 6.22769 9.95519 6.23626C9.95132 6.01438 9.87334 5.77675 9.73028 5.75837C9.69749 5.75603 9.66478 5.76379 9.63639 5.78065C9.608 5.79751 9.58525 5.82269 9.5711 5.8529C9.55544 5.82303 9.53779 5.7943 9.51825 5.7669L9.5363 5.76231C9.55776 5.75518 9.57758 5.7437 9.59456 5.72855C9.61154 5.7134 9.62533 5.6949 9.63509 5.67417C9.64485 5.65344 9.65038 5.63091 9.65134 5.60794C9.65231 5.58496 9.64869 5.56203 9.64071 5.54053C9.63273 5.51902 9.62054 5.49939 9.6049 5.48281C9.58925 5.46624 9.57047 5.45307 9.54969 5.4441C9.5289 5.43513 9.50655 5.43055 9.48398 5.43064C9.4614 5.43072 9.43908 5.43547 9.41837 5.44459C9.40999 5.44459 9.40225 5.45247 9.39452 5.45641C9.39483 5.45379 9.39483 5.45114 9.39452 5.44853C9.38572 5.42478 9.37241 5.40303 9.35536 5.38452C9.3383 5.36601 9.31784 5.3511 9.29513 5.34064C9.27242 5.33019 9.24791 5.32439 9.223 5.32359C9.19809 5.32278 9.17327 5.32698 9.14995 5.33595C9.12664 5.34491 9.10528 5.35847 9.08711 5.37584C9.06894 5.39321 9.0543 5.41406 9.04404 5.43719C9.03378 5.46032 9.02809 5.48529 9.0273 5.51066C9.02651 5.53604 9.03063 5.56132 9.03943 5.58507C9.04089 5.58728 9.04198 5.58972 9.04265 5.59229C9.03405 5.59347 9.02562 5.59567 9.01752 5.59885C8.99579 5.60571 8.97566 5.61702 8.95837 5.63209C8.94108 5.64716 8.927 5.66567 8.917 5.68649C8.90699 5.7073 8.90127 5.72998 8.90018 5.75313C8.89909 5.77628 8.90266 5.79941 8.91067 5.8211C8.91868 5.8428 8.93095 5.86259 8.94675 5.87928C8.96254 5.89596 8.98152 5.90918 9.00251 5.91812C9.0235 5.92706 9.04606 5.93154 9.06882 5.93127C9.09157 5.931 9.11402 5.926 9.13481 5.91657C9.14079 5.91413 9.1466 5.91128 9.15221 5.90804C9.15535 5.94181 9.16052 5.97535 9.16768 6.00847C9.13832 5.99575 9.10594 5.99207 9.07455 5.99791C9.04317 6.00374 9.01415 6.01883 8.9911 6.0413C8.89636 6.15027 8.9911 6.37805 9.12708 6.54741C9.0655 6.58286 9.01749 6.63845 8.99082 6.70518C8.96415 6.7719 8.96039 6.84585 8.98014 6.91502C9.04459 6.77126 9.22117 6.76995 9.31783 6.81984C9.4145 6.86973 9.46541 7.05025 9.43576 7.22815C9.41459 7.31153 9.37518 7.38897 9.3205 7.45467C9.26582 7.52037 9.19728 7.57264 9.11999 7.60757C9.01559 7.65943 8.76232 7.75593 8.5793 7.67322C8.48456 7.62989 8.39305 7.51042 8.4285 7.40145C8.46394 7.29248 8.60379 7.18023 8.74363 7.24521C8.70863 7.17215 8.64826 7.11492 8.57421 7.0846C8.50015 7.05428 8.41769 7.05303 8.34279 7.0811C8.33183 6.89861 8.26481 6.71546 8.14945 6.70037C8.12167 6.69915 8.09415 6.70628 8.07032 6.72087C8.04649 6.73546 8.02739 6.75686 8.01541 6.78242C7.99994 6.75551 7.98448 6.73056 7.96901 6.70693C7.9744 6.70688 7.9797 6.70553 7.98448 6.70299C8.02045 6.68915 8.04956 6.66132 8.06539 6.62562C8.08123 6.58992 8.08249 6.54927 8.0689 6.51262C8.05531 6.47598 8.02799 6.44633 7.99294 6.4302C7.95789 6.41407 7.91799 6.41279 7.88201 6.42663C7.87475 6.42951 7.86765 6.4328 7.86074 6.43648V6.42991C7.85308 6.40922 7.8415 6.39027 7.82665 6.37414C7.8118 6.35801 7.79398 6.34502 7.7742 6.33591C7.75442 6.3268 7.73308 6.32174 7.71138 6.32103C7.68969 6.32032 7.66806 6.32397 7.64775 6.33177C7.62744 6.33957 7.60884 6.35137 7.59301 6.3665C7.57717 6.38163 7.56442 6.39978 7.55547 6.41993C7.54652 6.44007 7.54156 6.46181 7.54086 6.48391C7.54017 6.50601 7.54375 6.52804 7.55141 6.54873C7.55141 6.54873 7.55141 6.55267 7.55141 6.55529L7.52885 6.5612C7.49279 6.57504 7.4636 6.60291 7.44771 6.63867C7.43182 6.67443 7.43052 6.71516 7.44411 6.7519C7.4577 6.78863 7.48505 6.81836 7.52016 6.83455C7.55527 6.85074 7.59526 6.85206 7.63132 6.83822C7.63664 6.83619 7.64181 6.83378 7.64679 6.831C7.64961 6.86035 7.65412 6.8895 7.66032 6.91831C7.63473 6.907 7.60642 6.90371 7.57899 6.90886C7.55156 6.914 7.52626 6.92735 7.5063 6.94719C7.42832 7.03647 7.49728 7.22027 7.60683 7.36469C7.53656 7.39657 7.47981 7.45301 7.44684 7.5238C7.41386 7.59459 7.40684 7.67507 7.42703 7.75068C7.49148 7.60691 7.66934 7.6056 7.76537 7.65549C7.82223 7.69256 7.86761 7.74529 7.89624 7.80757C7.92487 7.86985 7.93558 7.93912 7.92712 8.00735C7.90328 8.2115 7.84399 8.29224 7.60039 8.40121C7.53323 8.42831 7.46236 8.4447 7.3903 8.44979C7.23821 8.43732 7.16603 8.35854 7.1525 8.25285C7.1525 8.23251 7.1525 8.21281 7.1525 8.19181C7.1525 8.05527 7.10481 7.90494 7.01717 7.89378C6.99812 7.89279 6.97922 7.89764 6.96291 7.90771C6.94659 7.91777 6.93362 7.93258 6.92565 7.95023C6.86765 7.84192 6.79225 7.7835 6.73232 7.80647C6.67239 7.82945 6.65563 7.92201 6.68205 8.04279C6.6645 8.03506 6.64509 8.0328 6.62628 8.03631C6.60746 8.03981 6.59009 8.04892 6.57636 8.06249C6.53641 8.10778 6.55316 8.18918 6.59441 8.26861C6.55357 8.23897 6.508 8.21676 6.45972 8.20297L6.43265 8.19706H6.39785H6.39205C6.38223 8.19766 6.37262 8.20023 6.36377 8.20462C6.35492 8.20901 6.34701 8.21514 6.3405 8.22266C6.3227 8.21324 6.30388 8.20597 6.28443 8.201C6.27575 8.19862 6.26693 8.19687 6.25801 8.19574H6.24834C6.24364 8.19513 6.23887 8.19513 6.23417 8.19574H6.2245L6.21999 8.1859C6.20942 8.18643 6.19909 8.18921 6.18965 8.19408C6.18021 8.19894 6.17189 8.20577 6.16521 8.21413C6.15957 8.22333 6.1559 8.23364 6.15446 8.24439C6.15302 8.25514 6.15382 8.26608 6.15683 8.27649C6.15753 8.28166 6.15882 8.28673 6.1607 8.29159C6.1607 8.29618 6.16457 8.30143 6.16714 8.30668C6.17221 8.31793 6.17825 8.3287 6.18519 8.33885C6.21631 8.38496 6.2562 8.42424 6.30248 8.45438L6.31021 8.45898C6.26932 8.47907 6.23298 8.50759 6.20347 8.54273C6.17396 8.57788 6.15194 8.61887 6.13879 8.66313V8.6756C6.08143 9.05765 6.52545 9.27166 7.07259 9.14562C6.72781 9.12133 6.42814 8.9651 6.4623 8.74519C6.49645 8.6139 6.66788 8.56467 6.88312 8.57386C6.97077 8.57779 7.06228 8.59552 7.17763 8.60471C7.3845 8.61915 7.46054 8.63884 7.66805 8.56007C7.94323 8.45373 8.13721 8.25811 8.17136 8.11566C8.20062 7.99979 8.21107 7.87983 8.2023 7.76052C8.2366 7.78964 8.27399 7.81474 8.31379 7.83536C8.64374 8.00078 9.00205 7.84127 9.18765 7.76971C9.38883 7.68436 9.55324 7.52829 9.65101 7.3299C9.7057 7.22018 9.73772 7.1002 9.7451 6.97739C9.83015 7.06489 9.93192 7.13371 10.0441 7.17957C10.246 7.26295 10.4707 7.26947 10.677 7.19795C10.86 7.13559 11.2318 7.01218 11.3755 6.66623C11.3923 6.62402 11.4042 6.57996 11.411 6.53494C11.5437 6.61792 11.6843 6.68719 11.8305 6.74172C11.9961 6.80015 12.1643 6.831 12.4788 6.71021C12.678 6.63275 12.8777 6.33079 12.7978 6.01898C12.7933 6.09906 12.7353 6.27302 12.5555 6.44567ZM6.35597 8.4406C6.34581 8.43556 6.33611 8.42963 6.32697 8.42287C6.28253 8.39405 6.24455 8.35603 6.21548 8.31128C6.21361 8.30865 6.21209 8.30578 6.21097 8.30274V8.29815C6.21124 8.29619 6.21124 8.2942 6.21097 8.29224C6.2106 8.29007 6.2106 8.28785 6.21097 8.28568V8.28174V8.27517C6.21127 8.27388 6.21127 8.27253 6.21097 8.27124C6.21065 8.26972 6.21065 8.26816 6.21097 8.26664C6.2106 8.26491 6.2106 8.26312 6.21097 8.26139C6.21062 8.25922 6.21062 8.257 6.21097 8.25482V8.24957L6.21548 8.24563H6.22192H6.22901H6.23481H6.24963H6.25865C6.28398 8.25017 6.30866 8.25789 6.33212 8.26861C6.33052 8.27773 6.33052 8.28706 6.33212 8.29618L6.33599 8.31062C6.33599 8.31522 6.33985 8.31981 6.34308 8.32572C6.34776 8.33703 6.35359 8.34781 6.36048 8.35789C6.3774 8.38206 6.39708 8.4041 6.41912 8.42353C6.39779 8.42807 6.3767 8.43377 6.35597 8.4406ZM6.65692 8.37495C6.59371 8.37464 6.53072 8.38236 6.46939 8.39793C6.43939 8.37535 6.41308 8.3481 6.39141 8.31719C6.38945 8.31427 6.38773 8.3112 6.38625 8.308V8.30406C6.386 8.30188 6.386 8.29967 6.38625 8.29749C6.38504 8.2956 6.38397 8.29363 6.38303 8.29159C6.38303 8.29159 6.38303 8.29159 6.38303 8.28699V8.2824C6.38272 8.28088 6.38272 8.27932 6.38303 8.2778C6.38331 8.2765 6.38331 8.27516 6.38303 8.27386V8.26533C6.38272 8.26359 6.38272 8.26181 6.38303 8.26008C6.38249 8.25837 6.38249 8.25653 6.38303 8.25482C6.38429 8.25298 6.3861 8.2516 6.38819 8.25089C6.38889 8.25054 6.38966 8.25036 6.39044 8.25036C6.39122 8.25036 6.392 8.25054 6.3927 8.25089H6.39979H6.43459C6.49015 8.26281 6.54223 8.28775 6.58668 8.32375C6.61372 8.34377 6.63799 8.36739 6.65885 8.39399L6.65692 8.37495ZM6.70203 8.3185C6.6247 8.222 6.59505 8.12157 6.62212 8.0894C6.6363 8.07365 6.67239 8.0789 6.71492 8.10319C6.75608 8.12758 6.7929 8.15887 6.82383 8.19574C6.85688 8.23378 6.88404 8.27672 6.90439 8.32309L6.70203 8.3185ZM6.88119 8.1859C6.87574 8.1786 6.86993 8.17159 6.86379 8.16489C6.83102 8.1263 6.79279 8.09289 6.75037 8.06577C6.71363 7.94301 6.73039 7.86096 6.75745 7.85046C6.78452 7.83995 6.85477 7.89969 6.90181 8.00735C6.88766 8.05614 6.88071 8.1068 6.88119 8.15767V8.1859ZM7.09257 8.29552L7.06292 8.33032H6.96368C6.96093 8.32458 6.95856 8.31865 6.95659 8.31259C6.94124 8.26335 6.93363 8.21195 6.93403 8.1603C6.93365 8.11175 6.94083 8.06345 6.9553 8.01719C6.97141 7.97058 6.9959 7.94039 7.01588 7.94433C7.05776 7.94564 7.10545 8.05461 7.10545 8.1859C7.10529 8.22261 7.10096 8.25917 7.09257 8.29487V8.29552ZM7.90908 6.49752C7.92169 6.4926 7.93545 6.49159 7.94863 6.49463C7.9618 6.49768 7.97379 6.50463 7.98309 6.51461C7.99239 6.52459 7.99857 6.53716 8.00086 6.55072C8.00314 6.56428 8.00143 6.57823 7.99593 6.5908C7.99044 6.60337 7.98141 6.614 7.96999 6.62134C7.95856 6.62869 7.94526 6.63241 7.93175 6.63206C7.91825 6.6317 7.90515 6.62727 7.89412 6.61933C7.88309 6.61139 7.87461 6.6003 7.86976 6.58746C7.86645 6.57889 7.86483 6.56973 7.86501 6.56052C7.8652 6.5513 7.86717 6.54222 7.87083 6.53379C7.87449 6.52537 7.87975 6.51776 7.88632 6.51142C7.89288 6.50508 7.90062 6.50014 7.90908 6.49687V6.49752ZM7.67385 6.403C7.69019 6.39677 7.70797 6.3956 7.72495 6.39965C7.74194 6.4037 7.75736 6.41279 7.76928 6.42576C7.7812 6.43873 7.78908 6.45501 7.79193 6.47254C7.79477 6.49007 7.79246 6.50807 7.78527 6.52426C7.77809 6.54045 7.76636 6.55411 7.75156 6.56351C7.73676 6.57292 7.71956 6.57765 7.70213 6.57711C7.68469 6.57657 7.6678 6.57077 7.6536 6.56047C7.63939 6.55016 7.6285 6.53579 7.6223 6.51919C7.61392 6.49673 7.61465 6.4718 7.62432 6.44989C7.63399 6.42798 7.65181 6.41087 7.67385 6.40234V6.403ZM7.60941 6.76273C7.59248 6.76917 7.57374 6.76859 7.55723 6.7611C7.54071 6.75361 7.52775 6.73981 7.52112 6.72269C7.51792 6.71411 7.51641 6.70497 7.51669 6.6958C7.51696 6.68663 7.51902 6.67761 7.52273 6.66925C7.52645 6.66089 7.53175 6.65337 7.53833 6.6471C7.54491 6.64084 7.55264 6.63596 7.56108 6.63275C7.56954 6.62952 7.57854 6.62802 7.58758 6.62833C7.59661 6.62864 7.6055 6.63076 7.61372 6.63457C7.62195 6.63838 7.62936 6.64381 7.63553 6.65053C7.6417 6.65726 7.64651 6.66516 7.64969 6.67378C7.65286 6.6824 7.65434 6.69157 7.65403 6.70077C7.65372 6.70998 7.65164 6.71903 7.6479 6.72741C7.64416 6.73579 7.63884 6.74334 7.63223 6.74962C7.62563 6.75591 7.61787 6.76081 7.60941 6.76404V6.76273ZM7.98254 7.34237C7.98485 7.35085 7.98764 7.35917 7.99092 7.36731C7.98246 7.36088 7.97364 7.35496 7.9645 7.34959C7.87749 7.30704 7.77763 7.30068 7.6861 7.33186C7.57268 7.19139 7.5295 7.04172 7.56881 6.99774C7.58879 6.97476 7.64228 6.98264 7.70414 7.01808C7.76447 7.05373 7.8185 7.09944 7.86397 7.15331C7.9123 7.20988 7.95225 7.27336 7.98254 7.34171V7.34237ZM7.94645 7.09292C7.94645 7.1067 7.94645 7.12049 7.94645 7.13428C7.93808 7.12312 7.92905 7.11261 7.92068 7.10277C7.87264 7.046 7.81635 6.99708 7.75377 6.95769C7.70092 6.77914 7.72605 6.65967 7.76472 6.64522C7.78212 6.63866 7.80532 6.64522 7.82916 6.66754L7.84012 6.67673C7.89686 6.73267 7.942 6.79964 7.97288 6.87367C7.95272 6.94469 7.94295 7.01834 7.94388 7.09226L7.94645 7.09292ZM8.08888 7.30101C8.08212 7.31917 8.07673 7.33782 8.07276 7.35681C8.06586 7.34286 8.06004 7.32837 8.05537 7.31348C8.03285 7.24201 8.02176 7.16732 8.0225 7.09226C8.02176 7.02123 8.03221 6.95053 8.05343 6.88286C8.07728 6.81721 8.11272 6.77192 8.14236 6.77586C8.20101 6.78308 8.2661 6.92618 8.27125 7.10999C8.19003 7.14945 8.12534 7.2172 8.08888 7.30101ZM9.61363 5.97106C9.6407 5.89294 9.67808 5.84436 9.71545 5.84896C9.7857 5.85749 9.86368 6.03408 9.86432 6.25595C9.81029 6.27125 9.76023 6.29846 9.71768 6.33568C9.67514 6.37289 9.64115 6.41918 9.61814 6.47127C9.61765 6.46933 9.61765 6.4673 9.61814 6.46536C9.5922 6.3833 9.57937 6.29752 9.58012 6.21132C9.57806 6.12998 9.58894 6.04885 9.61234 5.97106H9.61363ZM9.44994 5.52796C9.46449 5.52234 9.48035 5.52126 9.49551 5.52483C9.51067 5.5284 9.52444 5.53647 9.5351 5.54803C9.54575 5.55958 9.55279 5.57409 9.55534 5.58973C9.5579 5.60536 9.55584 5.62141 9.54942 5.63585C9.54301 5.65029 9.53254 5.66247 9.51933 5.67085C9.50612 5.67922 9.49077 5.68341 9.47522 5.6829C9.45967 5.68238 9.44462 5.67717 9.43197 5.66794C9.41933 5.6587 9.40966 5.64586 9.40419 5.63102C9.39697 5.61132 9.39758 5.58954 9.40588 5.57029C9.41418 5.55105 9.42953 5.53586 9.44865 5.52796H9.44994ZM9.17928 5.41964C9.19815 5.41208 9.21881 5.41043 9.23861 5.4149C9.25841 5.41938 9.27645 5.42977 9.29041 5.44475C9.30437 5.45974 9.31363 5.47863 9.31698 5.499C9.32033 5.51938 9.31764 5.54031 9.30924 5.55911C9.30084 5.57792 9.28712 5.59374 9.26983 5.60455C9.25255 5.61536 9.23249 5.62066 9.21223 5.61978C9.19197 5.6189 9.17242 5.61188 9.1561 5.59961C9.13978 5.58735 9.12743 5.5704 9.12063 5.55093C9.1117 5.52574 9.11268 5.498 9.12337 5.47353C9.13406 5.44906 9.15363 5.42975 9.17799 5.41964H9.17928ZM9.28303 5.69732C9.29695 5.69499 9.31121 5.69616 9.32458 5.70073C9.33795 5.70531 9.35001 5.71316 9.35972 5.72358L9.37132 5.73342C9.43741 5.79692 9.48967 5.87385 9.5247 5.95924C9.50039 6.04095 9.48844 6.12595 9.48925 6.21132C9.48925 6.22707 9.48925 6.24282 9.48925 6.25924C9.47894 6.24611 9.46863 6.23429 9.45832 6.22248C9.40386 6.15733 9.33971 6.10129 9.26821 6.05639C9.20699 5.85158 9.23663 5.71439 9.28174 5.69732H9.28303ZM9.10194 5.83255C9.09229 5.83617 9.08204 5.83782 9.07177 5.8374C9.06149 5.83699 9.0514 5.83451 9.04207 5.83012C9.03273 5.82574 9.02434 5.81952 9.01736 5.81182C9.01038 5.80413 9.00496 5.79511 9.00141 5.78528C8.99786 5.77546 8.99624 5.76501 8.99664 5.75455C8.99705 5.74408 8.99948 5.7338 9.00379 5.72429C9.0081 5.71478 9.0142 5.70623 9.02175 5.69913C9.02931 5.69202 9.03816 5.6865 9.04781 5.68288C9.05746 5.67926 9.06771 5.67761 9.07798 5.67802C9.08826 5.67844 9.09835 5.68091 9.10769 5.6853C9.11702 5.68969 9.12542 5.69591 9.13239 5.7036C9.13937 5.7113 9.14479 5.72031 9.14834 5.73014C9.1519 5.73997 9.15352 5.75041 9.15311 5.76088C9.1527 5.77134 9.15027 5.78162 9.14596 5.79113C9.14165 5.80064 9.13555 5.80919 9.128 5.8163C9.12044 5.82341 9.11159 5.82893 9.10194 5.83255ZM9.20763 6.50803C9.06392 6.33998 9.00914 6.15552 9.05554 6.10103C9.07939 6.07478 9.13996 6.08462 9.2115 6.12598C9.28008 6.16755 9.34148 6.22033 9.39323 6.28221C9.44923 6.34649 9.4949 6.41938 9.52856 6.49818C9.53372 6.51262 9.53759 6.5251 9.5421 6.53822C9.53179 6.531 9.52019 6.52378 9.50859 6.51722C9.46162 6.49433 9.41047 6.48168 9.35842 6.4801C9.30637 6.47852 9.25457 6.48803 9.20634 6.50803H9.20763ZM11.1551 5.25159C11.1678 5.24691 11.1816 5.24614 11.1946 5.24939C11.2077 5.25264 11.2196 5.25977 11.2287 5.26987C11.2379 5.27996 11.2438 5.29259 11.2459 5.30615C11.248 5.31971 11.2462 5.3336 11.2405 5.34607C11.2349 5.35854 11.2258 5.36904 11.2143 5.37624C11.2028 5.38344 11.1895 5.38702 11.1761 5.38654C11.1626 5.38605 11.1496 5.38152 11.1386 5.37351C11.1277 5.3655 11.1193 5.35437 11.1145 5.34153C11.1083 5.32411 11.109 5.30489 11.1166 5.28804C11.1243 5.27119 11.1381 5.25809 11.1551 5.25159ZM10.9193 5.15707C10.9356 5.15084 10.9534 5.14967 10.9704 5.15372C10.9874 5.15777 11.0028 5.16686 11.0147 5.17983C11.0266 5.1928 11.0345 5.20908 11.0373 5.22661C11.0402 5.24414 11.0379 5.26214 11.0307 5.27833C11.0235 5.29452 11.0118 5.30818 10.997 5.31758C10.9822 5.32699 10.965 5.33172 10.9475 5.33118C10.9301 5.33064 10.9132 5.32484 10.899 5.31454C10.8848 5.30423 10.8739 5.28986 10.8677 5.27326C10.8597 5.25087 10.8606 5.22618 10.8703 5.20447C10.8799 5.18276 10.8975 5.16574 10.9193 5.15707ZM10.8548 5.5168C10.8464 5.52006 10.8374 5.5216 10.8284 5.52131C10.8194 5.52103 10.8106 5.51894 10.8024 5.51516C10.7942 5.51137 10.7868 5.50598 10.7806 5.49927C10.7745 5.49257 10.7697 5.48469 10.7665 5.4761C10.7618 5.46322 10.761 5.44921 10.764 5.43583C10.7671 5.42245 10.774 5.41031 10.7839 5.40092C10.7938 5.39154 10.8061 5.38534 10.8194 5.38311C10.8327 5.38087 10.8464 5.3827 10.8587 5.38837C10.871 5.39404 10.8814 5.40328 10.8885 5.41495C10.8956 5.42661 10.8992 5.44016 10.8988 5.4539C10.8984 5.46764 10.894 5.48094 10.8862 5.49214C10.8783 5.50333 10.8674 5.51191 10.8548 5.5168ZM11.2267 6.09709C11.2329 6.11158 11.238 6.12649 11.2421 6.14173C11.2268 6.1301 11.2106 6.11957 11.1938 6.11022C11.1118 6.07181 11.0191 6.06436 10.9322 6.08922C10.8175 5.94808 10.7736 5.7971 10.8129 5.7518C10.8336 5.72883 10.8871 5.73736 10.9489 5.77281C11.009 5.80877 11.0628 5.85469 11.1081 5.9087C11.1571 5.96476 11.1971 6.02834 11.2267 6.09709ZM11.1899 5.88835L11.1635 5.85684C11.1158 5.80046 11.0599 5.75177 10.9979 5.71242C10.9727 5.63623 10.9635 5.55549 10.9708 5.47544C10.9712 5.47042 10.9712 5.46537 10.9708 5.46034C10.9773 5.42752 10.9895 5.40586 11.0069 5.39929C11.0456 5.3842 11.1416 5.45641 11.2177 5.62708C11.1963 5.69832 11.1858 5.7725 11.1867 5.84699C11.1887 5.86077 11.1893 5.87522 11.1899 5.88835ZM11.3188 6.0623C11.3156 6.07215 11.313 6.08265 11.3098 6.0925C11.3098 6.08462 11.304 6.0774 11.3014 6.06887C11.2784 5.99726 11.2669 5.92234 11.2673 5.84699C11.2667 5.77613 11.2774 5.70565 11.2989 5.63824C11.3227 5.5726 11.3569 5.5273 11.3878 5.53058C11.4458 5.53846 11.5096 5.6796 11.5167 5.85881C11.426 5.8969 11.3539 5.97009 11.3163 6.0623H11.3188Z" fill="#231815"/>
<path d="M17.8715 7.09883L17.6866 7.60626L22.3749 9.47122L22.826 9.05109L17.8715 7.09883ZM18.293 7.6102C18.289 7.62152 18.2828 7.6319 18.2748 7.64075C18.2668 7.64961 18.2572 7.65675 18.2464 7.66176C18.2357 7.66677 18.2241 7.66955 18.2123 7.66994C18.2005 7.67033 18.1887 7.66832 18.1777 7.66403C18.1557 7.65455 18.1382 7.63691 18.1286 7.61471C18.119 7.59251 18.1181 7.56741 18.1261 7.54456C18.1441 7.49664 18.2692 7.41327 18.2692 7.41327C18.2692 7.41327 18.3104 7.56228 18.293 7.6102ZM18.6726 7.76118C18.6686 7.77242 18.6624 7.78274 18.6544 7.79153C18.6465 7.80033 18.6369 7.80744 18.6262 7.81244C18.6156 7.81745 18.604 7.82025 18.5923 7.82069C18.5806 7.82113 18.5689 7.8192 18.5579 7.81501C18.5355 7.80594 18.5175 7.78823 18.5079 7.76574C18.4982 7.74325 18.4977 7.71779 18.5063 7.69488C18.5231 7.64696 18.6494 7.56359 18.6494 7.56359C18.6494 7.56359 18.69 7.71326 18.6726 7.76118ZM19.0515 7.91217C19.0476 7.92346 19.0414 7.93383 19.0335 7.94268C19.0256 7.95152 19.016 7.95866 19.0053 7.96368C18.9946 7.96869 18.983 7.97148 18.9713 7.97188C18.9595 7.97228 18.9478 7.97027 18.9368 7.96599C18.9145 7.95665 18.8966 7.9388 18.887 7.91625C18.8774 7.8937 18.8767 7.86822 18.8853 7.84521C18.9027 7.79794 19.0277 7.71392 19.0277 7.71392C19.0277 7.71392 19.0689 7.86359 19.0515 7.91217ZM19.4311 8.06315C19.4271 8.07438 19.4209 8.08468 19.4129 8.09346C19.405 8.10224 19.3954 8.10931 19.3847 8.11426C19.374 8.11921 19.3625 8.12194 19.3507 8.12229C19.339 8.12265 19.3273 8.12062 19.3164 8.11632C19.294 8.10737 19.276 8.08982 19.2663 8.06747C19.2565 8.04512 19.2558 8.01975 19.2642 7.99685C19.2822 7.94827 19.4066 7.86556 19.4066 7.86556C19.4066 7.86556 19.4485 8.01523 19.4311 8.06315ZM19.8107 8.21413C19.8023 8.23692 19.7854 8.25539 19.7636 8.26548C19.7419 8.27557 19.7171 8.27646 19.6947 8.26796C19.6725 8.25862 19.6548 8.24085 19.6453 8.21842C19.6358 8.19599 19.6352 8.17066 19.6438 8.14783C19.6605 8.09991 19.7868 8.01654 19.7868 8.01654C19.8063 8.08043 19.8144 8.14734 19.8107 8.21413ZM20.189 8.36445C20.185 8.37575 20.1789 8.38613 20.171 8.395C20.163 8.40387 20.1535 8.41105 20.1428 8.41612C20.1321 8.42118 20.1206 8.42404 20.1088 8.42453C20.097 8.42501 20.0853 8.42311 20.0743 8.41894C20.0519 8.4096 20.0341 8.39172 20.0246 8.36914C20.0151 8.34655 20.0146 8.32107 20.0233 8.29815C20.0401 8.25023 20.1651 8.16687 20.1651 8.16687C20.1651 8.16687 20.2044 8.31719 20.189 8.36445ZM20.5685 8.51412C20.5647 8.52555 20.5586 8.53607 20.5506 8.54504C20.5427 8.55401 20.533 8.56126 20.5222 8.56634C20.5115 8.57143 20.4998 8.57425 20.4879 8.57464C20.4761 8.57503 20.4643 8.57298 20.4532 8.56861C20.431 8.55927 20.4133 8.5415 20.4038 8.51907C20.3943 8.49664 20.3937 8.47131 20.4023 8.44848C20.4197 8.40056 20.5453 8.31719 20.5453 8.31719C20.5453 8.31719 20.5866 8.46752 20.5685 8.51412ZM20.9481 8.66576C20.9441 8.67708 20.9379 8.68746 20.9299 8.69632C20.9219 8.70517 20.9123 8.71231 20.9015 8.71732C20.8908 8.72233 20.8792 8.72511 20.8674 8.7255C20.8556 8.72589 20.8438 8.72388 20.8328 8.71959C20.8106 8.71024 20.7928 8.69251 20.7832 8.67011C20.7736 8.64771 20.7729 8.62239 20.7812 8.59946C20.7986 8.55154 20.9243 8.46817 20.9243 8.46817C20.9438 8.53226 20.9519 8.59941 20.9481 8.66642V8.66576ZM21.3271 8.81674C21.3231 8.82803 21.317 8.8384 21.309 8.84722C21.3011 8.85605 21.2915 8.86315 21.2808 8.86811C21.2701 8.87307 21.2585 8.87579 21.2467 8.8761C21.235 8.87641 21.2233 8.87431 21.2123 8.86992C21.1901 8.86084 21.1723 8.84324 21.1626 8.8209C21.153 8.79857 21.1523 8.77327 21.1608 8.75044C21.1782 8.70252 21.3032 8.61915 21.3032 8.61915C21.3032 8.61915 21.3445 8.76882 21.3271 8.8174V8.81674ZM21.7066 8.96707C21.7027 8.97844 21.6965 8.9889 21.6886 8.99782C21.6806 9.00674 21.6709 9.01395 21.6602 9.01903C21.6495 9.0241 21.6378 9.02694 21.626 9.02738C21.6142 9.02781 21.6023 9.02583 21.5913 9.02156C21.5691 9.01221 21.5513 8.99447 21.5417 8.97207C21.5321 8.94967 21.5314 8.92435 21.5397 8.90143C21.5571 8.85285 21.6828 8.77014 21.6828 8.77014C21.6828 8.77014 21.724 8.92046 21.7066 8.96773V8.96707ZM22.0856 9.11805C22.0816 9.12942 22.0755 9.13987 22.0675 9.14877C22.0595 9.15767 22.0498 9.16484 22.0391 9.16987C22.0283 9.17489 22.0167 9.17765 22.0048 9.178C21.993 9.17835 21.9812 9.17626 21.9702 9.17188C21.948 9.16253 21.9303 9.1448 21.9207 9.1224C21.911 9.1 21.9103 9.07468 21.9187 9.05175C21.9361 9.00449 22.0624 8.92046 22.0624 8.92046C22.0624 8.92046 22.103 9.07079 22.0856 9.11871V9.11805Z" fill="#231815"/>
<path d="M23.0406 8.85219L17.9695 6.82115L17.9083 6.99314L22.8937 8.98938L23.0406 8.85219Z" fill="#231815"/>
<path d="M24.4513 8.49377C24.4477 8.48822 24.4447 8.48228 24.4423 8.47605C24.442 8.47058 24.442 8.4651 24.4423 8.45964C24.4588 8.45179 24.4747 8.4428 24.49 8.43272C24.4858 8.44393 24.4858 8.4563 24.49 8.46752C24.4933 8.47003 24.497 8.47182 24.501 8.47277C24.4871 8.48212 24.4724 8.49024 24.4571 8.49706C24.4571 8.49706 24.4513 8.49509 24.4513 8.49377Z" fill="#231815"/>
<path d="M23.7489 8.82921C23.739 8.85571 23.7371 8.88459 23.7434 8.9122C23.7496 8.93981 23.7638 8.9649 23.7841 8.98429C23.8044 9.00368 23.8299 9.0165 23.8573 9.02112C23.8848 9.02575 23.9129 9.02197 23.9383 9.01026C23.9636 8.99856 23.985 8.97945 23.9996 8.95537C24.0143 8.93129 24.0216 8.90332 24.0206 8.875C24.0197 8.84668 24.0105 8.81929 23.9942 8.7963C23.978 8.7733 23.9554 8.75574 23.9293 8.74585C23.8945 8.73281 23.8561 8.73425 23.8223 8.74985C23.7885 8.76545 23.7622 8.79396 23.7489 8.82921Z" fill="#231815"/>
<path d="M22.4432 8.15112C22.4336 8.17763 22.4318 8.20646 22.4382 8.23399C22.4446 8.26151 22.4588 8.28649 22.4792 8.30577C22.4995 8.32505 22.5249 8.33776 22.5524 8.3423C22.5798 8.34684 22.6079 8.34301 22.6331 8.33128C22.6584 8.31956 22.6797 8.30047 22.6943 8.27642C22.709 8.25238 22.7163 8.22446 22.7153 8.19619C22.7144 8.16793 22.7052 8.14058 22.689 8.1176C22.6728 8.09462 22.6503 8.07705 22.6243 8.0671C22.607 8.06038 22.5886 8.05723 22.5701 8.05783C22.5516 8.05842 22.5334 8.06275 22.5166 8.07057C22.4997 8.07839 22.4846 8.08953 22.472 8.10336C22.4594 8.11719 22.4496 8.13342 22.4432 8.15112Z" fill="#231815"/>
<path d="M20.9133 7.51962C20.9076 7.55239 20.9132 7.58619 20.9293 7.61517C20.9454 7.64416 20.9709 7.66653 21.0014 7.67843C21.032 7.69032 21.0656 7.691 21.0966 7.68034C21.1275 7.66969 21.1539 7.64837 21.1711 7.62005C21.1768 7.58727 21.1712 7.55348 21.1551 7.52449C21.139 7.4955 21.1135 7.47314 21.083 7.46124C21.0525 7.44935 21.0188 7.44867 20.9878 7.45932C20.9569 7.46998 20.9305 7.4913 20.9133 7.51962Z" fill="#231815"/>
<path d="M19.308 6.95442C19.3015 6.97204 19.2985 6.9908 19.2991 7.00962C19.2998 7.02844 19.304 7.04695 19.3117 7.06409C19.3193 7.08122 19.3303 7.09665 19.3438 7.10949C19.3573 7.12232 19.3732 7.13231 19.3905 7.13888C19.4239 7.14729 19.4591 7.14295 19.4896 7.12666C19.52 7.11038 19.5435 7.0833 19.5557 7.05054C19.5678 7.01778 19.5678 6.98161 19.5555 6.9489C19.5432 6.91618 19.5196 6.88918 19.4891 6.87302C19.4545 6.85968 19.4161 6.86073 19.3822 6.87596C19.3483 6.89119 19.3217 6.91936 19.308 6.95442Z" fill="#231815"/>
<path d="M18.2021 6.01965C18.1222 6.33146 18.3207 6.63342 18.5205 6.71088C18.835 6.83167 19.0032 6.80082 19.1688 6.74239C19.3159 6.68844 19.4573 6.61961 19.5909 6.53693C19.598 6.58188 19.6099 6.62591 19.6264 6.66821C19.7675 7.01416 20.1419 7.13495 20.3249 7.20584C20.5314 7.27741 20.7563 7.27089 20.9584 7.18746C21.0707 7.14175 21.1725 7.07292 21.2575 6.98528C21.2648 7.1081 21.2969 7.22807 21.3515 7.33779C21.4494 7.53637 21.6141 7.69248 21.8155 7.7776C22.0011 7.84916 22.3588 8.00867 22.6894 7.84325C22.7292 7.82263 22.7666 7.79753 22.8009 7.76841C22.7919 7.88768 22.8021 8.00765 22.8312 8.12355C22.866 8.266 23.0593 8.46162 23.3351 8.56796C23.542 8.64673 23.6187 8.62704 23.8249 8.6126C23.9403 8.60341 24.0324 8.58569 24.1194 8.58175C24.3353 8.57256 24.5061 8.62113 24.5409 8.75308C24.577 8.97299 24.2747 9.12922 23.93 9.15351C24.4784 9.27955 24.9218 9.06555 24.8644 8.6835V8.67102C24.8511 8.62687 24.8289 8.58597 24.7995 8.55086C24.77 8.51574 24.7337 8.48716 24.693 8.46687C24.6954 8.46549 24.6978 8.46395 24.7001 8.46227C24.7466 8.43214 24.7866 8.39286 24.818 8.34674C24.8247 8.33644 24.8307 8.32569 24.8361 8.31457C24.8361 8.30932 24.8406 8.30407 24.8425 8.29948C24.8442 8.29459 24.8452 8.28952 24.8457 8.28438C24.8487 8.27399 24.8495 8.26311 24.8482 8.25238C24.8468 8.24166 24.8434 8.23133 24.838 8.22202C24.8318 8.21179 24.8233 8.2032 24.8132 8.19693C24.8031 8.19066 24.7918 8.18688 24.78 8.18591H24.7735H24.7626C24.7577 8.18533 24.7527 8.18533 24.7478 8.18591H24.7394C24.7301 8.18709 24.7208 8.18884 24.7117 8.19116C24.6923 8.19635 24.6735 8.20362 24.6556 8.21283C24.6491 8.20531 24.6412 8.19918 24.6323 8.19479C24.6235 8.19039 24.6139 8.18782 24.6041 8.18722H24.5983H24.5628L24.537 8.19313C24.489 8.20695 24.4436 8.22916 24.403 8.25878C24.4436 8.17935 24.4603 8.09795 24.4204 8.05265C24.4067 8.03909 24.3893 8.02998 24.3705 8.02647C24.3517 8.02297 24.3323 8.02522 24.3147 8.03296C24.3411 7.91217 24.3224 7.81896 24.2644 7.79664C24.2064 7.77432 24.1304 7.83209 24.0711 7.9404C24.063 7.9227 24.0499 7.90786 24.0335 7.8978C24.0171 7.88774 23.9981 7.88292 23.9789 7.88395C23.8907 7.89511 23.8436 8.04543 23.8436 8.18197C23.8436 8.20298 23.8436 8.22267 23.8468 8.24302C23.8333 8.35134 23.7618 8.43011 23.6097 8.43996C23.5374 8.43483 23.4663 8.41844 23.3989 8.39138C23.1553 8.28372 23.0967 8.20298 23.0729 7.99751C23.0642 7.92934 23.0747 7.86005 23.1032 7.79775C23.1318 7.73545 23.1771 7.6827 23.234 7.64566C23.33 7.59577 23.5079 7.59708 23.5723 7.74084C23.5933 7.66516 23.5866 7.58428 23.5534 7.51327C23.5202 7.44226 23.4628 7.38596 23.3919 7.35485C23.5027 7.21044 23.5717 7.02663 23.493 6.93736C23.4731 6.91744 23.4478 6.90404 23.4204 6.89889C23.3929 6.89374 23.3646 6.89708 23.339 6.90847C23.3453 6.87972 23.3496 6.85054 23.3519 6.82117L23.368 6.82839C23.387 6.83668 23.4075 6.84076 23.4282 6.84036C23.4488 6.83996 23.4691 6.83509 23.4878 6.82607C23.5065 6.81706 23.523 6.8041 23.5364 6.78806C23.5498 6.77202 23.5597 6.75327 23.5654 6.73305C23.5711 6.71283 23.5725 6.6916 23.5695 6.67077C23.5666 6.64995 23.5593 6.63 23.5482 6.61226C23.5371 6.59452 23.5224 6.57939 23.5051 6.56787C23.4878 6.55635 23.4683 6.54871 23.4479 6.54546C23.4482 6.54328 23.4482 6.54107 23.4479 6.53889C23.4556 6.51821 23.4592 6.49618 23.4585 6.47408C23.4578 6.45198 23.4528 6.43024 23.4439 6.41009C23.4349 6.38995 23.4222 6.37179 23.4063 6.35667C23.3905 6.34154 23.3719 6.32974 23.3516 6.32194C23.3313 6.31414 23.3096 6.31049 23.288 6.3112C23.2663 6.31191 23.2449 6.31696 23.2251 6.32608C23.2054 6.33519 23.1875 6.34818 23.1727 6.36431C23.1578 6.38044 23.1462 6.39939 23.1386 6.42008C23.1386 6.42008 23.1386 6.42467 23.1386 6.42664C23.1317 6.42284 23.1246 6.41955 23.1173 6.4168C23.0993 6.40911 23.08 6.4052 23.0605 6.4053C23.041 6.4054 23.0217 6.40951 23.0038 6.41738C22.9859 6.42525 22.9697 6.43672 22.9563 6.45111C22.9428 6.46549 22.9323 6.4825 22.9255 6.5011C22.9186 6.5197 22.9155 6.53952 22.9164 6.55938C22.9172 6.57923 22.922 6.5987 22.9304 6.61664C22.9388 6.63457 22.9507 6.65059 22.9653 6.66374C22.9799 6.67688 22.997 6.68689 23.0155 6.69316C23.0203 6.69577 23.0256 6.69713 23.031 6.6971C23.0155 6.72073 22.9994 6.74567 22.9846 6.77259C22.9723 6.74698 22.953 6.72557 22.9289 6.711C22.9049 6.69642 22.8772 6.68931 22.8492 6.69053C22.7332 6.70563 22.6662 6.88747 22.6559 7.07127C22.5811 7.04339 22.4988 7.04473 22.4249 7.07504C22.351 7.10534 22.2907 7.16247 22.2557 7.23538C22.3962 7.16974 22.5302 7.28855 22.5708 7.39161C22.6114 7.49468 22.5148 7.62006 22.42 7.66338C22.2364 7.74872 21.9844 7.65222 21.8793 7.59774C21.8029 7.56233 21.7353 7.50984 21.6815 7.44415C21.6277 7.37846 21.5892 7.30127 21.5687 7.21831C21.5378 7.04042 21.5887 6.86843 21.686 6.81001C21.7833 6.75158 21.9605 6.76143 22.0243 6.90519C22.044 6.83594 22.0402 6.76194 22.0134 6.69521C21.9866 6.62848 21.9385 6.57293 21.8768 6.53758C22.0147 6.36822 22.1081 6.14372 22.0134 6.03146C21.9902 6.00901 21.9611 5.99395 21.9296 5.98812C21.8981 5.98229 21.8656 5.98594 21.8362 5.99864C21.8433 5.96551 21.8485 5.93197 21.8516 5.89821L21.8697 5.90674C21.9103 5.91956 21.9543 5.91609 21.9925 5.89702C22.0307 5.87796 22.0603 5.84474 22.0753 5.80417C22.0903 5.7636 22.0895 5.71873 22.073 5.67874C22.0566 5.63875 22.0258 5.60666 21.987 5.58902C21.9788 5.58591 21.9704 5.58371 21.9618 5.58246C21.9625 5.57989 21.9636 5.57745 21.9651 5.57524C21.9739 5.55153 21.978 5.52629 21.9772 5.50096C21.9764 5.47562 21.9708 5.45069 21.9605 5.42759C21.9503 5.40449 21.9357 5.38367 21.9176 5.36631C21.8994 5.34896 21.8781 5.33541 21.8549 5.32644C21.8316 5.31748 21.8068 5.31327 21.7819 5.31406C21.7571 5.31485 21.7326 5.32062 21.7099 5.33104C21.6872 5.34147 21.6668 5.35634 21.6498 5.37481C21.6327 5.39328 21.6194 5.41499 21.6106 5.4387C21.6103 5.44131 21.6103 5.44395 21.6106 5.44657L21.5874 5.43476C21.5667 5.42563 21.5444 5.42089 21.5218 5.4208C21.4992 5.42072 21.4769 5.4253 21.4561 5.43427C21.4353 5.44324 21.4165 5.45641 21.4009 5.47298C21.3852 5.48955 21.3731 5.50919 21.3651 5.53069C21.3571 5.5522 21.3535 5.57513 21.3544 5.5981C21.3554 5.62107 21.3609 5.64361 21.3707 5.66434C21.3805 5.68507 21.3942 5.70357 21.4112 5.71872C21.4282 5.73387 21.448 5.74535 21.4695 5.75248L21.4869 5.75707C21.4676 5.78462 21.4499 5.81334 21.434 5.84306C21.4186 5.81433 21.3953 5.79085 21.3668 5.77556C21.3384 5.76027 21.3062 5.75384 21.2742 5.75707C21.1318 5.77479 21.0532 6.01308 21.0493 6.23496C20.9837 6.22639 20.9172 6.23926 20.8593 6.27171C20.8014 6.30415 20.7551 6.3545 20.7271 6.41548C20.8689 6.34984 21.0029 6.46866 21.0435 6.57172C21.0841 6.67478 21.0048 6.84348 20.8669 6.95705C20.7977 7.0056 20.7187 7.03766 20.6357 7.05084C20.5527 7.06402 20.4679 7.05799 20.3875 7.0332C20.2747 7.00169 20.0233 6.90191 19.9402 6.71745C19.897 6.62095 19.9067 6.46931 20.0047 6.41154C20.1026 6.35378 20.2792 6.36297 20.343 6.50607C20.3644 6.42769 20.3565 6.34399 20.3208 6.27121C20.2851 6.19844 20.2241 6.14177 20.1497 6.11221C20.2592 5.96779 20.3275 5.78398 20.2495 5.69536C20.2296 5.67569 20.2044 5.66249 20.1771 5.65747C20.1498 5.65244 20.1216 5.65581 20.0962 5.66714C20.1022 5.63789 20.1065 5.6083 20.1091 5.57852C20.1133 5.58182 20.1181 5.58427 20.1232 5.58574C20.142 5.59342 20.1622 5.59702 20.1824 5.59628C20.2027 5.59555 20.2225 5.5905 20.2407 5.58147C20.2589 5.57245 20.2751 5.55963 20.2881 5.54386C20.3012 5.52809 20.3108 5.50971 20.3165 5.4899C20.3222 5.4701 20.3237 5.4493 20.321 5.42887C20.3182 5.40843 20.3113 5.38879 20.3007 5.37123C20.2901 5.35366 20.276 5.33856 20.2593 5.32689C20.2426 5.31522 20.2237 5.30724 20.2038 5.30347C20.205 5.30156 20.2061 5.29959 20.207 5.29756C20.2151 5.27674 20.219 5.25448 20.2186 5.2321C20.2181 5.20971 20.2133 5.18763 20.2044 5.16716C20.1955 5.14669 20.1827 5.12823 20.1667 5.11285C20.1507 5.09748 20.1319 5.0855 20.1113 5.07761C20.0908 5.06973 20.0688 5.06609 20.0469 5.06692C20.0249 5.06775 20.0033 5.07302 19.9834 5.08243C19.9634 5.09185 19.9455 5.10521 19.9307 5.12175C19.9159 5.13828 19.9044 5.15766 19.897 5.17874C19.897 5.17874 19.897 5.18268 19.897 5.18596C19.8904 5.18135 19.8833 5.1776 19.8758 5.1748C19.8579 5.16799 19.8389 5.16483 19.8199 5.1655C19.8008 5.16617 19.7821 5.17066 19.7647 5.1787C19.7474 5.18675 19.7317 5.1982 19.7187 5.2124C19.7057 5.2266 19.6956 5.24327 19.6889 5.26146C19.6822 5.27964 19.6791 5.299 19.6797 5.31841C19.6804 5.33782 19.6848 5.35691 19.6927 5.37459C19.7006 5.39226 19.7118 5.40818 19.7258 5.42144C19.7397 5.43469 19.7561 5.44501 19.7739 5.45182L19.7901 5.45642C19.7746 5.47874 19.7591 5.50368 19.7437 5.53125C19.7317 5.50553 19.7125 5.484 19.6885 5.4694C19.6646 5.45479 19.6369 5.44776 19.609 5.4492C19.4923 5.4643 19.4253 5.64613 19.4156 5.83059C19.342 5.80691 19.2624 5.81099 19.1914 5.84208C19.1204 5.87317 19.0628 5.9292 19.029 5.99995C19.1695 5.93431 19.3041 6.05313 19.3441 6.15553C19.3841 6.25794 19.3679 6.39907 19.261 6.46078C19.1359 6.54562 18.9891 6.59127 18.8389 6.59207C18.6977 6.57981 18.5625 6.52876 18.4477 6.44437C18.2647 6.27304 18.2067 6.09908 18.2021 6.01965ZM24.5821 8.41764C24.6039 8.3977 24.6237 8.37572 24.6414 8.35199C24.6481 8.34177 24.6539 8.33101 24.6588 8.31983C24.6605 8.31458 24.6626 8.30952 24.6653 8.30473C24.6664 8.2998 24.6679 8.29497 24.6698 8.29029C24.6707 8.28112 24.6707 8.27188 24.6698 8.26272C24.6933 8.2521 24.718 8.24439 24.7433 8.23974H24.7516H24.7665H24.7735H24.78H24.7851L24.7903 8.24368C24.7903 8.24368 24.7903 8.24368 24.7903 8.24893C24.7907 8.2511 24.7907 8.25332 24.7903 8.25549C24.7907 8.25723 24.7907 8.25902 24.7903 8.26075V8.26534C24.79 8.26664 24.79 8.26798 24.7903 8.26928V8.27584C24.7903 8.27584 24.7903 8.27584 24.7903 8.27978C24.7907 8.28195 24.7907 8.28418 24.7903 8.28635C24.7901 8.28831 24.7901 8.29029 24.7903 8.29226C24.7901 8.29378 24.7901 8.29533 24.7903 8.29685L24.7858 8.30538C24.757 8.35013 24.7192 8.38816 24.6749 8.41698C24.6655 8.42361 24.6556 8.42954 24.6453 8.4347C24.6242 8.42704 24.6027 8.42046 24.5809 8.41501L24.5821 8.41764ZM24.3437 8.38022C24.3648 8.35362 24.3893 8.33 24.4165 8.30998C24.461 8.27398 24.513 8.24903 24.5686 8.23711H24.6028H24.6092H24.6124C24.6124 8.23711 24.6124 8.23711 24.6169 8.23711C24.619 8.23783 24.6208 8.23921 24.6221 8.24105C24.6221 8.24105 24.6221 8.24499 24.6221 8.2463C24.6224 8.24804 24.6224 8.24982 24.6221 8.25156V8.25484C24.6224 8.25658 24.6224 8.25835 24.6221 8.26009V8.26403C24.6221 8.26403 24.6221 8.26731 24.6221 8.26862C24.6224 8.27014 24.6224 8.2717 24.6221 8.27322V8.27781V8.28372C24.6221 8.28372 24.6221 8.28766 24.6221 8.29029C24.6223 8.29159 24.6223 8.29292 24.6221 8.29422C24.6209 8.29755 24.6191 8.30066 24.6169 8.30341C24.5963 8.33643 24.5704 8.36571 24.5403 8.39007C24.4787 8.37454 24.4155 8.36682 24.3521 8.36709L24.3437 8.38022ZM24.0975 8.32902C24.1172 8.28256 24.1439 8.23957 24.1768 8.20167C24.2079 8.16476 24.245 8.13347 24.2863 8.10911C24.3282 8.08482 24.365 8.07957 24.3791 8.09532C24.4056 8.12552 24.3759 8.22661 24.2992 8.32442L24.0975 8.32902ZM24.1194 8.15965C24.1199 8.10878 24.113 8.05812 24.0988 8.00933C24.1465 7.90167 24.2122 7.84062 24.2438 7.85244C24.2754 7.86425 24.2876 7.945 24.2509 8.06775C24.2079 8.09377 24.169 8.12631 24.1355 8.16425L24.1181 8.18525L24.1194 8.15965ZM23.8958 8.18788C23.8958 8.05659 23.9429 7.94828 23.9847 7.94368C24.0054 7.93975 24.0292 7.96994 24.0453 8.01655C24.0604 8.06269 24.0678 8.11105 24.0672 8.15965C24.0676 8.21131 24.06 8.26271 24.0447 8.31195C24.0447 8.31851 24.0395 8.32376 24.0376 8.32967H23.9383L23.9087 8.29488C23.8996 8.2593 23.8948 8.22269 23.8945 8.18591L23.8958 8.18788ZM23.1302 6.58681C23.1255 6.59966 23.1171 6.61079 23.1061 6.6188C23.0952 6.62681 23.0822 6.63134 23.0687 6.63182C23.0552 6.63231 23.0419 6.62872 23.0305 6.62152C23.019 6.61432 23.0099 6.60383 23.0042 6.59135C22.9986 6.57888 22.9967 6.56499 22.9988 6.55143C23.0009 6.53788 23.0069 6.52525 23.016 6.51515C23.0252 6.50505 23.037 6.49793 23.0501 6.49468C23.0632 6.49143 23.0769 6.4922 23.0896 6.49688C23.1066 6.50352 23.1203 6.51664 23.1279 6.53344C23.1355 6.55024 23.1363 6.56939 23.1302 6.58681ZM23.377 6.52117C23.373 6.53224 23.3669 6.54239 23.359 6.55104C23.3511 6.55968 23.3416 6.56665 23.3311 6.57153C23.3205 6.57642 23.3091 6.57912 23.2976 6.57949C23.286 6.57986 23.2744 6.57789 23.2636 6.57369C23.2472 6.56747 23.233 6.55644 23.2228 6.542C23.2126 6.52756 23.2068 6.51035 23.2062 6.49256C23.2056 6.47477 23.2102 6.45719 23.2194 6.44205C23.2286 6.42692 23.242 6.41491 23.2579 6.40754C23.2738 6.40017 23.2915 6.39778 23.3088 6.40067C23.326 6.40356 23.342 6.4116 23.3548 6.42377C23.3675 6.43593 23.3765 6.45169 23.3804 6.46903C23.3844 6.48637 23.3832 6.50451 23.377 6.52117ZM23.3532 6.67478C23.358 6.66193 23.3664 6.65082 23.3774 6.64285C23.3884 6.63487 23.4015 6.63039 23.4149 6.62997C23.4284 6.62955 23.4417 6.63321 23.4532 6.64048C23.4646 6.64775 23.4737 6.65831 23.4793 6.67083C23.4848 6.68335 23.4866 6.69727 23.4844 6.71083C23.4822 6.72439 23.4762 6.73699 23.4669 6.74703C23.4577 6.75707 23.4458 6.76411 23.4327 6.76726C23.4195 6.7704 23.4058 6.76952 23.3931 6.76471C23.3844 6.76153 23.3764 6.75656 23.3696 6.75011C23.3628 6.74366 23.3573 6.73586 23.3536 6.7272C23.3499 6.71853 23.3479 6.70918 23.3478 6.69972C23.3478 6.69025 23.3496 6.68087 23.3532 6.67215V6.67478ZM23.0194 7.34435C23.0494 7.27571 23.0896 7.21217 23.1386 7.15595C23.1836 7.10117 23.2374 7.05456 23.2978 7.0181C23.3622 6.98265 23.4125 6.97477 23.4325 6.99775C23.4724 7.04173 23.4286 7.19468 23.3158 7.33188C23.2241 7.30072 23.124 7.30708 23.0368 7.3496C23.0277 7.35485 23.0194 7.36142 23.011 7.36733C23.0142 7.35945 23.0155 7.35157 23.0187 7.34238L23.0194 7.34435ZM23.0252 6.87434C23.0554 6.80011 23.1004 6.73306 23.1573 6.6774C23.1614 6.67471 23.1653 6.67163 23.1689 6.66821C23.1771 6.65956 23.1873 6.65303 23.1985 6.64915C23.2097 6.64527 23.2216 6.64415 23.2333 6.6459C23.2726 6.66034 23.2978 6.77718 23.2443 6.95836C23.1818 6.9976 23.1257 7.04655 23.078 7.10344C23.069 7.11328 23.0606 7.12379 23.0522 7.13495V7.09359C23.0537 7.01913 23.0445 6.94484 23.0252 6.87302V6.87434ZM22.7294 7.11263C22.7352 6.92882 22.8003 6.7844 22.8583 6.7785C22.8879 6.77456 22.9227 6.81723 22.9459 6.8855C22.9682 6.95294 22.9791 7.02375 22.9781 7.0949C22.9785 7.16993 22.9674 7.24457 22.9453 7.31612C22.9403 7.3309 22.9345 7.34537 22.9279 7.35945C22.9234 7.34053 22.9178 7.32189 22.9111 7.30365C22.8756 7.21877 22.811 7.14994 22.7294 7.11V7.11263ZM21.4231 6.21133C21.4237 6.29748 21.4111 6.3832 21.3857 6.46537C21.3855 6.46733 21.3855 6.46932 21.3857 6.47128C21.3624 6.41937 21.3284 6.37323 21.2859 6.33605C21.2434 6.29887 21.1934 6.27155 21.1395 6.25597C21.1395 6.03409 21.2181 5.85751 21.2877 5.84897C21.3225 5.84438 21.3625 5.89295 21.3889 5.97107C21.4136 6.0486 21.4252 6.12985 21.4231 6.21133ZM21.5971 5.63103C21.5916 5.64587 21.5819 5.65872 21.5693 5.66795C21.5566 5.67719 21.5416 5.68239 21.526 5.68291C21.5105 5.68343 21.4951 5.67923 21.4819 5.67086C21.4687 5.66249 21.4583 5.65031 21.4518 5.63587C21.4454 5.62143 21.4434 5.60537 21.4459 5.58974C21.4485 5.5741 21.4555 5.55959 21.4662 5.54804C21.4768 5.53649 21.4906 5.52842 21.5058 5.52484C21.5209 5.52127 21.5368 5.52236 21.5513 5.52797C21.5707 5.53562 21.5863 5.5507 21.5949 5.56998C21.6034 5.58925 21.6042 5.61117 21.5971 5.63103ZM21.88 5.55292C21.8753 5.56559 21.8682 5.57719 21.8591 5.58707C21.85 5.59695 21.8391 5.6049 21.827 5.61048C21.8148 5.61606 21.8018 5.61915 21.7885 5.61958C21.7752 5.62001 21.7619 5.61777 21.7495 5.61298C21.7371 5.6082 21.7257 5.60096 21.716 5.59169C21.7063 5.58242 21.6985 5.5713 21.693 5.55896C21.6875 5.54661 21.6845 5.53329 21.684 5.51975C21.6836 5.50621 21.6858 5.49272 21.6905 5.48005C21.7 5.45446 21.7191 5.43375 21.7436 5.42249C21.768 5.41122 21.7959 5.41032 21.821 5.41999C21.8461 5.42965 21.8665 5.44908 21.8775 5.47401C21.8886 5.49894 21.8895 5.52732 21.88 5.55292ZM21.7305 6.05641C21.6592 6.10166 21.5951 6.15765 21.5404 6.22249C21.5298 6.23415 21.5199 6.24642 21.5107 6.25925C21.5107 6.24284 21.5107 6.22708 21.5107 6.21133C21.5114 6.12601 21.4997 6.04106 21.4759 5.95926C21.5103 5.87367 21.5624 5.79664 21.6287 5.73344C21.6329 5.73068 21.6368 5.72737 21.6403 5.72359C21.6712 5.6993 21.6983 5.69011 21.7176 5.69733C21.7633 5.7144 21.7917 5.8516 21.7305 6.05641ZM21.8529 5.72819C21.8583 5.71327 21.8679 5.70033 21.8805 5.69099C21.8931 5.68165 21.9082 5.67635 21.9238 5.67575C21.9394 5.67515 21.9548 5.67928 21.968 5.68763C21.9813 5.69597 21.9918 5.70815 21.9983 5.7226C22.0048 5.73706 22.0068 5.75315 22.0043 5.76882C22.0018 5.78449 21.9947 5.79904 21.984 5.81062C21.9734 5.82219 21.9595 5.83027 21.9443 5.83383C21.9291 5.83739 21.9132 5.83626 21.8987 5.83059C21.8797 5.82321 21.8643 5.80859 21.8558 5.78983C21.8472 5.77108 21.8462 5.74967 21.8529 5.73016V5.72819ZM21.4901 6.51592C21.4785 6.52248 21.4675 6.5297 21.4572 6.53693C21.4617 6.5238 21.4656 6.51132 21.4701 6.49688C21.5046 6.41863 21.5507 6.34624 21.6067 6.28223C21.6587 6.22049 21.7203 6.16792 21.7891 6.12665C21.8613 6.08529 21.9212 6.07545 21.9451 6.1017C21.9921 6.15619 21.9367 6.34065 21.793 6.5087C21.7452 6.48887 21.6939 6.47934 21.6423 6.4807C21.5908 6.48205 21.54 6.49427 21.4933 6.51658L21.4901 6.51592ZM19.8822 5.34154C19.8775 5.35439 19.8691 5.36551 19.8581 5.37352C19.8472 5.38153 19.8342 5.38606 19.8207 5.38655C19.8072 5.38703 19.7939 5.38345 19.7825 5.37625C19.771 5.36905 19.7619 5.35855 19.7562 5.34608C19.7506 5.33361 19.7487 5.31972 19.7508 5.30616C19.7529 5.2926 19.7589 5.27998 19.768 5.26988C19.7772 5.25978 19.789 5.25266 19.8021 5.24941C19.8152 5.24616 19.8289 5.24692 19.8416 5.25161C19.8587 5.2581 19.8725 5.2712 19.8801 5.28805C19.8877 5.3049 19.8885 5.32413 19.8822 5.34154ZM20.129 5.2759C20.1228 5.2925 20.1119 5.30687 20.0977 5.31718C20.0835 5.32748 20.0666 5.33327 20.0492 5.33382C20.0318 5.33436 20.0146 5.32963 19.9998 5.32022C19.985 5.31082 19.9732 5.29716 19.9661 5.28097C19.9589 5.26478 19.9566 5.24678 19.9594 5.22925C19.9623 5.21172 19.9701 5.19544 19.9821 5.18247C19.994 5.1695 20.0094 5.16041 20.0264 5.15636C20.0434 5.15231 20.0611 5.15347 20.0775 5.15971C20.0991 5.16788 20.1169 5.18425 20.1269 5.20541C20.137 5.22657 20.1387 5.25088 20.1316 5.27327L20.129 5.2759ZM20.1078 5.42885C20.1142 5.41144 20.1271 5.39734 20.1437 5.38964C20.1603 5.38195 20.1793 5.38129 20.1964 5.38782C20.2135 5.39435 20.2273 5.40753 20.2349 5.42445C20.2424 5.44138 20.2431 5.46067 20.2367 5.47808C20.2302 5.49549 20.2173 5.5096 20.2007 5.51729C20.1841 5.52498 20.1651 5.52564 20.148 5.51911C20.131 5.51258 20.1171 5.4994 20.1096 5.48248C20.102 5.46555 20.1014 5.44626 20.1078 5.42885ZM19.7759 6.09908C19.8052 6.03034 19.845 5.96676 19.8938 5.91068C19.9392 5.85682 19.993 5.81092 20.053 5.77479C20.1174 5.73935 20.169 5.73081 20.189 5.75379C20.2283 5.79908 20.1845 5.95072 20.0697 6.0912C19.9831 6.06633 19.8905 6.07378 19.8087 6.11221C19.7918 6.1214 19.7757 6.13193 19.7604 6.14372C19.7648 6.12858 19.77 6.11368 19.7759 6.09908ZM19.8113 5.84897C19.812 5.77445 19.8014 5.70027 19.7797 5.62906C19.8564 5.45839 19.9518 5.38618 19.9911 5.40128C20.0079 5.40784 20.0201 5.4295 20.0266 5.46233C20.0262 5.46735 20.0262 5.4724 20.0266 5.47743C20.0336 5.55747 20.0244 5.63814 19.9995 5.7144C19.9371 5.75356 19.881 5.80227 19.8332 5.85882L19.8075 5.89033C19.8107 5.87523 19.8113 5.86079 19.8113 5.847V5.84897ZM19.4852 5.86341C19.4917 5.68158 19.5555 5.54044 19.6141 5.53519C19.6438 5.53519 19.6786 5.57392 19.7024 5.64285C19.7248 5.71003 19.7355 5.78067 19.734 5.8516C19.7345 5.92685 19.7234 6.00171 19.7011 6.07348L19.6915 6.09711C19.6915 6.08726 19.6863 6.07676 19.6831 6.06691C19.665 6.02108 19.6382 5.97933 19.6043 5.94407C19.5703 5.9088 19.5299 5.88073 19.4852 5.86144V5.86341Z" fill="#231815"/>
</g>
<defs>
<clipPath id="clip0_28_9">
<rect width="29" height="25" fill="white" transform="translate(1 3)"/>
</clipPath>
</defs>
</svg>
