<svg width="32" height="32" viewBox="0 0 32 32" fill="none" xmlns="http://www.w3.org/2000/svg">
<rect width="32" height="32" transform="matrix(-1 0 0 1 32 0)" fill="white"/>
<path d="M22.4808 21.1258C23.137 21.3235 23.7415 21.6638 24.2504 22.1224C24.3363 22.1773 24.3918 22.2696 24.3989 22.3717C24.3989 22.5234 24.2859 22.6726 24.0528 22.8147C23.6343 23.095 23.2306 23.396 22.8431 23.7176C22.4608 24.0295 22.0604 24.3182 21.6432 24.5811C21.5895 24.6095 21.5295 24.625 21.4688 24.6263C21.3835 24.6276 21.3009 24.5953 21.2389 24.5358C21.12 24.4325 21.1078 24.253 21.2111 24.1341C21.2137 24.1309 21.2169 24.1277 21.2195 24.1251C21.3499 23.9572 21.5198 23.8235 21.7142 23.737C21.9428 23.6117 22.1592 23.4651 22.3613 23.3004C22.6849 23.0543 22.8786 22.8896 23.0084 22.8153C23.2642 22.6862 23.3966 22.5951 23.3966 22.5402C23.3992 22.5286 23.3992 22.5163 23.3966 22.5047C23.2371 22.2418 22.9897 22.0449 22.6978 21.948C22.4098 21.8673 22.1153 21.7801 21.8214 21.689C21.5269 21.6154 21.2602 21.4597 21.0516 21.2395C21.0451 21.2195 21.0451 21.1982 21.0516 21.1782C21.0619 21.0865 21.1071 21.0018 21.1775 20.9418C21.2356 20.8695 21.3209 20.8242 21.4139 20.8158C21.461 20.8094 21.5088 20.8094 21.556 20.8158C21.729 20.8255 21.8995 20.8669 22.0571 20.9386L22.526 21.1426M8.69613 20.8475C8.81303 20.8456 8.92734 20.883 9.01969 20.9541C9.09719 21.0135 9.14369 21.1052 9.14563 21.2033C9.14628 21.2731 9.11786 21.3396 9.06813 21.3881C8.71938 21.6955 8.31057 21.928 7.86817 22.0707C7.42255 22.2128 7.02859 22.4827 6.73603 22.847C7.15324 23.0892 7.58594 23.3055 8.03028 23.4941L9.36974 24.0831C9.47372 24.1245 9.53959 24.2271 9.53442 24.3389C9.5538 24.4906 9.48792 24.6411 9.36328 24.7302C9.24057 24.8316 9.08557 24.8865 8.92669 24.8852C8.86211 24.8852 8.79817 24.8723 8.73876 24.8465C8.64769 24.7574 8.55017 24.6753 8.44749 24.6004C7.67119 24.169 6.84065 23.766 5.95651 23.3908C5.86932 23.3553 5.7789 23.3197 5.69107 23.2907C5.59355 23.2513 5.52122 23.1667 5.49667 23.064C5.50055 22.7927 5.61809 22.5363 5.82024 22.3555C6.23615 22.0526 6.68694 21.8007 7.16292 21.6051C7.64278 21.4132 8.09551 21.1581 8.50884 20.8481L8.69613 20.8475Z" fill="#5D4037"/>
<path d="M14.2413 20.8217C14.1308 20.6505 13.9933 20.4988 13.8337 20.3722C13.7059 20.283 13.5528 20.2365 13.3972 20.2398C13.3448 20.2385 13.2932 20.2482 13.2454 20.2688L12.2747 20.5924C12.2127 20.6118 12.1488 20.6202 12.0835 20.6182C11.9686 20.6266 11.8543 20.5943 11.76 20.5278C11.6424 20.4258 11.543 20.3044 11.4655 20.1687L11.1968 20.3502C11.3105 20.5407 11.4571 20.7093 11.6302 20.8481C11.7664 20.9334 11.9253 20.9754 12.0861 20.9676C12.1681 20.967 12.2502 20.9547 12.329 20.9321L13.2254 20.6085C13.2861 20.5853 13.3507 20.573 13.4165 20.573C13.5147 20.5666 13.6129 20.593 13.6949 20.6473C13.8079 20.7396 13.9061 20.8488 13.9862 20.9709L14.2419 20.8288" fill="#5D4037"/>
<path fill-rule="evenodd" clip-rule="evenodd" d="M20.8533 26.2273C21.3448 29.171 17.7475 29.4623 16.2692 28.1325C15.2468 27.2199 15.5349 25.9489 17.0003 26.0297C18.2945 26.0981 19.0482 27.7605 20.8533 26.2273Z" fill="#5D4037"/>
<path fill-rule="evenodd" clip-rule="evenodd" d="M9.92259 26.2273C9.43111 29.171 13.0284 29.4623 14.5067 28.1325C15.5291 27.2199 15.241 25.9489 13.7756 26.0297C12.4814 26.0981 11.7277 27.7605 9.92259 26.2273Z" fill="#5D4037"/>
<path d="M13.4585 21.9571C13.2783 21.8382 13.0659 21.7788 12.8502 21.7859C12.5892 21.7762 12.3348 21.8692 12.1417 22.0449C11.9234 22.2593 11.8304 22.5706 11.8956 22.8696C11.9273 23.1512 12.0396 23.4173 12.2192 23.6362C12.3716 23.8403 12.6112 23.9604 12.8663 23.9598C13.0329 23.9572 13.1963 23.9126 13.3416 23.8306C13.6329 23.6562 13.775 23.3262 13.775 22.8309C13.8125 22.506 13.6956 22.1824 13.4585 21.9571ZM12.8372 23.1279C12.6583 23.1279 12.5137 22.9833 12.5137 22.8044C12.5137 22.6255 12.6583 22.4808 12.8372 22.4808C13.0161 22.4808 13.1608 22.6255 13.1608 22.8044C13.1608 22.9833 13.0161 23.1279 12.8372 23.1279Z" fill="#5D4037"/>
<path d="M15.6259 25.7778C15.7157 25.7784 15.8042 25.7616 15.8881 25.7294C15.9682 25.6984 16.0444 25.657 16.1148 25.6066C16.1807 25.5537 16.2427 25.4949 16.2995 25.4323C16.3531 25.3722 16.4003 25.307 16.4416 25.2379C16.481 25.1772 16.5159 25.1132 16.5449 25.0467C16.5675 24.9989 16.5863 24.9492 16.5998 24.8982V24.8691C16.5934 24.8601 16.5876 24.8504 16.5837 24.84C16.4997 24.9692 16.3945 25.0842 16.273 25.1798C16.18 25.2676 16.0703 25.3348 15.9495 25.3774C15.8281 25.4194 15.6995 25.44 15.571 25.4387C15.4612 25.4407 15.3521 25.4252 15.2475 25.3935C15.1577 25.3651 15.0737 25.3212 14.9982 25.2644C14.9226 25.2036 14.8542 25.1339 14.7941 25.057C14.7314 24.9731 14.6778 24.8833 14.6326 24.7884C14.6255 24.7955 14.6197 24.8045 14.6165 24.8142C14.6165 24.8142 14.6165 24.8336 14.6165 24.84C14.6604 24.964 14.7172 25.0829 14.7844 25.1959C14.8451 25.3044 14.9213 25.4039 15.0111 25.4904C15.0912 25.5744 15.1855 25.6428 15.2894 25.6945C15.3921 25.7378 15.5019 25.7616 15.613 25.7655" fill="#5D4037"/>
<path d="M18.4792 21.9377C18.2997 21.8182 18.0872 21.7568 17.8709 21.7633C17.6093 21.7542 17.3548 21.8485 17.1624 22.0255C16.9454 22.2406 16.8537 22.5519 16.9195 22.8502C16.9493 23.1318 17.0616 23.3992 17.2431 23.6168C17.3955 23.8203 17.6358 23.9404 17.8902 23.9404C18.0569 23.9378 18.2209 23.8932 18.3656 23.8112C18.684 23.5839 18.8512 23.1996 18.8022 22.8115C18.7867 22.3742 18.6827 22.0797 18.4792 21.9377ZM17.7675 23.1641C17.5886 23.1641 17.444 23.0194 17.444 22.8405C17.444 22.6616 17.5886 22.517 17.7675 22.517C17.9464 22.517 18.0911 22.6616 18.0911 22.8405C18.0911 23.0194 17.9458 23.1641 17.7675 23.1641Z" fill="#5D4037"/>
<path d="M24.8768 6.42669C24.8039 6.31367 24.7322 6.19807 24.6579 6.09215C24.5985 6.0069 24.5378 5.9294 24.4777 5.84867C24.3892 5.72984 24.3001 5.61165 24.2103 5.50186C24.1567 5.43598 24.1025 5.37528 24.0482 5.31263C23.9481 5.19767 23.8487 5.08594 23.7479 4.98132C23.7021 4.93417 23.6569 4.88896 23.611 4.84376C23.4941 4.72751 23.3766 4.61771 23.2584 4.51438C23.2306 4.49048 23.2035 4.46594 23.1757 4.44269C21.7026 3.1859 20.21 2.86686 19.2516 2.65696L18.7214 2.53748C16.7807 2.16548 15.1499 1.97755 13.4966 2.21392C12.8456 2.35536 12.2166 2.58398 11.6269 2.89334C10.8151 3.26211 9.97036 3.6438 9.15532 3.70192C8.30218 3.92215 7.5614 4.45238 7.07832 5.18992L6.9879 5.31909C6.55455 6.22519 6.44088 7.25142 6.66434 8.23051C6.84259 8.81305 7.06218 9.38203 7.26949 9.92905C7.74482 11.0444 8.08905 12.2114 8.29507 13.4069C8.50949 13.8318 8.67676 14.2787 8.79301 14.7399C9.06813 15.6976 9.38201 16.7749 10.2326 17.6125H10.2552C10.2623 17.6093 10.2694 17.6067 10.2765 17.6035C10.2784 17.6054 10.2797 17.6074 10.2817 17.6093C11.0179 17.2605 11.7283 17.0268 12.4174 16.8834C12.5143 16.8634 12.6099 16.8492 12.7055 16.833C12.8217 16.813 12.938 16.7923 13.0529 16.7768C13.2396 16.7529 13.4249 16.7355 13.609 16.7245C13.6251 16.7232 13.6413 16.7213 13.6574 16.7206C16.0141 16.5915 18.1214 17.4524 20.1803 18.2919L20.5517 18.4457C20.5633 18.4405 20.5743 18.4269 20.5859 18.4205C20.5924 18.423 20.5982 18.4256 20.6047 18.4282C21.109 18.208 21.3648 16.5133 21.7045 14.9343C22.9271 12.1359 25.6609 10.0815 25.4962 7.49361C25.2966 7.10159 25.088 6.75478 24.8768 6.42669Z" fill="url(#paint0_radial_28_8)"/>
<path d="M7.18297 5.20284C7.15714 5.24094 7.12549 5.27388 7.10095 5.31327L7.14035 5.25773C7.15326 5.23836 7.17006 5.22221 7.18297 5.20284Z" fill="url(#paint1_radial_28_8)"/>
<path d="M20.5553 18.4468L20.5514 18.4456L20.5498 18.4468H20.5553Z" fill="url(#paint2_radial_28_8)"/>
<path d="M20.3263 17.0397C20.3218 16.9822 20.2979 16.9234 20.2805 16.8653L20.2798 16.8627C20.0622 16.1529 18.9003 15.4083 17.318 15.0053C17.2308 14.982 17.1417 14.9711 17.0539 14.951C17.05 14.9504 17.0461 14.9497 17.0423 14.9485C16.6644 14.8619 16.2828 14.8038 15.8985 14.7696C15.8752 14.7676 15.852 14.765 15.8287 14.7631C15.6104 14.7457 15.3928 14.7347 15.1739 14.7347C14.9814 14.7334 14.7883 14.7366 14.5958 14.7495C14.5099 14.7554 14.4247 14.7637 14.3394 14.7721C14.1386 14.7922 13.939 14.8193 13.7414 14.8561C13.6723 14.8677 13.6026 14.8716 13.5334 14.8852C12.2302 15.1248 11.0812 15.8868 10.3534 16.9945L10.3953 18.7059V18.7317H10.4147C11.5391 18.0878 12.783 17.6803 14.0701 17.535C16.1181 17.3503 18.2144 17.9748 20.2617 19.4047H20.2811V19.3724C20.4187 18.6019 20.4342 17.8147 20.3263 17.0397Z" fill="#F44F5A"/>
<path fill-rule="evenodd" clip-rule="evenodd" d="M8.3797 5.08981C8.15947 6.20904 9.15599 9.74175 8.83243 11.5953C8.66451 10.6246 8.04322 8.68387 8.06906 7.60662C7.77133 6.95949 7.47037 6.16706 7.14035 5.86287C6.81033 5.55868 7.82299 3.97704 8.39585 5.08981" fill="#F9F9FA"/>
<path d="M10.6407 16.4642C9.3465 14.9375 8.7969 12.307 8.34417 10.0911C7.98508 8.33125 7.67767 6.83034 7.08544 6.35823C7.01504 6.26265 6.9679 6.15221 6.94981 6.03467C6.92915 5.81057 6.975 5.58517 7.08221 5.38754C7.18425 5.16667 7.34119 4.97615 7.53817 4.83407C7.66281 4.74817 7.80554 4.69327 7.95537 4.67261V4.70167C7.80619 4.72234 7.66475 4.77723 7.5414 4.86313C7.41094 5.02652 7.29404 5.2009 7.192 5.38367C6.90073 5.96621 7.51556 5.93715 7.74548 6.25361C8.34417 6.7354 8.3926 8.31769 8.75492 10.084C9.20765 12.2967 9.35683 14.9207 10.6537 16.441L10.6343 16.4636" fill="#C1CBD7"/>
<path fill-rule="evenodd" clip-rule="evenodd" d="M10.5923 4.63385C10.3688 5.74985 10.9385 8.31833 10.5923 10.1751C10.4244 9.20441 9.8031 7.26368 9.82893 6.18966C9.52797 5.54254 9.18181 4.79208 8.959 4.40716C8.73618 4.02224 9.75789 3.59535 10.5768 4.63385" fill="#F9F9FA"/>
<path d="M10.159 4.23925C9.97943 4.08877 9.73918 4.03387 9.51185 4.09071C9.42272 4.10039 9.33747 4.13139 9.26255 4.18112C9.19668 4.22439 9.15212 4.29414 9.13985 4.37229C9.13985 4.48854 9.04943 4.50791 9.13985 4.72491C9.86447 5.6956 10.4341 7.33537 10.5697 9.06621C10.7641 11.2627 10.5084 13.6955 11.9641 15.4199L11.9415 15.4393C10.4793 13.7052 10.2623 11.2691 10.0718 9.06944C9.91678 7.34183 9.77728 5.75696 9.05912 4.78304C8.93705 4.64677 8.87505 4.46723 8.88797 4.2851C8.90218 4.19985 8.94997 4.12429 9.02037 4.07456C9.0998 4.01902 9.19216 3.98544 9.28903 3.97769C9.59839 3.95314 9.90645 4.03775 10.159 4.21729L10.1396 4.23989" fill="#C1CBD7"/>
<path d="M14.1509 2.66664C14.8238 3.7891 13.5877 8.8421 13.3617 12.0157C13.3423 12.2844 10.974 1.53773 14.1444 2.66664" fill="#F9F9FA"/>
<path d="M13.8693 14.8174C12.9167 12.1765 12.3386 9.41495 12.1513 6.61333C12.0784 5.68656 12.1526 4.75398 12.3716 3.85045C12.5821 3.13229 12.9509 2.66018 13.5231 2.57558C13.7323 2.54845 13.9442 2.56395 14.1476 2.62079V2.64985C13.9416 2.61175 13.7298 2.6182 13.5263 2.66923C13.0478 2.77902 13.1059 3.07675 12.792 3.75293C12.5472 4.62223 12.4678 5.52962 12.5589 6.42798C12.9664 9.09333 13.4682 12.73 13.9016 14.7967H13.8789" fill="#C1CBD7"/>
<path d="M16.1013 14.6462C16.069 14.4292 16.0399 14.2096 16.0076 13.9991C15.5097 10.3889 14.8981 5.98946 17.0397 2.82875H17.0655C16.1891 5.16796 16.069 9.62227 15.9656 11.0586C15.9204 11.6799 15.9915 12.9993 16.0399 13.97C16.069 14.1935 16.1045 14.4131 16.1336 14.6333H16.1013" fill="#C1CBD7"/>
<path d="M18.4243 15.1086C18.4986 13.2454 18.6962 11.0651 18.8771 9.17536C19.3266 6.79417 20.5368 5.66849 20.854 3.26146V3.23305C19.7625 5.05882 19.0372 7.07963 18.7188 9.18246C18.4237 11.1432 18.3333 13.1298 18.4502 15.1093H18.4179" fill="#C1CBD7"/>
<path d="M24.0366 6.08955C23.0659 9.07847 21.9209 12.0002 20.7564 14.9568C20.7887 11.0424 22.8851 6.33174 24.0366 6.08955Z" fill="#C1CBD7"/>
<path d="M20.1875 16.2731C20.6983 15.7428 20.7345 14.9271 20.7797 13.9797C20.7687 13.0103 20.9418 12.0474 21.2905 11.1426C21.2905 11.1038 21.3196 11.0425 21.3422 10.9578C21.627 9.97102 22.7624 5.99527 24.0857 6.06631V6.09537C23.0472 6.05662 21.7239 9.97748 21.4107 10.9708C21.3881 11.0515 21.3816 11.1032 21.3687 11.1451C20.9967 12.1158 20.9741 13.0859 20.8514 13.9726C20.8094 14.9239 20.7287 15.7454 20.2043 16.2821H20.1849" fill="#C1CBD7"/>
<defs>
<radialGradient id="paint0_radial_28_8" cx="0" cy="0" r="1" gradientUnits="userSpaceOnUse" gradientTransform="translate(13.3429 8.47851) scale(11.9072 11.9072)">
<stop stop-color="#FAFAFB"/>
<stop offset="0.293" stop-color="#F6F7F8"/>
<stop offset="0.566" stop-color="#EBECEE"/>
<stop offset="0.832" stop-color="#D8DCDF"/>
<stop offset="1" stop-color="#C8CDD1"/>
</radialGradient>
<radialGradient id="paint1_radial_28_8" cx="0" cy="0" r="1" gradientUnits="userSpaceOnUse" gradientTransform="translate(7.13066 5.24611) scale(0.0652291)">
<stop stop-color="#FAFAFB"/>
<stop offset="0.293" stop-color="#F6F7F8"/>
<stop offset="0.566" stop-color="#EBECEE"/>
<stop offset="0.832" stop-color="#D8DCDF"/>
<stop offset="1" stop-color="#C8CDD1"/>
</radialGradient>
<radialGradient id="paint2_radial_28_8" cx="0" cy="0" r="1" gradientUnits="userSpaceOnUse" gradientTransform="translate(20.5525 18.4462) scale(0.00221058 0.00220931)">
<stop stop-color="#FAFAFB"/>
<stop offset="0.293" stop-color="#F6F7F8"/>
<stop offset="0.566" stop-color="#EBECEE"/>
<stop offset="0.832" stop-color="#D8DCDF"/>
<stop offset="1" stop-color="#C8CDD1"/>
</radialGradient>
</defs>
</svg>
