<svg width="32" height="32" viewBox="0 0 32 32" fill="none" xmlns="http://www.w3.org/2000/svg">
<rect width="32" height="32" transform="matrix(-1 0 0 1 32 0)" fill="white"/>
<path d="M15.4988 1C13.8397 1 3.65229 6.82175 2.8282 8.25C2.00412 9.67825 1.99929 21.323 2.8282 22.75C3.65712 24.177 13.8422 30 15.4988 30C17.1554 30 27.3405 24.171 28.1706 22.75C28.9995 21.329 28.9995 9.66375 28.1706 8.25C27.3405 6.83625 17.1566 1 15.4988 1ZM18.9317 24.4598V24.4622C18.7045 24.4622 16.5887 22.4358 16.7567 22.2703C16.8062 22.2208 17.1143 22.1869 17.762 22.1664C17.762 20.6801 17.7958 18.2816 17.8164 17.2775C17.8188 17.1627 17.791 17.0829 17.791 16.9464H13.215C13.215 17.3487 13.1885 18.9969 13.2936 21.074C13.3069 21.3314 13.203 21.4112 12.9649 21.41C12.3849 21.4088 11.8049 21.4039 11.2249 21.4051C10.9905 21.4051 10.889 21.3181 10.8962 21.0595C10.9482 19.1661 11.0654 16.3011 10.8878 9.01367V8.83363C10.332 8.81429 9.9477 8.77925 9.89695 8.72971C9.7302 8.56417 11.875 6.53779 12.101 6.53779C12.3269 6.53779 14.4584 8.56417 14.2917 8.72971C14.2421 8.77925 13.8397 8.81429 13.331 8.83363V9.01246C13.1933 10.4709 13.215 13.5208 13.1812 14.9816H17.7765C17.7765 14.7243 17.7982 13.0145 17.7076 10.2438C17.7016 10.0516 17.7632 9.95133 17.9481 9.94892C18.5825 9.94408 19.2156 9.94167 19.8512 9.94529C20.0494 9.9465 20.1122 10.0432 20.1086 10.2498C19.8995 21.0849 20.0711 20.3285 20.0711 22.164C20.5786 22.1833 21.0342 22.2183 21.0837 22.2679C21.248 22.4322 19.1588 24.4598 18.9317 24.4598Z" fill="#2FC363"/>
</svg>
