<svg width="32" height="32" viewBox="0 0 32 32" fill="none" xmlns="http://www.w3.org/2000/svg">
<rect width="32" height="32" transform="matrix(-1 0 0 1 32 0)" fill="white"/>
<path d="M27.2178 1.50176H12.8885V9.36943H13.0274C14.2599 7.82581 15.7789 7.64228 17.4432 7.75745C19.901 7.89872 22.2979 9.34996 22.4586 13.9696V23.0922V23.0992C22.4563 23.1899 22.4177 23.2762 22.3508 23.3395C22.284 23.4029 22.1943 23.4382 22.101 23.4381H19.4667C19.3731 23.4386 19.2831 23.4033 19.2159 23.34C19.1487 23.2766 19.1098 23.1902 19.1074 23.0992V14.2451C19.1074 12.0909 18.3829 10.4814 16.1821 10.4814C14.5804 10.4814 12.8872 11.5585 12.8872 13.8275V23.0918V23.0988C12.8852 23.1896 12.8466 23.276 12.7797 23.3393C12.7128 23.4027 12.623 23.438 12.5296 23.4377H9.89832C9.80491 23.438 9.7151 23.4027 9.64823 23.3393C9.58135 23.276 9.54275 23.1896 9.54074 23.0988V23.0918V1.50176H4.98391C4.48016 1.48041 3.98829 1.65427 3.61631 1.98517C3.24434 2.31608 3.02267 2.77696 3 3.26661V28.6357C3.01841 29.1356 3.23537 29.609 3.60531 29.9567C3.97525 30.3043 4.46938 30.499 4.98391 30.5H27.2174C27.4616 30.4955 27.7024 30.4432 27.9253 30.3463C28.1482 30.2493 28.3488 30.1096 28.5149 29.9356C28.681 29.7615 28.8094 29.5567 28.8922 29.3334C28.9751 29.1101 29.0108 28.8728 28.9972 28.6357V3.26661C29.0092 3.03475 28.9716 2.803 28.8869 2.58595C28.8022 2.36889 28.6722 2.17124 28.5051 2.00544C28.3379 1.83964 28.1372 1.70929 27.9157 1.6226C27.6942 1.53592 27.4565 1.49477 27.2178 1.50176ZM24.0534 26.7996H7.94338V25.2576H24.0534V26.7996Z" fill="#323754"/>
</svg>
