<svg width="32" height="32" viewBox="0 0 32 32" fill="none" xmlns="http://www.w3.org/2000/svg">
<rect width="32" height="32" transform="matrix(-1 0 0 1 32 0)" fill="white"/>
<g clip-path="url(#clip0_28_6)">
<path d="M27.5833 18.3456C27.5833 17.449 26.9018 16.7192 26.0608 16.7192H13.9002C13.0592 16.7192 12.3777 17.449 12.3777 18.3456C12.3777 19.2422 13.0579 19.972 13.9002 19.972H26.0608C26.9018 19.9732 27.5833 19.2434 27.5833 18.3456Z" fill="#B3B1B0"/>
<path d="M5.20741 22.976L10.4189 28.2455C11.5947 29.4285 13.2199 30 15.0142 30C16.8086 30 18.4338 29.3813 19.6119 28.1947L22.7391 25.0084C23.3554 24.3873 23.3336 23.359 22.692 22.7125C22.0504 22.0661 21.0305 22.0443 20.4155 22.6654L17.182 25.8155C16.6237 26.3798 15.8504 26.6155 14.9961 26.6155C14.1418 26.6155 13.3697 26.3798 12.809 25.8155L7.61561 20.5436C7.05616 19.9793 6.77461 19.154 6.77461 18.2925C6.77461 17.4309 7.05616 16.6527 7.61561 16.0885L12.7933 10.796C13.3528 10.2317 14.1418 10.0166 14.9949 10.0166C15.848 10.0166 16.6213 10.2522 17.1808 10.8165L20.4143 13.9654C21.0305 14.5877 22.0504 14.566 22.692 13.9195C23.3336 13.2718 23.3554 12.2435 22.7391 11.6225L19.6119 8.43729C18.817 7.64289 17.8159 7.08629 16.7216 6.8302L16.6805 6.82175L19.6373 3.79729C20.256 3.1762 20.2342 2.1467 19.5926 1.50025C18.951 0.853787 17.9299 0.833246 17.3125 1.45433L5.20741 13.6585C4.0317 14.8451 3.41666 16.4824 3.41666 18.2925C3.41666 20.1025 4.0317 21.7918 5.20741 22.976Z" fill="#E7A41F"/>
<path d="M10.8056 28.5669C10.595 28.4493 10.4022 28.3025 10.2329 28.1307C8.62943 26.52 7.01872 24.9165 5.41889 23.301C3.01551 20.8747 2.63731 17.3355 4.46914 14.456C4.76184 14.0159 5.10179 13.6091 5.48293 13.2428L17.1107 1.59088C17.8659 0.83446 18.9208 0.803044 19.6228 1.50992C20.2995 2.19021 20.2596 3.26804 19.5286 4.00634C18.5994 4.944 17.669 5.87925 16.7386 6.81571C16.689 6.96313 16.5694 7.05738 16.4667 7.1625C15.4239 8.221 14.3521 9.25171 13.3238 10.3259C13.1897 10.4661 13.0072 10.5507 12.8743 10.6945C11.1548 12.4139 9.41485 14.114 7.71956 15.8565C6.3481 17.2666 6.39401 19.4065 7.80172 20.8433C9.38222 22.4576 10.9905 24.0453 12.5879 25.6452C12.6689 25.7261 12.7523 25.8047 12.8344 25.8844C13.3999 26.2505 13.4072 27.3948 13.0556 27.9035C12.6677 28.4654 12.1614 28.8098 11.4448 28.7832C11.2044 28.776 11.0062 28.6793 10.8056 28.5669Z" fill="#070706"/>
</g>
<defs>
<clipPath id="clip0_28_6">
<rect width="29" height="29" fill="white" transform="translate(1 1)"/>
</clipPath>
</defs>
</svg>
