<svg width="32" height="32" viewBox="0 0 32 32" fill="none" xmlns="http://www.w3.org/2000/svg">
<g clip-path="url(#clip0_28_3)">
<rect width="32" height="32" transform="matrix(-1 0 0 1 32 0)" fill="white"/>
<path d="M13.3467 26.4373C13.759 25.2498 14.1442 24.0012 14.5028 22.6907C14.8612 21.3803 15.1931 20.0845 15.4987 18.803C15.804 17.5213 16.0787 16.2865 16.3233 15.0987C16.5675 13.9108 16.7785 12.8463 16.9562 11.905C17.1336 10.9638 17.2771 10.1778 17.3866 9.54683C17.4957 8.91616 17.5675 8.51433 17.6021 8.342C17.9077 8.46566 18.2813 8.62666 18.7227 8.82466C19.1641 9.02283 19.6101 9.22966 20.0614 9.44583C20.5121 9.66183 20.9327 9.871 21.3233 10.0727C21.7137 10.275 22.0179 10.445 22.2358 10.5837C22.0768 11.522 21.8335 12.5678 21.5059 13.7208C21.1778 14.8743 20.8027 16.0697 20.3799 17.3078C19.9572 18.5463 19.5066 19.7917 19.0282 21.044C18.5498 22.2967 18.0799 23.4867 17.6185 24.614C17.157 25.7415 16.7267 26.7703 16.3276 27.7008C15.9285 28.6312 15.6007 29.398 15.3447 30C15.1317 29.8897 14.8656 29.735 14.5467 29.5352C14.2278 29.3355 13.9019 29.1347 13.5697 28.9327C13.2374 28.7302 12.9301 28.5408 12.6474 28.3645L13.3467 26.4373Z" fill="#0099EF" fill-opacity="0.941176"/>
<path d="M10.003 26.4373C10.4153 25.2498 10.8005 24.0012 11.1591 22.6907C11.5175 21.3803 11.8494 20.0845 12.155 18.803C12.4603 17.5213 12.735 16.2865 12.9796 15.0987C13.2238 13.9108 13.4348 12.8463 13.6125 11.905C13.7899 10.9638 13.9334 10.1778 14.0429 9.54683C14.152 8.91616 14.2238 8.51433 14.2584 8.342C14.564 8.46566 14.9376 8.62666 15.379 8.82466C15.8204 9.02283 16.2664 9.22966 16.7177 9.44583C17.1684 9.66183 17.589 9.871 17.9796 10.0727C18.37 10.275 18.6742 10.445 18.8921 10.5837C18.7331 11.522 18.4898 12.5678 18.1621 13.7208C17.8341 14.8743 17.459 16.0697 17.0361 17.3078C16.6135 18.5463 16.1629 19.7917 15.6845 21.044C15.2061 22.2967 14.7362 23.4867 14.2747 24.614C13.8133 25.7415 13.383 26.7703 12.9839 27.7008C12.5848 28.6312 12.257 29.398 12.001 30C11.788 29.8897 11.5219 29.735 11.203 29.5352C10.8841 29.3355 10.5582 29.1347 10.226 28.9327C9.89365 28.7302 9.58636 28.5408 9.30365 28.3645C9.02094 28.1877 8.8148 28.0617 8.68539 27.9863L10.003 26.4373Z" fill="#3E454C"/>
<path d="M5.13286 11.2075C5.87098 12.2552 6.4986 13.298 7.01587 14.3348C7.53264 15.3718 7.96849 16.369 8.32309 17.3262C8.67753 18.2837 8.96174 19.1893 9.17574 20.0435C9.38957 20.898 9.55742 21.672 9.67863 22.3657C9.79332 23.0217 9.87541 23.6023 9.92507 24.1078C9.97472 24.6132 10.0033 25.037 10.0115 25.3782C10.0311 25.7862 10.0282 26.139 10.003 26.4373L9.30364 28.3645C9.02093 28.1877 8.81479 28.0617 8.68538 27.9863C8.6904 27.868 8.70294 27.6623 8.723 27.3702C8.74273 27.0782 8.75025 26.7145 8.7454 26.2795C8.74022 25.8447 8.71381 25.3427 8.66599 24.773C8.61801 24.2037 8.53441 23.5765 8.41471 22.892C8.27845 22.1127 8.0877 21.2813 7.8431 20.398C7.59834 19.515 7.26264 18.6107 6.83631 17.6853C6.40982 16.76 5.86864 15.8252 5.21294 14.8805C4.5569 13.936 3.75541 13.007 2.80814 12.093L2.78674 12.082L2.75548 12.014L5.13286 11.2075Z" fill="#E7ECF1"/>
<path d="M29.5 5.22967C28.8824 5.3165 28.2578 5.39967 27.6262 5.47917C26.9942 5.55883 26.3188 5.64583 25.5994 5.74033C24.8798 5.835 24.089 5.947 23.2272 6.07583C22.365 6.205 21.3952 6.36233 20.3172 6.54817C18.938 6.786 17.6078 7.04233 16.3259 7.31683C15.044 7.59183 13.7824 7.9095 12.5414 8.2705C11.3002 8.63133 10.069 9.04917 8.84806 9.52417C7.6266 9.999 5.13286 11.2075 5.13286 11.2075L2.80814 12.093C2.79544 12.0953 2.78842 12.0915 2.78674 12.082C2.77253 12.0748 2.76217 12.052 2.75548 12.014C2.73893 11.919 2.75983 11.781 2.81868 11.5993C2.87719 11.4178 2.96162 11.2172 3.0718 10.9973C3.18164 10.7778 3.30452 10.556 3.43961 10.3318C3.57469 10.1078 3.70509 9.9115 3.83065 9.74283C3.88332 9.675 4.16034 9.48783 4.66223 9.181C5.16346 8.87417 5.86179 8.49183 6.7569 8.034C7.65151 7.57633 8.72501 7.06817 9.9769 6.5095C11.2284 5.95083 12.6258 5.39417 14.1687 4.83933C15.7115 4.28483 17.3854 3.7585 19.1903 3.26133C20.9949 2.76433 22.894 2.34367 24.8872 2C24.988 2.06133 25.1512 2.16283 25.3762 2.30517C25.6011 2.44783 25.8594 2.61367 26.1509 2.80317C26.4423 2.993 26.7528 3.19883 27.0822 3.42117C27.4115 3.6435 27.7308 3.86267 28.0396 4.07883C28.3488 4.295 28.6303 4.5035 28.8851 4.70417C29.1397 4.90517 29.3447 5.08017 29.5 5.22967Z" fill="#22313F"/>
</g>
<defs>
<clipPath id="clip0_28_3">
<rect width="32" height="32" fill="white" transform="matrix(-1 0 0 1 32 0)"/>
</clipPath>
</defs>
</svg>
