<svg width="232" height="132" viewBox="0 0 232 132" fill="none" xmlns="http://www.w3.org/2000/svg">
<path fill-rule="evenodd" clip-rule="evenodd" d="M223.195 0.870313C224.48 -0.731505 227.059 0.00467065 227.306 2.04357L231.791 39.1927C231.99 40.8388 230.447 42.1556 228.852 41.7005L219.747 39.1017C219.921 40.4087 219.653 41.782 218.889 42.9811C218.223 44.027 217.339 45.5557 216.23 47.5378C214.666 50.3316 211.133 51.3288 208.339 49.765C205.546 48.2011 204.548 44.6685 206.112 41.8747C207.226 39.8845 208.251 38.1017 209.111 36.7517C209.238 36.5518 209.375 36.3623 209.522 36.1836L200.949 33.7369C199.355 33.2818 198.739 31.349 199.777 30.0558L223.195 0.870313ZM206.363 53.4636C209.144 55.0505 210.112 58.5913 208.525 61.3721C206.698 64.5728 204.732 67.9196 202.68 71.2128C200.987 73.9302 197.412 74.7605 194.694 73.0674C191.977 71.3742 191.146 67.7988 192.84 65.0814C194.789 61.9534 196.675 58.7429 198.455 55.625C200.042 52.8443 203.582 51.8766 206.363 53.4636ZM192.385 76.5915C194.878 78.601 195.269 82.2507 193.26 84.7433C191.938 86.3831 190.583 87.9381 189.206 89.3543C187.92 90.6772 186.539 91.9569 185.098 93.1905C182.666 95.2727 179.006 94.9891 176.924 92.557C174.841 90.1248 175.125 86.4652 177.557 84.3829C178.773 83.3417 179.89 82.3033 180.893 81.272C181.97 80.1645 183.086 78.8888 184.233 77.466C186.243 74.9735 189.893 74.5819 192.385 76.5915ZM174.62 94.0889C176.337 96.7911 175.538 100.374 172.836 102.091C169.809 104.015 166.751 105.816 163.837 107.466C161.051 109.045 157.514 108.066 155.935 105.281C154.357 102.495 155.336 98.9572 158.121 97.3788C160.922 95.7919 163.802 94.0942 166.617 92.3054C169.32 90.5881 172.902 91.3866 174.62 94.0889ZM153.48 106.516C155.023 109.321 153.999 112.846 151.193 114.389C149.402 115.374 148.058 116.146 147.149 116.734C144.46 118.473 140.871 117.703 139.132 115.015C137.393 112.327 138.163 108.738 140.851 106.999C142.139 106.166 143.802 105.222 145.606 104.23C148.412 102.687 151.937 103.71 153.48 106.516ZM1.57154 106.867C0.533129 106.853 0.00936473 107.203 0.000250602 107.916C-0.00759178 108.529 0.168632 108.93 0.528921 109.117C0.889423 109.287 1.53119 109.378 2.45423 109.39L5.34727 109.403C5.22124 111.524 5.15558 112.792 5.15028 113.206C5.14244 113.82 5.16216 114.856 5.20944 116.316C5.2529 118.074 5.26711 119.542 5.25206 120.719C5.24443 121.316 5.34584 121.765 5.55631 122.067C5.76698 122.351 6.17725 122.497 6.78711 122.505C7.5618 122.515 7.95349 122.18 7.96218 121.501L7.92195 120.779C7.80604 118.24 7.76387 115.736 7.79545 113.265C7.82194 111.193 7.86341 109.883 7.91986 109.337C8.15083 109.323 8.48883 109.319 8.93386 109.325C9.39538 109.331 9.93033 109.396 10.5387 109.52C11.2297 109.628 11.7565 109.685 12.1191 109.69C12.4488 109.694 12.7306 109.573 12.9645 109.327C13.1987 109.065 13.3181 108.752 13.3228 108.387C13.3261 108.122 13.2709 107.93 13.157 107.813C13.0431 107.695 12.896 107.594 12.7158 107.508C12.0933 107.202 11.3289 107.026 10.4228 106.981C10.2744 106.979 9.91986 106.991 9.35902 107.017C8.53403 107.073 7.83309 107.097 7.25619 107.09C6.54743 107.08 5.5012 107.034 4.1175 106.949C2.86523 106.9 2.01658 106.872 1.57154 106.867ZM17.6452 123.025C17.9144 122.885 18.0916 122.681 18.1767 122.412C18.3018 122.017 18.4084 121.599 18.4964 121.157C18.5207 121.026 18.565 120.831 18.6294 120.573C18.6938 120.315 18.7585 120.084 18.8236 119.879L19.275 118.535C19.3408 118.382 19.4162 118.172 19.5013 117.903C19.6164 117.54 19.7789 117.218 19.989 116.937C20.2147 116.661 20.5158 116.366 20.8922 116.052C21.0058 115.966 21.185 115.919 21.4299 115.911C21.6748 115.902 21.9229 115.938 22.1742 116.019C22.3156 116.064 22.4287 116.144 22.5136 116.258C22.6036 116.357 22.702 116.51 22.809 116.718C22.9054 116.906 22.9881 117.054 23.0573 117.163C23.1473 117.262 23.2629 117.334 23.4042 117.379C23.6713 117.464 23.9804 117.39 24.3318 117.154C24.6989 116.924 24.93 116.658 25.0251 116.358C25.1953 115.821 25.087 115.317 24.7002 114.845C24.3291 114.378 23.853 114.051 23.2718 113.865C22.785 113.709 22.227 113.695 21.5979 113.824C20.9895 113.942 20.406 114.173 19.8476 114.516C19.838 113.399 19.4092 112.705 18.5611 112.433C18.1527 112.302 17.7693 112.284 17.4108 112.378C17.0681 112.477 16.8391 112.708 16.724 113.071C16.679 113.213 16.6811 113.371 16.7302 113.543C16.7844 113.7 16.8822 113.801 17.0236 113.846C17.322 113.941 17.5329 114.122 17.6563 114.388C17.7847 114.638 17.825 114.921 17.777 115.236C17.7169 115.425 17.6111 115.705 17.4596 116.074C17.2981 116.475 17.1773 116.801 17.0972 117.054C16.927 117.591 16.7326 118.26 16.5137 119.06C16.2449 120.018 16.0178 120.789 15.8327 121.374C15.6775 121.863 15.6799 122.238 15.8397 122.498C16.0045 122.743 16.3225 122.94 16.7937 123.091C17.0921 123.187 17.376 123.165 17.6452 123.025ZM27.7881 128.158C27.1793 128.01 26.6918 127.781 26.3256 127.47C25.9715 127.179 25.7252 126.863 25.5867 126.523C25.4603 126.202 25.4223 125.937 25.4726 125.727C25.5385 125.453 25.687 125.259 25.918 125.145C26.1451 125.046 26.3949 125.03 26.6672 125.097C26.8275 125.135 26.9681 125.221 27.089 125.353C27.21 125.484 27.2765 125.56 27.2887 125.58C27.3814 125.688 27.4781 125.78 27.5786 125.856C27.6753 125.947 27.7877 126.009 27.9159 126.04C28.2684 126.126 28.613 125.962 28.9496 125.549C29.2863 125.137 29.6927 124.434 30.1689 123.441C29.7037 122.202 29.3586 120.992 29.1337 119.811L28.8889 118.395C28.8553 118.182 28.7511 117.628 28.5764 116.733C28.4215 115.825 28.2434 115.014 28.042 114.3C27.9262 113.794 27.8877 113.46 27.9264 113.299C28.0233 112.896 28.2312 112.631 28.55 112.504C28.8849 112.381 29.2366 112.364 29.6052 112.454C29.8615 112.516 30.0402 112.619 30.1413 112.763C30.2622 112.895 30.3779 113.119 30.4882 113.436C30.7669 114.323 30.9926 115.606 31.1654 117.286C31.2727 118.25 31.3663 118.989 31.4462 119.504C31.53 120.002 31.6519 120.517 31.8119 121.051C32.2354 120.489 32.8375 119.501 33.6183 118.087C34.0839 117.279 34.4589 116.637 34.7431 116.16C35.0472 115.671 35.3557 115.235 35.6686 114.85C35.8826 114.595 36.115 114.404 36.3659 114.278C36.6328 114.155 36.9025 114.127 37.1749 114.193C37.4472 114.259 37.7105 114.434 37.9645 114.718C38.2385 114.989 38.3425 115.262 38.2766 115.536C38.2379 115.697 38.1353 115.877 37.9689 116.075C36.9953 117.373 36.1132 118.609 35.3225 119.781C34.5517 120.941 33.766 122.234 32.9653 123.66C32.5036 124.452 32.0355 125.2 31.5611 125.903C31.1027 126.611 30.7962 127.039 30.6414 127.189C30.2124 127.563 29.7628 127.846 29.2925 128.038C28.8183 128.247 28.3169 128.287 27.7881 128.158ZM50.7689 122.301C50.898 122.483 51.0753 122.603 51.301 122.662L52.4694 122.894C52.2897 123.908 52.1659 124.72 52.0978 125.33C51.9414 126.73 51.9019 127.827 51.9792 128.62C52.0351 129.01 52.1102 129.377 52.2045 129.722C52.2987 130.066 52.3677 130.266 52.4113 130.321C52.7003 130.704 53.0694 131.038 53.5187 131.322C53.9844 131.608 54.4547 131.778 54.9298 131.832C55.6997 131.919 56.3469 131.842 56.8715 131.601C57.3979 131.343 57.6868 130.984 57.7384 130.522C57.766 130.275 57.7307 130.071 57.6326 129.91C57.5509 129.75 57.3954 129.658 57.166 129.632C57.0022 129.613 56.8156 129.65 56.6061 129.744C56.2947 129.859 55.9997 129.9 55.7213 129.869C55.2462 129.815 54.8987 129.659 54.6788 129.401C54.477 129.128 54.3565 128.722 54.3171 128.183C54.2543 127.409 54.2891 126.428 54.4216 125.242C54.5063 124.484 54.609 123.786 54.73 123.149C56.0114 123.261 56.9634 123.277 57.5861 123.197C58.1723 123.146 58.5013 122.8 58.573 122.157C58.6006 121.91 58.5153 121.708 58.3171 121.552C58.1371 121.382 57.9078 121.281 57.6293 121.249C57.3509 121.218 56.8986 121.184 56.2724 121.146C55.81 121.127 55.4478 121.103 55.1857 121.073C55.4252 120.266 55.5927 119.434 55.6884 118.577C55.7528 118.001 55.7151 117.596 55.5752 117.363C55.4517 117.132 55.177 116.993 54.751 116.945C54.407 116.906 54.0857 116.961 53.787 117.111C53.5046 117.263 53.3432 117.52 53.3027 117.882C53.2917 117.981 53.2842 118.122 53.2804 118.305C53.2765 118.488 53.2608 118.704 53.2332 118.951C53.1596 119.61 53.0214 120.253 52.8186 120.881C51.8848 120.776 51.2995 120.818 51.0627 121.008C50.9369 121.094 50.834 121.199 50.7537 121.324C50.6899 121.45 50.6515 121.571 50.6386 121.686C50.6128 121.917 50.6563 122.122 50.7689 122.301ZM65.8309 115.597C65.8149 116.027 65.7879 116.533 65.75 117.112C65.7126 117.675 65.6801 118.105 65.6526 118.402C65.5718 119.246 65.5158 120.09 65.4845 120.935C65.4611 121.565 65.4615 122.22 65.4858 122.901C66.0241 122.175 66.5962 121.649 67.2021 121.323C67.808 120.997 68.531 120.85 69.3711 120.882C69.9806 120.904 70.5388 121.199 71.0456 121.766C71.5525 122.332 71.8665 122.983 71.9877 123.718C72.0132 124.366 72.0087 125.154 71.9743 126.082C71.9522 126.678 71.9562 127.458 71.9865 128.422C72.0059 128.787 72.0839 129.13 72.2205 129.451C72.3735 129.772 72.5983 129.938 72.8948 129.949C73.0431 129.955 73.1587 129.951 73.2417 129.937C73.3411 129.924 73.432 129.919 73.5144 129.923C73.745 129.931 73.8994 129.995 73.9774 130.114C74.072 130.234 74.1152 130.401 74.1072 130.617C74.0925 131.014 73.8838 131.305 73.481 131.489C73.0783 131.673 72.7122 131.759 72.3828 131.747C71.1968 131.702 70.3998 131.175 69.9919 130.164C69.7657 129.591 69.6362 128.856 69.6035 127.959C69.5714 127.045 69.5778 125.983 69.6227 124.774C69.6669 123.581 69.2855 122.969 68.4783 122.939C68.0336 122.922 67.5716 123.145 67.0926 123.609C66.6306 124.056 66.2369 124.663 65.9116 125.431C65.5868 126.182 65.409 126.972 65.3783 127.8L65.3071 130.386C65.2936 130.751 65.1435 131.019 64.8567 131.191C64.5705 131.346 64.3039 131.419 64.0568 131.409C63.6944 131.396 63.3689 131.276 63.0804 131.049C62.7925 130.806 62.6538 130.544 62.6642 130.262C62.8256 129.024 62.9604 126.946 63.0685 124.03C63.0882 123.5 63.1198 121.535 63.1634 118.135L63.1741 115.845C63.1876 115.481 63.364 115.172 63.7033 114.92C64.0432 114.65 64.4191 114.523 64.8309 114.539C65.1933 114.552 65.4538 114.645 65.6124 114.817C65.771 114.989 65.8438 115.249 65.8309 115.597ZM79.4639 115.852C79.0266 115.601 78.5188 115.461 77.9405 115.431C77.5446 115.428 77.2945 115.594 77.1904 115.929C77.1027 116.264 77.0672 116.68 77.084 117.177C77.0929 117.442 77.1922 117.696 77.3818 117.938C77.5714 118.181 77.9051 118.294 78.3829 118.277C78.8771 118.261 79.2936 118.139 79.6323 117.911C79.9869 117.667 80.1578 117.354 80.1449 116.973C80.1276 116.459 79.9006 116.085 79.4639 115.852ZM80.4245 128.934C80.3719 128.355 80.3348 127.742 80.313 127.096L80.1379 121.901C80.1222 121.437 80.0119 121.1 79.807 120.892C79.6185 120.682 79.2854 120.586 78.8076 120.602C78.4781 120.614 78.1687 120.732 77.8794 120.957C77.5901 121.183 77.4505 121.445 77.4606 121.743C77.4807 122.34 77.5489 123.383 77.665 124.872C77.8044 126.559 77.897 128.083 77.9428 129.442C77.9567 129.856 78.0221 130.326 78.1388 130.853C78.2109 131.033 78.4056 131.184 78.7231 131.306C79.0565 131.411 79.3797 131.458 79.6928 131.447C79.874 131.441 80.0771 131.351 80.3022 131.178C80.5267 130.988 80.6444 130.809 80.6553 130.643C80.5698 130.065 80.4929 129.496 80.4245 128.934ZM89.1888 123.873C89.3284 123.942 89.5985 124.073 89.9991 124.265C90.4144 124.439 90.7027 124.668 90.864 124.951C91.0254 125.235 91.1328 125.64 91.1863 126.168C91.2466 126.762 91.1279 127.307 90.8304 127.805C90.5312 128.285 90.1236 128.677 89.6075 128.98C89.2324 129.202 88.7628 129.392 88.1989 129.55C87.6514 129.706 87.2136 129.801 86.8856 129.835C86.5577 129.868 86.1263 129.863 85.5915 129.818C85.0731 129.771 84.7113 129.716 84.5061 129.654C83.9676 129.409 83.488 129.092 83.0674 128.702C82.6631 128.31 82.4383 127.891 82.3931 127.446C82.3597 127.116 82.4403 126.849 82.6351 126.646C82.8282 126.426 83.097 126.298 83.4413 126.263C83.6053 126.246 83.7842 126.295 83.978 126.408C84.1701 126.505 84.3056 126.616 84.3846 126.741C84.6085 127.152 84.9445 127.442 85.3927 127.613C85.8408 127.783 86.2862 127.846 86.729 127.801C87.303 127.742 87.8267 127.596 88.3003 127.364C88.7722 127.116 88.9914 126.827 88.9579 126.497C88.9429 126.348 88.8901 126.237 88.7998 126.163C88.7241 126.071 88.6157 125.982 88.4745 125.896C88.2282 125.755 87.8704 125.658 87.4012 125.607L86.493 125.475C85.8056 125.395 85.1271 125.24 84.4574 125.009C83.786 124.761 83.24 124.442 82.8193 124.052C82.3986 123.662 82.154 123.128 82.0854 122.452C82.0402 122.007 82.1573 121.528 82.4368 121.016C82.7146 120.487 83.0484 120.103 83.4383 119.863C83.7218 119.717 84.2012 119.543 84.8765 119.34C85.5683 119.136 86.0372 119.021 86.2832 118.996C86.6603 118.957 87.0745 118.956 87.5256 118.993C87.9751 119.014 88.323 119.095 88.5693 119.236C89.0389 119.455 89.4281 119.698 89.737 119.967C90.0442 120.218 90.2163 120.526 90.2531 120.889C90.2715 121.07 90.2506 121.272 90.1903 121.495C90.1284 121.701 90.0426 121.835 89.9328 121.897C89.6985 122.037 89.4174 122.124 89.0894 122.158C88.9418 122.173 88.8147 122.145 88.7079 122.072C88.6175 121.998 88.4893 121.878 88.3233 121.712C88.1145 121.45 87.9256 121.303 87.7566 121.27C87.5548 121.241 87.2619 121.212 86.8781 121.185C86.4925 121.141 86.2342 121.126 86.103 121.14C85.7258 121.178 85.3431 121.326 84.9549 121.582C84.583 121.837 84.4114 122.105 84.4398 122.385C84.4549 122.534 84.524 122.643 84.6471 122.714C84.7867 122.783 84.9254 122.844 85.0633 122.896C85.2176 122.947 85.3202 122.978 85.371 122.99C85.7322 123.119 86.1236 123.221 86.5452 123.294C86.9833 123.366 87.2532 123.413 87.355 123.436C88.2623 123.56 88.8736 123.705 89.1888 123.873ZM108.446 116.223C108.263 115.806 108.08 115.501 107.898 115.305C107.144 114.481 106.324 113.953 105.439 113.722C104.55 113.474 103.544 113.485 102.422 113.754C101.845 113.893 101.236 114.184 100.595 114.627C99.9506 115.054 99.5361 115.486 99.3513 115.922C99.0445 116.558 98.8327 117.274 98.716 118.069C98.6153 118.86 98.6414 119.578 98.7942 120.223C98.8821 120.594 99.3068 121.421 100.068 122.705C100.553 123.321 101.276 123.796 102.236 124.129C103.196 124.461 104.076 124.531 104.878 124.339C107.043 123.82 108.438 122.412 109.063 120.114C109.06 118.888 108.985 117.96 108.836 117.331C108.755 116.992 108.626 116.623 108.446 116.223ZM106.465 118.052C106.671 118.923 106.759 119.473 106.728 119.702C106.609 120.344 106.375 120.895 106.027 121.353C105.674 121.796 105.137 122.104 104.415 122.277C104.094 122.353 103.764 122.356 103.425 122.284C103.099 122.192 102.808 122.074 102.554 121.93C102.312 121.767 102.153 121.634 102.078 121.533C101.987 121.435 101.84 121.172 101.637 120.744C101.45 120.311 101.337 120.014 101.299 119.853C101.081 118.934 101.095 118.061 101.34 117.235C101.585 116.409 102.156 115.889 103.054 115.674C103.375 115.597 103.665 115.57 103.925 115.593C104.197 115.596 104.414 115.621 104.578 115.667C104.737 115.697 104.837 115.724 104.877 115.748C105.274 115.994 105.606 116.324 105.873 116.737C106.157 117.146 106.354 117.585 106.465 118.052ZM111.031 113.512C110.899 113.502 110.78 113.443 110.672 113.335C110.582 113.212 110.543 113.076 110.554 112.927C110.583 112.547 110.774 112.204 111.128 111.898C111.23 111.856 111.434 111.789 111.739 111.695C112.043 111.602 112.31 111.565 112.541 111.582C113.165 111.63 113.662 111.843 114.03 112.22C114.399 112.581 114.56 113.076 114.513 113.704C114.499 113.886 114.437 114.272 114.326 114.862C114.208 115.551 114.134 116.086 114.105 116.466C114.018 117.624 114.103 118.57 114.362 119.305C114.459 119.545 114.626 119.741 114.863 119.892C115.099 120.043 115.316 120.126 115.514 120.141C115.99 120.178 116.383 120.124 116.691 119.982C116.999 119.839 117.34 119.599 117.713 119.262C118.085 118.924 118.339 118.528 118.472 118.073C118.622 117.619 118.753 116.988 118.863 116.182C118.936 115.655 118.998 115.269 119.05 115.024C119.192 114.237 119.285 113.562 119.327 113C119.355 112.636 119.476 112.346 119.691 112.13C119.907 111.897 120.187 111.793 120.532 111.82C120.73 111.835 120.946 111.918 121.183 112.069C121.437 112.205 121.599 112.359 121.669 112.53C121.755 112.703 121.784 112.98 121.755 113.36C121.74 113.559 121.701 113.747 121.638 113.925C121.491 114.329 121.396 114.821 121.353 115.4L121.28 116.691C121.191 117.865 121.207 118.739 121.329 119.314C121.391 119.585 121.486 119.867 121.612 120.159C121.74 120.435 121.863 120.669 121.981 120.861C122.282 121.25 122.476 121.522 122.564 121.679C122.652 121.818 122.692 121.954 122.682 122.087C122.667 122.285 122.554 122.468 122.343 122.634C122.149 122.786 121.946 122.854 121.732 122.837C121.124 122.791 120.614 122.544 120.201 122.096C119.789 121.649 119.501 121.087 119.337 120.409C118.729 121.011 118.172 121.492 117.665 121.852C117.319 122.059 116.903 122.201 116.418 122.281C115.934 122.343 115.453 122.356 114.977 122.32C114.336 122.271 113.706 121.957 113.089 121.377C112.472 120.798 112.074 120.152 111.897 119.44C111.883 119.406 111.843 119.27 111.779 119.032C111.73 118.796 111.724 118.446 111.759 117.983C111.805 117.371 111.896 116.605 112.032 115.684C112.126 115.093 112.192 114.549 112.23 114.053C112.241 113.904 112.193 113.776 112.085 113.668C111.994 113.561 111.883 113.502 111.751 113.492C111.653 113.485 111.536 113.493 111.402 113.516C111.286 113.523 111.162 113.522 111.031 113.512ZM122.221 112.615C122.361 112.788 122.546 112.896 122.775 112.94L123.956 113.095C123.842 114.119 123.771 114.937 123.742 115.55C123.677 116.958 123.708 118.055 123.836 118.841C123.918 119.227 124.016 119.589 124.132 119.926C124.249 120.264 124.33 120.458 124.377 120.51C124.691 120.874 125.08 121.183 125.547 121.437C126.03 121.692 126.511 121.831 126.988 121.854C127.762 121.89 128.403 121.771 128.911 121.496C129.42 121.205 129.685 120.827 129.706 120.363C129.718 120.115 129.67 119.913 129.561 119.759C129.469 119.605 129.308 119.523 129.078 119.512C128.913 119.504 128.729 119.554 128.526 119.66C128.223 119.795 127.931 119.856 127.651 119.843C127.174 119.821 126.817 119.688 126.581 119.444C126.362 119.185 126.215 118.788 126.141 118.253C126.029 117.484 126 116.503 126.056 115.311C126.091 114.549 126.149 113.846 126.228 113.203C127.514 113.23 128.465 113.184 129.081 113.063C129.663 112.975 129.969 112.607 129.999 111.961C130.011 111.713 129.913 111.517 129.705 111.375C129.514 111.216 129.279 111.13 128.999 111.117C128.719 111.104 128.265 111.099 127.638 111.103C127.175 111.114 126.812 111.114 126.549 111.101C126.736 110.28 126.849 109.439 126.889 108.578C126.916 107.998 126.853 107.596 126.698 107.373C126.56 107.151 126.277 107.03 125.849 107.01C125.503 106.993 125.186 107.07 124.897 107.239C124.625 107.408 124.481 107.675 124.464 108.04C124.459 108.139 124.461 108.28 124.469 108.463C124.477 108.646 124.475 108.862 124.463 109.111C124.433 109.773 124.336 110.424 124.174 111.064C123.236 111.02 122.654 111.1 122.43 111.305C122.31 111.399 122.214 111.511 122.142 111.64C122.087 111.771 122.056 111.894 122.051 112.01C122.04 112.241 122.097 112.443 122.221 112.615Z" fill="#4A4A4A"/>
</svg>
