<svg width="24" height="24" viewBox="0 0 24 24" fill="none" xmlns="http://www.w3.org/2000/svg">
<circle cx="12" cy="12" r="12" fill="#5865F2"/>
<path d="M18.2377 6.07766C17.0708 5.57009 15.8392 5.20815 14.5739 5.00089C14.5624 4.99886 14.5505 5.00032 14.54 5.00505C14.5294 5.00978 14.5207 5.01755 14.515 5.02726C14.3568 5.29396 14.1815 5.64182 14.0588 5.91521C12.6753 5.71893 11.2988 5.71893 9.94372 5.91521C9.82102 5.63571 9.63937 5.29396 9.48044 5.02726C9.47456 5.01778 9.46579 5.01019 9.45529 5.0055C9.44479 5.00081 9.43304 4.99923 9.42157 5.00096C8.15616 5.20774 6.92452 5.56965 5.75767 6.07759C5.74769 6.08163 5.73928 6.08851 5.7336 6.09727C3.40005 9.40063 2.76075 12.6228 3.0744 15.8049C3.07529 15.8127 3.07782 15.8203 3.08184 15.8271C3.08586 15.834 3.09129 15.84 3.0978 15.8448C4.6374 16.9162 6.12877 17.5666 7.59247 17.9976C7.60385 18.0008 7.616 18.0007 7.62729 17.9972C7.63857 17.9937 7.64846 17.987 7.65562 17.978C8.00182 17.53 8.31045 17.0576 8.57512 16.5609C8.57876 16.554 8.58083 16.5466 8.58121 16.539C8.58159 16.5314 8.58026 16.5238 8.57732 16.5167C8.57437 16.5096 8.56987 16.5031 8.56411 16.4978C8.55836 16.4925 8.55148 16.4884 8.54392 16.4857C8.05432 16.3098 7.5882 16.0952 7.13977 15.8516C7.13159 15.8471 7.12473 15.8407 7.11977 15.833C7.11482 15.8254 7.11193 15.8167 7.11137 15.8077C7.11081 15.7987 7.11258 15.7898 7.11654 15.7816C7.1205 15.7734 7.12652 15.7663 7.13407 15.7609C7.22842 15.6939 7.32285 15.6242 7.41292 15.5538C7.42093 15.5475 7.43062 15.5435 7.4409 15.5422C7.45118 15.5409 7.46165 15.5423 7.47112 15.5463C10.417 16.8207 13.6061 16.8207 16.5172 15.5463C16.5266 15.5421 16.5372 15.5404 16.5476 15.5416C16.5581 15.5428 16.5679 15.5468 16.576 15.5531C16.6662 15.6234 16.7605 15.6939 16.8556 15.7609C16.8632 15.7663 16.8693 15.7733 16.8733 15.7815C16.8773 15.7896 16.8791 15.7985 16.8786 15.8075C16.8781 15.8164 16.8753 15.8251 16.8705 15.8328C16.8656 15.8405 16.8588 15.8469 16.8507 15.8516C16.4021 16.0998 15.9322 16.3117 15.4459 16.485C15.4384 16.4878 15.4315 16.492 15.4258 16.4974C15.4201 16.5028 15.4157 16.5093 15.4128 16.5165C15.4099 16.5236 15.4086 16.5313 15.4091 16.5389C15.4095 16.5466 15.4117 16.554 15.4154 16.5609C15.6857 17.0569 15.9943 17.5293 16.3342 17.9773C16.3411 17.9865 16.3509 17.9935 16.3623 17.9971C16.3736 18.0008 16.3859 18.001 16.3973 17.9976C17.8681 17.5665 19.3594 16.9161 20.899 15.8448C20.9057 15.8402 20.9112 15.8344 20.9152 15.8276C20.9193 15.8208 20.9218 15.8133 20.9225 15.8056C21.2978 12.1266 20.2939 8.93089 18.2611 6.09791C18.2561 6.08871 18.2478 6.08157 18.2377 6.07766ZM9.015 13.8673C8.12812 13.8673 7.39732 13.0958 7.39732 12.1483C7.39732 11.2008 8.11395 10.4293 9.01507 10.4293C9.92317 10.4293 10.6468 11.2076 10.6327 12.1483C10.6327 13.0958 9.91604 13.8673 9.015 13.8673ZM14.9961 13.8673C14.1092 13.8673 13.3784 13.0958 13.3784 12.1483C13.3784 11.2008 14.095 10.4293 14.9961 10.4293C15.9042 10.4293 16.6279 11.2076 16.6137 12.1483C16.6137 13.0958 15.9042 13.8673 14.9961 13.8673Z" fill="white"/>
</svg>
