<svg width="24" height="24" viewBox="0 0 24 24" fill="none" xmlns="http://www.w3.org/2000/svg">
<g clip-path="url(#clip0_69_14)">
<circle cx="12" cy="12" r="12" fill="white"/>
<path d="M24 12C24 5.373 18.627 0 12 0C5.373 0 0 5.373 0 12C0 17.99 4.388 22.954 10.125 23.854V15.469H7.078V11.999H10.125V9.357C10.125 6.35 11.917 4.688 14.658 4.688C15.97 4.688 17.344 4.923 17.344 4.923V7.876H15.83C14.339 7.876 13.874 8.801 13.874 9.75V12H17.202L16.67 15.47H13.874V23.855C19.612 22.954 24 17.989 24 12Z" fill="#0866FF"/>
</g>
<defs>
<clipPath id="clip0_69_14">
<rect width="24" height="24" fill="white"/>
</clipPath>
</defs>
</svg>
