<svg width="24" height="24" viewBox="0 0 24 24" fill="none" xmlns="http://www.w3.org/2000/svg">
<circle cx="12" cy="12" r="12" fill="white"/>
<path d="M19.75 9.07501L17.875 10.1063L16 11.8875V18H18.625C19.2464 18 19.75 17.4964 19.75 16.875V9.07501Z" fill="#4CAF50"/>
<path d="M4 9.07501L5.35525 9.71626L7.75 11.8875V18H5.125C4.50362 18 4 17.4964 4 16.875V9.07501Z" fill="#1E88E5"/>
<path d="M16 7.20001L11.875 10.2938L7.75 7.20001L7.375 9.37501L7.75 11.8875L11.875 14.9813L16 11.8875L16.375 9.37501L16 7.20001Z" fill="#E53935"/>
<path d="M4 7.61175V9.075L7.75 11.8875V7.2L6.5785 6.32212C6.2995 6.11287 5.9605 6 5.61175 6C4.7215 6 4 6.7215 4 7.61175Z" fill="#C62828"/>
<path d="M19.75 7.61175V9.075L16 11.8875V7.2L17.1715 6.32212C17.4505 6.11287 17.7895 6 18.1382 6C19.0285 6 19.75 6.7215 19.75 7.61175Z" fill="#FBC02D"/>
</svg>
