<svg id="Layer_1" data-name="Layer 1" xmlns="http://www.w3.org/2000/svg" viewBox="0 0 512 512"><defs><style>.cls-1{fill:#141f38;}</style></defs><title>heart-glyph</title><path class="cls-1" d="M377.16,25.55c-53.57.19-99.77,32.3-121.16,78.63-21.38-46.32-67.58-78.44-121.16-78.63C58,25.29-2.39,92.55.07,170.85c5,159.71,155.09,266.36,223.05,306.6a64.52,64.52,0,0,0,65.75,0c68-40.23,218-146.89,223.05-306.6C514.39,92.55,454,25.29,377.16,25.55ZM152.62,256l18,27,21.31,32,21.31-32L240,242.91l52.34,104.68,24-40L347.26,256h120C424.67,358.28,321.38,428.4,275.8,455.39a38.85,38.85,0,0,1-39.72,0C190.62,428.47,87.26,358.33,44.64,256Z"/></svg>