<svg viewBox="0 0 24 24" fill="none" xmlns="http://www.w3.org/2000/svg"><g id="SVGRepo_bgCarrier" stroke-width="0"></g><g id="SVGRepo_tracerCarrier" stroke-linecap="round" stroke-linejoin="round"></g><g id="SVGRepo_iconCarrier"> <g id="style=bulk"> <g id="web"> <g id="vector"> <path d="M21.4016 7.31948C20.3697 7.63221 18.5789 8.14039 16.6598 8.53603C16.2178 5.84926 15.4429 3.16951 15.0702 1.95598C17.8422 2.80227 20.1273 4.76467 21.4016 7.31948Z" fill="#616161"></path> <path d="M15.1116 8.82229C14.0253 8.99781 12.9513 9.1125 12 9.1125C11.0487 9.1125 9.97474 8.99781 8.8884 8.8223C9.30468 6.28005 10.0478 3.68306 10.4277 2.44333C10.525 2.12606 10.5636 2.00144 10.6306 1.83418C10.664 1.75062 10.698 1.67398 10.7457 1.57414C11.157 1.52518 11.5755 1.5 12 1.5C12.4433 1.5 12.8803 1.52748 13.3092 1.58083C13.3184 1.61564 13.3268 1.64679 13.3351 1.67626C13.3596 1.76333 13.3981 1.8857 13.4627 2.09104L13.4695 2.11261C13.7935 3.14223 14.6518 6.01401 15.1116 8.82229Z" fill="#616161"></path> <path d="M7.34001 8.536C7.78007 5.86107 8.54983 3.19576 8.92188 1.98181L8.9298 1.95597C6.15773 2.80225 3.87267 4.76465 2.59831 7.31946C3.63015 7.63219 5.42092 8.14036 7.34001 8.536Z" fill="#616161"></path> <path d="M12 16.9875C12.8769 16.9875 13.8389 16.8997 14.8153 16.7599C14.4016 18.7425 13.8731 20.575 13.5722 21.5566C13.475 21.8739 13.4363 21.9985 13.3694 22.1658C13.336 22.2494 13.3019 22.326 13.2542 22.4259C12.843 22.4748 12.4244 22.5 12 22.5C11.5755 22.5 11.157 22.4748 10.7457 22.4259C10.698 22.326 10.664 22.2494 10.6306 22.1658C10.5637 21.9986 10.525 21.8739 10.4277 21.5567C10.1269 20.5751 9.59842 18.7427 9.18474 16.7603C10.1579 16.8996 11.12 16.9875 12 16.9875Z" fill="#616161"></path> <path d="M5.03847 15.9259C3.7385 15.6024 2.63132 15.2775 1.95593 15.0702C2.97255 18.4002 5.59979 21.0274 8.9298 22.044L8.92189 22.0182C8.59702 20.9582 7.96893 18.7917 7.52187 16.4784C6.65247 16.3103 5.80719 16.1171 5.03847 15.9259Z" fill="#616161"></path> <path d="M22.0182 15.0781C20.9581 15.403 18.7915 16.0311 16.4781 16.4781C16.0311 18.7915 15.4029 20.9581 15.0781 22.0182L15.0701 22.044C18.4001 21.0274 21.0274 18.4002 22.044 15.0702L22.0182 15.0781Z" fill="#616161"></path> </g> <g id="vector_2"> <path d="M2.00184 8.78369C1.67598 9.79737 1.5 10.8783 1.5 12.0002C1.5 12.4392 1.52693 12.8718 1.57923 13.2965L1.74471 13.3517L1.74603 13.3522L1.74765 13.3527L1.74879 13.3531C1.80205 13.3707 3.36305 13.8862 5.41878 14.3977C5.99886 14.542 6.61307 14.6847 7.24006 14.8154C7.10025 13.8391 7.0125 12.8771 7.0125 12.0002C7.0125 11.3991 7.05374 10.758 7.12472 10.0996C5.03428 9.6746 3.11218 9.12235 2.08597 8.81012L2.07883 8.80795L2.00184 8.78369Z" fill="#a1a1a1"></path> <path d="M1.6103 13.3232C1.64665 13.3279 1.67628 13.3329 1.68611 13.3351C1.69472 13.3373 1.70821 13.3408 1.7131 13.3422L1.72391 13.3453L1.72973 13.347L1.73585 13.3489L1.74098 13.3505C1.7381 13.3496 1.67976 13.335 1.6103 13.3232Z" fill="#a1a1a1"></path> <path d="M16.8752 10.0996C16.9463 10.7581 16.9875 11.3993 16.9875 12.0002C16.9875 12.8772 16.8998 13.8392 16.7599 14.8155C18.7425 14.4018 20.5751 13.8733 21.5567 13.5725C21.8739 13.4752 21.9986 13.4365 22.1658 13.3696C22.2494 13.3362 22.326 13.3022 22.4259 13.2545C22.4748 12.8432 22.5 12.4247 22.5 12.0002C22.5 10.8783 22.324 9.79737 21.9982 8.78369L21.9133 8.8104C20.8869 9.12268 18.9652 9.67473 16.8752 10.0996Z" fill="#a1a1a1"></path> <path d="M15.3222 10.3832C15.3796 10.9459 15.4125 11.4905 15.4125 12.0002C15.4125 12.9543 15.2972 14.0317 15.1208 15.121C14.0315 15.2973 12.9541 15.4127 12 15.4127C11.0502 15.4127 9.97313 15.2977 8.87911 15.1206C8.70281 14.0314 8.5875 12.9542 8.5875 12.0002C8.5875 11.4907 8.62039 10.946 8.67789 10.3832C9.82608 10.567 10.9715 10.6877 12 10.6877C13.0286 10.6877 14.174 10.567 15.3222 10.3832Z" fill="#a1a1a1"></path> </g> </g> </g> </g></svg>