<svg id="Layer_1" data-name="Layer 1" xmlns="http://www.w3.org/2000/svg" viewBox="0 0 512 512"><defs><style>.cls-1{fill:#141f38;}</style></defs><title>saturn_style_1</title><path class="cls-1" d="M473.12,242.89c.26,4.34.4,8.71.4,13.11a224.73,224.73,0,0,1-1.86,28.84c-14.16,106.7-105.48,189-216,189a218.13,218.13,0,0,1-81.26-15.64,214.73,214.73,0,0,1-37-19.22h0A277.16,277.16,0,0,1,100,441.71c-43.64,0-76.84-12.5-91.7-38.32-14.23-24.67-9.61-57.67,9.87-93.56.26,1.47.64,2.95,1,4.36.26,1,.51,2.11.77,3.14v.19l.9,3.27a233.87,233.87,0,0,0,9,26.47c-5.7,17.49-5.64,32.43.64,43.32,6.41,11.21,19.93,19,39,22.75,2.76.58,5.64,1.09,8.59,1.47,1.47.13,3,.32,4.55.45s3.08.32,4.68.38c2.05.19,4.17.26,6.28.32s4.29.13,6.47.13c2.37,0,4.68-.06,7-.19h1.15c1.6-.06,3.2-.13,4.87-.26s3.65-.19,5.51-.38c5.25-.38,10.7-1,16.21-1.79,2.31-.32,4.61-.71,6.92-1.09,5.32-.83,10.77-1.86,16.28-3.08,1.09-.19,2.11-.45,3.2-.7,5.58-1.22,11.21-2.56,16.92-4.17,2.11-.58,4.23-1.15,6.28-1.73,7.43-2.11,15-4.49,22.62-7,2.56-.9,5.19-1.86,7.75-2.76,10.25-3.65,20.63-7.69,31-12.24,2.56-1.09,5.19-2.24,7.75-3.4,5.13-2.24,10.25-4.68,15.38-7.11,13-6.34,26-13.14,38.64-20.51,2.88-1.67,5.77-3.4,8.65-5.13,1.86-1.09,3.72-2.18,5.51-3.33a17.26,17.26,0,0,0,1.79-1.15c3.2-1.92,6.34-3.91,9.48-6,4-2.56,7.95-5.19,11.86-7.82,8.2-5.58,16.21-11.34,23.9-17.17,3.08-2.31,6.09-4.68,9.1-7,6.15-4.87,12.18-9.87,17.94-14.93,10.89-9.48,20.89-19,30.05-28.52,5.51-5.77,10.77-11.6,15.64-17.43a3.55,3.55,0,0,0,.38-.51c3.78-4.49,7.37-9,10.7-13.46.06-.06.13-.13.13-.19,2.24-2.95,4.36-5.9,6.41-8.91a.87.87,0,0,0,.19-.26c1.92-2.82,3.84-5.7,5.58-8.52a5.37,5.37,0,0,0,.51-.77l.58-1,1.54-2.5v-.13A172.58,172.58,0,0,0,480,179.74l.38-1,.7-2a18,18,0,0,0,.64-2c6.15-18.07,6.28-33.45-.19-44.67-4.74-8.2-13.27-14.61-25.06-18.9a67.54,67.54,0,0,0-6.66-2.11c-3.72-5-7.75-9.93-12.11-14.74-4.61-5.25-9.48-10.25-14.55-15.06,38.13,2,67,14.42,80.55,38,18.39,31.85,5.32,77.73-30.57,125.54ZM38.92,278.3c.19,1.67.32,3.2.58,4.81a3.65,3.65,0,0,0,.06.83,18.45,18.45,0,0,0,.26,1.86c.26,1.92.58,3.85.9,5.83s.64,3.84,1,5.77c.38,2.18.83,4.36,1.35,6.47a40,40,0,0,0,1,4q.67,3.07,1.54,6.15v.06a209.73,209.73,0,0,0,11.86,32.55,218.6,218.6,0,0,0,26.08,43,156,156,0,0,0,16.47.83c2.11,0,4.17-.06,6.34-.19h.9C160,388.33,230,364.81,294.73,327.45c65.3-37.74,120.6-87,148.86-132.46l1.86-3.2a142.36,142.36,0,0,0,10.64-21.34v-.06A213.28,213.28,0,0,0,434.82,132c-1.35-2-2.76-3.91-4.23-5.83-3.78-5.13-7.82-10.06-12-14.8A213.71,213.71,0,0,0,392.4,86.44c-.58-.51-1.15-1-1.73-1.41-1.92-1.54-3.91-3.08-5.9-4.55A217.45,217.45,0,0,0,255.64,38.12c-113.36,0-206.47,86.51-216.86,197.12a202.9,202.9,0,0,0-1,20.76c0,7.37.38,14.67,1.09,21.85A1.09,1.09,0,0,0,38.92,278.3Z"/></svg>