<svg width="24" height="24" viewBox="0 0 24 24" fill="none" xmlns="http://www.w3.org/2000/svg">
<path d="M19.2596 8.48334C19.2702 8.63485 19.2702 8.78708 19.2702 8.94003C19.2702 13.6124 15.7612 19 9.3465 19V18.9978C7.45116 19.0005 5.59513 18.4501 4 17.4124C4.91315 17.5239 5.83904 17.4519 6.72471 17.2004C7.61039 16.9489 8.43847 16.523 9.16162 15.9468C8.43377 15.9328 7.72842 15.6886 7.14421 15.2483C6.56 14.808 6.12613 14.1936 5.90329 13.4911C6.42582 13.5932 6.96448 13.5726 7.47792 13.4308C6.68865 13.269 5.97885 12.8355 5.46889 12.2038C4.95894 11.5721 4.68022 10.781 4.68 9.96469V9.92017C5.16507 10.1942 5.70806 10.3459 6.26312 10.3625C5.52466 9.86263 5.00188 9.09627 4.8012 8.21941C4.60051 7.34256 4.73701 6.42113 5.18292 5.64271C6.05885 6.73498 7.1516 7.62829 8.39022 8.26464C9.62883 8.90098 10.9856 9.26614 12.3725 9.33639C12.1997 8.57872 12.2779 7.78445 12.595 7.07634C12.9121 6.36823 13.4504 5.78569 14.1268 5.41876C14.8032 5.05183 15.5799 4.92093 16.337 5.04629C17.0941 5.17165 17.7894 5.54629 18.3154 6.11232C19.0968 5.95611 19.8462 5.66567 20.5311 5.25352C20.2708 6.07245 19.7258 6.76758 18.9975 7.20951C19.6887 7.12653 20.3637 6.93895 21 6.65301C20.5317 7.36302 19.9423 7.9828 19.2596 8.48334Z" fill="#1D9BF0"/>
</svg>
